{
  "accessors": [
    {
      "bufferView": 2,
      "componentType": 5126,
      "count": 65532,
      "max": [
        0.0,
        49.11149978637695,
        113.671875
      ],
      "min": [
        -149.609375,
        12.340973854064941,
        100.390625
      ],
      "type": "VEC3"
    },
    {
      "bufferView": 2,
      "byteOffset": 786384,
      "componentType": 5126,
      "count": 65532,
      "max": [
        0.978999674320221,
        1.0,
        0.9808964729309082
      ],
      "min": [
        -0.9894425272941589,
        0.14143259823322296,
        -0.9785868525505066
      ],
      "type": "VEC3"
    },
    {
      "bufferView": 1,
      "componentType": 5126,
      "count": 65532,
      "max": [
        1.0,
        -0.8831999897956848
      ],
      "min": [
        0.0,
        -1.0
      ],
      "type": "VEC2"
    },
    {
      "bufferView": 0,
      "componentType": 5125,
      "count": 74850,
      "type": "SCALAR"
    },
    {
      "bufferView": 2,
      "byteOffset": 1572768,
      "componentType": 5126,
      "count": 65534,
      "max": [
        0.0,
        49.092742919921875,
        101.171875
      ],
      "min": [
        -149.609375,
        9.955470085144043,
        87.5
      ],
      "type": "VEC3"
    },
    {
      "bufferView": 2,
      "byteOffset": 2359176,
      "componentType": 5126,
      "count": 65534,
      "max": [
        0.9799181818962097,
        1.0,
        0.9785169363021851
      ],
      "min": [
        -0.9795319437980652,
        0.1423933506011963,
        -0.9834911227226257
      ],
      "type": "VEC3"
    },
    {
      "bufferView": 1,
      "byteOffset": 524256,
      "componentType": 5126,
      "count": 65534,
      "max": [
        1.0,
        -0.7698000073432922
      ],
      "min": [
        0.0,
        -0.8899999856948853
      ],
      "type": "VEC2"
    },
    {
      "bufferView": 0,
      "byteOffset": 299400,
      "componentType": 5125,
      "count": 74730,
      "type": "SCALAR"
    },
    {
      "bufferView": 2,
      "byteOffset": 3145584,
      "componentType": 5126,
      "count": 65534,
      "max": [
        0.0,
        41.97374725341797,
        88.28125
      ],
      "min": [
        -149.609375,
        7.573092937469482,
        74.609375
      ],
      "type": "VEC3"
    },
    {
      "bufferView": 2,
      "byteOffset": 3931992,
      "componentType": 5126,
      "count": 65534,
      "max": [
        0.9938570857048035,
        1.0,
        0.9856677055358887
      ],
      "min": [
        -0.9745885133743286,
        0.11030755192041397,
        -0.9923108220100403
      ],
      "type": "VEC3"
    },
    {
      "bufferView": 1,
      "byteOffset": 1048528,
      "componentType": 5126,
      "count": 65534,
      "max": [
        1.0,
        -0.6564000248908997
      ],
      "min": [
        0.0,
        -0.7766000032424927
      ],
      "type": "VEC2"
    },
    {
      "bufferView": 0,
      "byteOffset": 598320,
      "componentType": 5125,
      "count": 75219,
      "type": "SCALAR"
    },
    {
      "bufferView": 2,
      "byteOffset": 4718400,
      "componentType": 5126,
      "count": 65532,
      "max": [
        0.0,
        39.38502502441406,
        75.78125
      ],
      "min": [
        -149.609375,
        7.691898822784424,
        29.296875
      ],
      "type": "VEC3"
    },
    {
      "bufferView": 2,
      "byteOffset": 5504784,
      "componentType": 5126,
      "count": 65532,
      "max": [
        0.9843547344207764,
        1.0,
        0.9851548671722412
      ],
      "min": [
        -0.9796503186225891,
        0.16696009039878845,
        -0.9794008135795593
      ],
      "type": "VEC3"
    },
    {
      "bufferView": 1,
      "byteOffset": 1572800,
      "componentType": 5126,
      "count": 65532,
      "max": [
        1.0,
        -0.25769999623298645
      ],
      "min": [
        0.0,
        -0.666700005531311
      ],
      "type": "VEC2"
    },
    {
      "bufferView": 0,
      "byteOffset": 899196,
      "componentType": 5125,
      "count": 78237,
      "type": "SCALAR"
    },
    {
      "bufferView": 2,
      "byteOffset": 6291168,
      "componentType": 5126,
      "count": 65533,
      "max": [
        0.0,
        38.55963134765625,
        29.6875
      ],
      "min": [
        -149.609375,
        11.284224510192871,
        16.40625
      ],
      "type": "VEC3"
    },
    {
      "bufferView": 2,
      "byteOffset": 7077564,
      "componentType": 5126,
      "count": 65533,
      "max": [
        0.9815846085548401,
        1.0,
        0.9756696224212646
      ],
      "min": [
        -0.9783049821853638,
        0.16450120508670807,
        -0.9468361735343933
      ],
      "type": "VEC3"
    },
    {
      "bufferView": 1,
      "byteOffset": 2097056,
      "componentType": 5126,
      "count": 65533,
      "max": [
        1.0,
        -0.14429999887943268
      ],
      "min": [
        0.0,
        -0.2612000107765198
      ],
      "type": "VEC2"
    },
    {
      "bufferView": 0,
      "byteOffset": 1212144,
      "componentType": 5125,
      "count": 74646,
      "type": "SCALAR"
    },
    {
      "bufferView": 2,
      "byteOffset": 7863960,
      "componentType": 5126,
      "count": 65533,
      "max": [
        0.0,
        39.74456787109375,
        17.1875
      ],
      "min": [
        -149.609375,
        11.903266906738281,
        0.0
      ],
      "type": "VEC3"
    },
    {
      "bufferView": 2,
      "byteOffset": 8650356,
      "componentType": 5126,
      "count": 65533,
      "max": [
        0.9961596131324768,
        1.0,
        0.9725304841995239
      ],
      "min": [
        -0.9786564707756042,
        0.08454285562038422,
        -0.9487282037734985
      ],
      "type": "VEC3"
    },
    {
      "bufferView": 1,
      "byteOffset": 2621320,
      "componentType": 5126,
      "count": 65533,
      "max": [
        1.0,
        0.0
      ],
      "min": [
        0.0,
        -0.15119999647140503
      ],
      "type": "VEC2"
    },
    {
      "bufferView": 0,
      "byteOffset": 1510728,
      "componentType": 5125,
      "count": 73836,
      "type": "SCALAR"
    },
    {
      "bufferView": 2,
      "byteOffset": 9436752,
      "componentType": 5126,
      "count": 65532,
      "max": [
        0.0,
        40.344852447509766,
        40.625
      ],
      "min": [
        -149.609375,
        10.164944648742676,
        11.328125
      ],
      "type": "VEC3"
    },
    {
      "bufferView": 2,
      "byteOffset": 10223136,
      "componentType": 5126,
      "count": 65532,
      "max": [
        0.9876930713653564,
        1.0,
        0.9635505676269531
      ],
      "min": [
        -0.9835832715034485,
        0.15635554492473602,
        -0.9751827716827393
      ],
      "type": "VEC3"
    },
    {
      "bufferView": 1,
      "byteOffset": 3145584,
      "componentType": 5126,
      "count": 65532,
      "max": [
        1.0,
        -0.09969999641180038
      ],
      "min": [
        0.0,
        -0.35740000009536743
      ],
      "type": "VEC2"
    },
    {
      "bufferView": 0,
      "byteOffset": 1806072,
      "componentType": 5125,
      "count": 75306,
      "type": "SCALAR"
    },
    {
      "bufferView": 2,
      "byteOffset": 11009520,
      "componentType": 5126,
      "count": 65532,
      "max": [
        0.0,
        40.113494873046875,
        53.90625
      ],
      "min": [
        -149.609375,
        8.754901885986328,
        40.234375
      ],
      "type": "VEC3"
    },
    {
      "bufferView": 2,
      "byteOffset": 11795904,
      "componentType": 5126,
      "count": 65532,
      "max": [
        0.9846568703651428,
        1.0,
        0.9879512190818787
      ],
      "min": [
        -0.9865493774414063,
        0.12864026427268982,
        -0.9865613579750061
      ],
      "type": "VEC3"
    },
    {
      "bufferView": 1,
      "byteOffset": 3669840,
      "componentType": 5126,
      "count": 65532,
      "max": [
        1.0,
        -0.3540000021457672
      ],
      "min": [
        0.0,
        -0.4742000102996826
      ],
      "type": "VEC2"
    },
    {
      "bufferView": 0,
      "byteOffset": 2107296,
      "componentType": 5125,
      "count": 77334,
      "type": "SCALAR"
    },
    {
      "bufferView": 2,
      "byteOffset": 12582288,
      "componentType": 5126,
      "count": 53588,
      "max": [
        0.0,
        30.562097549438477,
        64.453125
      ],
      "min": [
        -149.609375,
        8.035811424255371,
        53.125
      ],
      "type": "VEC3"
    },
    {
      "bufferView": 2,
      "byteOffset": 13225344,
      "componentType": 5126,
      "count": 53588,
      "max": [
        0.9706977009773254,
        1.0,
        0.9897169470787048
      ],
      "min": [
        -0.9778609871864319,
        0.1245647445321083,
        -0.9698648452758789
      ],
      "type": "VEC3"
    },
    {
      "bufferView": 1,
      "byteOffset": 4194096,
      "componentType": 5126,
      "count": 53588,
      "max": [
        1.0,
        -0.4674000144004822
      ],
      "min": [
        0.0,
        -0.5669999718666077
      ],
      "type": "VEC2"
    },
    {
      "bufferView": 0,
      "byteOffset": 2416632,
      "componentType": 5125,
      "count": 64560,
      "type": "SCALAR"
    },
    {
      "bufferView": 2,
      "byteOffset": 13868400,
      "componentType": 5126,
      "count": 4054,
      "max": [
        0.0,
        46.71974563598633,
        113.671875
      ],
      "min": [
        -149.609375,
        0.0,
        0.0
      ],
      "type": "VEC3"
    },
    {
      "bufferView": 2,
      "byteOffset": 13917048,
      "componentType": 5126,
      "count": 4054,
      "max": [
        1.0,
        0.0,
        1.0
      ],
      "min": [
        -1.0,
        -1.0,
        -1.0
      ],
      "type": "VEC3"
    },
    {
      "bufferView": 1,
      "byteOffset": 4622800,
      "componentType": 5126,
      "count": 4054,
      "max": [
        0.0,
        0.0
      ],
      "min": [
        0.0,
        0.0
      ],
      "type": "VEC2"
    },
    {
      "bufferView": 0,
      "byteOffset": 2674872,
      "componentType": 5125,
      "count": 12132,
      "type": "SCALAR"
    }
  ],
  "asset": {
    "extras": {
      "author": "arakiminoru (https://sketchfab.com/arakiminoru)",
      "license": "CC-BY-4.0 (http://creativecommons.org/licenses/by/4.0/)",
      "source": "https://sketchfab.com/3d-models/i-3d-9b599d8266474b84963ce36e76f73907",
      "title": "大平山元Ⅰ遺跡付近デジタル標高地形図　地理院地図3Dモデル"
    },
    "generator": "Sketchfab-12.65.0",
    "version": "2.0"
  },
  "bufferViews": [
    {
      "buffer": 0,
      "byteLength": 2723400,
      "name": "floatBufferViews",
      "target": 34963
    },
    {
      "buffer": 0,
      "byteLength": 4655232,
      "byteOffset": 2723400,
      "byteStride": 8,
      "name": "floatBufferViews",
      "target": 34962
    },
    {
      "buffer": 0,
      "byteLength": 13965696,
      "byteOffset": 7378632,
      "byteStride": 12,
      "name": "floatBufferViews",
      "target": 34962
    }
  ],
  "buffers": [
    {
      "byteLength": 21344328,
      "uri": "scene.bin"
    }
  ],
  "images": [
    {
      "uri": "textures/material_0_baseColor.png"
    }
  ],
  "materials": [
    {
      "doubleSided": true,
      "name": "material_0",
      "pbrMetallicRoughness": {
        "baseColorTexture": {
          "index": 0
        },
        "metallicFactor": 0.0,
        "roughnessFactor": 0.6
      }
    },
    {
      "doubleSided": true,
      "name": "material_1",
      "pbrMetallicRoughness": {
        "metallicFactor": 0.0,
        "roughnessFactor": 0.6
      }
    }
  ],
  "meshes": [
    {
      "name": "Object_0",
      "primitives": [
        {
          "attributes": {
            "NORMAL": 1,
            "POSITION": 0,
            "TEXCOORD_0": 2
          },
          "indices": 3,
          "material": 0,
          "mode": 4
        }
      ]
    },
    {
      "name": "Object_1",
      "primitives": [
        {
          "attributes": {
            "NORMAL": 5,
            "POSITION": 4,
            "TEXCOORD_0": 6
          },
          "indices": 7,
          "material": 0,
          "mode": 4
        }
      ]
    },
    {
      "name": "Object_2",
      "primitives": [
        {
          "attributes": {
            "NORMAL": 9,
            "POSITION": 8,
            "TEXCOORD_0": 10
          },
          "indices": 11,
          "material": 0,
          "mode": 4
        }
      ]
    },
    {
      "name": "Object_3",
      "primitives": [
        {
          "attributes": {
            "NORMAL": 13,
            "POSITION": 12,
            "TEXCOORD_0": 14
          },
          "indices": 15,
          "material": 0,
          "mode": 4
        }
      ]
    },
    {
      "name": "Object_4",
      "primitives": [
        {
          "attributes": {
            "NORMAL": 17,
            "POSITION": 16,
            "TEXCOORD_0": 18
          },
          "indices": 19,
          "material": 0,
          "mode": 4
        }
      ]
    },
    {
      "name": "Object_5",
      "primitives": [
        {
          "attributes": {
            "NORMAL": 21,
            "POSITION": 20,
            "TEXCOORD_0": 22
          },
          "indices": 23,
          "material": 0,
          "mode": 4
        }
      ]
    },
    {
      "name": "Object_6",
      "primitives": [
        {
          "attributes": {
            "NORMAL": 25,
            "POSITION": 24,
            "TEXCOORD_0": 26
          },
          "indices": 27,
          "material": 0,
          "mode": 4
        }
      ]
    },
    {
      "name": "Object_7",
      "primitives": [
        {
          "attributes": {
            "NORMAL": 29,
            "POSITION": 28,
            "TEXCOORD_0": 30
          },
          "indices": 31,
          "material": 0,
          "mode": 4
        }
      ]
    },
    {
      "name": "Object_8",
      "primitives": [
        {
          "attributes": {
            "NORMAL": 33,
            "POSITION": 32,
            "TEXCOORD_0": 34
          },
          "indices": 35,
          "material": 0,
          "mode": 4
        }
      ]
    },
    {
      "name": "Object_9",
      "primitives": [
        {
          "attributes": {
            "NORMAL": 37,
            "POSITION": 36,
            "TEXCOORD_0": 38
          },
          "indices": 39,
          "material": 1,
          "mode": 4
        }
      ]
    }
  ],
  "nodes": [
    {
      "children": [
        1
      ],
      "matrix": [
        1.0,
        0.0,
        0.0,
        0.0,
        0.0,
        2.220446049250313e-16,
        -1.0,
        0.0,
        0.0,
        1.0,
        2.220446049250313e-16,
        0.0,
        0.0,
        0.0,
        0.0,
        1.0
      ],
      "name": "Sketchfab_model"
    },
    {
      "children": [
        2
      ],
      "matrix": [
        1.0,
        0.0,
        0.0,
        0.0,
        0.0,
        0.0,
        1.0,
        0.0,
        0.0,
        -1.0,
        0.0,
        0.0,
        0.0,
        0.0,
        0.0,
        1.0
      ],
      "name": "dem.wrl.cleaner.materialmerger.gles"
    },
    {
      "children": [
        3,
        4,
        5,
        6,
        7,
        8,
        9,
        10,
        11,
        12
      ],
      "name": "obj1"
    },
    {
      "mesh": 0,
      "name": "Object_3"
    },
    {
      "mesh": 1,
      "name": "Object_4"
    },
    {
      "mesh": 2,
      "name": "Object_5"
    },
    {
      "mesh": 3,
      "name": "Object_6"
    },
    {
      "mesh": 4,
      "name": "Object_7"
    },
    {
      "mesh": 5,
      "name": "Object_8"
    },
    {
      "mesh": 6,
      "name": "Object_9"
    },
    {
      "mesh": 7,
      "name": "Object_10"
    },
    {
      "mesh": 8,
      "name": "Object_11"
    },
    {
      "mesh": 9,
      "name": "Object_12"
    }
  ],
  "samplers": [
    {
      "magFilter": 9729,
      "minFilter": 9987,
      "wrapS": 10497,
      "wrapT": 10497
    }
  ],
  "scene": 0,
  "scenes": [
    {
      "name": "Sketchfab_Scene",
      "nodes": [
        0
      ]
    }
  ],
  "textures": [
    {
      "sampler": 0,
      "source": 0
    }
  ]
}
