# Blender 4.4.1
# www.blender.org
mtllib Object_116.mtl
o Object_116.001
v -0.532873 -0.183067 11.147276
v -0.528673 -0.186650 11.158413
v -0.522209 -0.174250 11.159965
v -0.526409 -0.170667 11.148828
v -0.498336 -0.183463 11.134123
v -0.526409 -0.170667 11.148828
v -0.522209 -0.174250 11.159965
v -0.494136 -0.187046 11.145259
v -0.494136 -0.187046 11.145259
v -0.522209 -0.174250 11.159965
v -0.528673 -0.186650 11.158413
v -0.500600 -0.199446 11.143708
v -0.500600 -0.199446 11.143708
v -0.504800 -0.195863 11.132571
v -0.498336 -0.183463 11.134123
v -0.494136 -0.187046 11.145259
v -0.504800 -0.195863 11.132571
v -0.532873 -0.183067 11.147276
v -0.526409 -0.170667 11.148828
v -0.498336 -0.183463 11.134123
v -0.500600 -0.199446 11.143708
v -0.528673 -0.186650 11.158413
v -0.532873 -0.183067 11.147276
v -0.504800 -0.195863 11.132571
vn -0.8214 0.3745 0.4302
vn -0.8214 0.3744 0.4302
vn 0.4595 0.8813 0.1103
vn 0.3379 -0.2882 0.8960
vn 0.3379 -0.2883 0.8959
vn 0.8214 -0.3745 -0.4302
vn 0.8214 -0.3744 -0.4303
vn -0.3379 0.2883 -0.8959
vn -0.4595 -0.8813 -0.1103
vn -0.4594 -0.8813 -0.1103
vt 0.625000 0.500000
vt 0.875000 0.500000
vt 0.875000 0.250000
vt 0.625000 0.250000
vt 0.375000 0.250000
vt 0.625000 0.000000
vt 0.375000 0.000000
vt 0.375000 1.000000
vt 0.625000 1.000000
vt 0.625000 0.750000
vt 0.375000 0.750000
vt 0.125000 0.500000
vt 0.375000 0.500000
vt 0.125000 0.250000
s 0
usemtl baseMaterial.001
f 1/1/1 2/2/1 3/3/1
f 1/1/2 3/3/2 4/4/2
f 5/5/3 6/4/3 7/6/3
f 5/5/3 7/6/3 8/7/3
f 9/8/4 10/9/4 11/10/4
f 9/8/5 11/10/5 12/11/5
f 13/12/6 14/13/6 15/5/6
f 13/12/7 15/5/7 16/14/7
f 17/13/8 18/1/8 19/4/8
f 17/13/8 19/4/8 20/5/8
f 21/11/9 22/10/9 23/1/9
f 21/11/10 23/1/10 24/13/10
