# Blender 4.4.1
# www.blender.org
mtllib Object_41.mtl
o Object_41.001
v -0.298529 -0.487210 11.251093
v -0.317750 -0.489615 11.257493
v -0.320192 -0.496584 11.247539
v -0.300971 -0.494180 11.241139
v -0.323734 -0.499141 11.235940
v -0.304513 -0.496737 11.229540
v -0.327837 -0.496896 11.224462
v -0.308616 -0.494492 11.218062
v -0.331875 -0.490191 11.214851
v -0.312654 -0.487786 11.208452
v -0.335234 -0.480046 11.208572
v -0.316013 -0.477642 11.202173
v -0.337404 -0.468007 11.206581
v -0.318182 -0.465602 11.200182
v -0.338052 -0.455906 11.209180
v -0.318831 -0.453501 11.202781
v -0.337082 -0.445584 11.215974
v -0.317861 -0.443180 11.209574
v -0.334640 -0.438615 11.225927
v -0.315418 -0.436210 11.219528
v -0.331098 -0.436058 11.237527
v -0.311877 -0.433653 11.231127
v -0.326995 -0.438303 11.249004
v -0.307774 -0.435899 11.242605
v -0.322957 -0.445008 11.258615
v -0.303736 -0.442604 11.252215
v -0.319598 -0.455153 11.264894
v -0.300377 -0.452748 11.258494
v -0.317428 -0.467192 11.266885
v -0.298207 -0.464788 11.260486
v -0.320192 -0.496584 11.247539
v -0.317750 -0.489615 11.257493
v -0.316780 -0.479294 11.264286
v -0.317428 -0.467192 11.266885
v -0.319598 -0.455153 11.264894
v -0.322957 -0.445008 11.258615
v -0.326995 -0.438303 11.249004
v -0.331098 -0.436058 11.237527
v -0.334640 -0.438615 11.225927
v -0.337082 -0.445584 11.215974
v -0.338052 -0.455906 11.209180
v -0.337404 -0.468007 11.206581
v -0.335234 -0.480046 11.208572
v -0.331875 -0.490191 11.214851
v -0.327837 -0.496896 11.224462
v -0.323734 -0.499141 11.235940
v -0.316780 -0.479294 11.264286
v -0.297559 -0.476889 11.257887
v -0.317750 -0.489615 11.257493
v -0.298529 -0.487210 11.251093
v -0.298529 -0.487210 11.251093
v -0.300971 -0.494180 11.241139
v -0.304513 -0.496737 11.229540
v -0.308616 -0.494492 11.218062
v -0.312654 -0.487786 11.208452
v -0.316013 -0.477642 11.202173
v -0.318182 -0.465602 11.200182
v -0.318831 -0.453501 11.202781
v -0.317861 -0.443180 11.209574
v -0.315418 -0.436210 11.219528
v -0.311877 -0.433653 11.231127
v -0.307774 -0.435899 11.242605
v -0.303736 -0.442604 11.252215
v -0.300377 -0.452748 11.258494
v -0.298207 -0.464788 11.260486
v -0.297559 -0.476889 11.257887
v -0.207217 -0.477132 11.227128
v -0.201804 -0.457618 11.250718
v -0.196395 -0.506711 11.273190
v -0.197812 -0.511820 11.267014
v -0.197812 -0.511820 11.267014
v -0.217313 -0.525335 11.314115
v -0.226261 -0.504674 11.295170
v -0.301168 -0.488885 11.258407
v -0.295755 -0.469371 11.281998
v -0.311620 -0.424430 11.260120
v -0.320031 -0.454753 11.223462
v -0.320031 -0.454753 11.223462
v -0.311620 -0.424430 11.260120
v -0.267639 -0.408121 11.259060
v -0.275108 -0.435642 11.226692
v -0.231216 -0.527075 11.318743
v -0.229867 -0.521934 11.324906
v -0.275763 -0.516640 11.299615
v -0.277180 -0.521749 11.293438
v -0.258208 -0.471485 11.262552
v -0.301168 -0.488885 11.258407
v -0.320031 -0.454753 11.223462
v -0.275108 -0.435642 11.226692
v -0.233429 -0.465894 11.284078
v -0.201804 -0.457618 11.250718
v -0.212416 -0.412020 11.227092
v -0.250769 -0.406010 11.253443
v -0.295755 -0.469371 11.281998
v -0.249676 -0.467927 11.289487
v -0.267639 -0.408121 11.259060
v -0.311620 -0.424430 11.260120
v -0.241943 -0.469451 11.257137
v -0.257997 -0.433501 11.220996
v -0.220827 -0.442342 11.190434
v -0.207217 -0.477132 11.227128
v -0.231216 -0.527075 11.318743
v -0.277180 -0.521749 11.293438
v -0.240065 -0.506401 11.299766
v -0.257997 -0.433501 11.220996
v -0.250769 -0.406010 11.253443
v -0.212416 -0.412020 11.227092
v -0.220827 -0.442342 11.190434
v -0.258821 -0.405388 11.258032
v -0.240847 -0.466773 11.288955
v -0.258208 -0.471485 11.262552
v -0.275108 -0.435642 11.226692
v -0.266408 -0.433841 11.224551
v -0.249911 -0.469863 11.260569
v -0.249911 -0.469863 11.260569
v -0.266408 -0.433841 11.224551
v -0.257997 -0.433501 11.220996
v -0.241943 -0.469451 11.257137
v -0.250769 -0.406010 11.253443
v -0.257997 -0.433501 11.220996
v -0.266408 -0.433841 11.224551
v -0.258821 -0.405388 11.258032
v -0.258821 -0.405388 11.258032
v -0.266408 -0.433841 11.224551
v -0.275108 -0.435642 11.226692
v -0.267639 -0.408121 11.259060
v -0.223298 -0.527533 11.318834
v -0.221889 -0.522401 11.324993
v -0.217313 -0.525335 11.314115
v -0.215858 -0.520181 11.320242
v -0.231216 -0.527075 11.318743
v -0.240065 -0.506401 11.299766
v -0.232979 -0.505045 11.298205
v -0.223298 -0.527533 11.318834
v -0.223298 -0.527533 11.318834
v -0.232979 -0.505045 11.298205
v -0.226261 -0.504674 11.295170
v -0.217313 -0.525335 11.314115
v -0.197812 -0.511820 11.267014
v -0.196395 -0.506711 11.273190
v -0.232979 -0.505045 11.298205
v -0.249911 -0.469863 11.260569
v -0.241943 -0.469451 11.257137
v -0.226261 -0.504674 11.295170
v -0.240065 -0.506401 11.299766
v -0.258208 -0.471485 11.262552
v -0.249911 -0.469863 11.260569
v -0.232979 -0.505045 11.298205
v -0.221889 -0.522401 11.324993
v -0.229867 -0.521934 11.324906
v -0.215858 -0.520181 11.320242
v -0.226261 -0.504674 11.295170
v -0.241943 -0.469451 11.257137
v -0.207217 -0.477132 11.227128
v -0.197812 -0.511820 11.267014
v -0.196395 -0.506711 11.273190
v -0.240065 -0.506401 11.299766
v -0.277180 -0.521749 11.293438
v -0.301168 -0.488885 11.258407
v -0.258208 -0.471485 11.262552
v -0.277180 -0.521749 11.293438
v -0.275763 -0.516640 11.299615
v -0.295755 -0.469371 11.281998
v -0.301168 -0.488885 11.258407
v -0.220827 -0.442342 11.190434
v -0.212416 -0.412020 11.227092
v -0.201804 -0.457618 11.250718
v -0.207217 -0.477132 11.227128
vn -0.6030 -0.6650 -0.4405
vn 0.3550 -0.5451 -0.7595
vn 0.8543 -0.4387 0.2788
vn -0.4002 -0.5957 0.6964
vn -0.4576 -0.7593 0.4627
vn 0.7970 -0.6023 0.0450
vn -0.5408 -0.8194 0.1902
vn 0.7138 -0.6624 -0.2274
vn -0.6371 -0.7667 -0.0794
vn 0.6174 -0.6097 -0.4971
vn -0.7320 -0.6092 -0.3051
vn 0.5225 -0.4522 -0.7228
vn -0.8109 -0.3708 -0.4527
vn 0.4436 -0.2138 -0.8703
vn -0.8619 -0.0881 -0.4994
vn 0.3927 0.0689 -0.9171
vn -0.8771 0.1963 -0.4384
vn 0.3774 0.3532 -0.8561
vn -0.8543 0.4386 -0.2788
vn 0.4002 0.5956 -0.6965
vn -0.7970 0.6023 -0.0450
vn 0.4576 0.7593 -0.4628
vn -0.7138 0.6624 0.2275
vn 0.5408 0.8194 -0.1902
vn -0.6174 0.6097 0.4971
vn 0.6372 0.7666 0.0795
vn -0.5226 0.4522 0.7228
vn 0.7320 0.6091 0.3052
vn -0.4436 0.2139 0.8703
vn 0.8109 0.3708 0.4526
vn -0.3927 -0.0689 0.9171
vn 0.8619 0.0881 0.4994
vn -0.3774 -0.3532 0.8561
vn 0.8771 -0.1963 0.4383
vn -0.4002 -0.5956 0.6965
vn 0.8543 -0.4386 0.2788
vn 0.9740 0.0036 -0.2265
vn 0.9740 0.0037 -0.2265
vn -0.9254 -0.1592 0.3440
vn -0.2907 0.7652 -0.5744
vn -0.2909 0.7652 -0.5743
vn -0.2908 0.7652 -0.5743
vn -0.1605 -0.9865 0.0334
vn -0.1923 -0.1466 0.9703
vn -0.6111 -0.1926 0.7678
vn -0.4266 -0.8916 -0.1521
vn 0.3092 -0.5935 -0.7430
vn 0.3090 -0.5938 -0.7429
vn 0.3089 -0.5939 -0.7428
vn 0.5297 0.5170 0.6724
vn 0.9242 0.3122 0.2198
vn 0.5686 0.8084 -0.1522
vn 0.1789 0.9775 0.1119
vn -0.6562 0.1145 0.7459
vn -0.1280 0.4347 0.8914
vn -0.2897 0.9189 0.2679
vn -0.7105 0.6483 0.2737
vn -0.5471 -0.7007 -0.4580
vn -0.5469 -0.7009 -0.4580
vn -0.5467 -0.7010 -0.4580
vn -0.2839 0.7660 -0.5768
vn -0.2839 0.7661 -0.5767
vn -0.2839 0.7661 -0.5766
vn -0.0310 0.9627 0.2686
vn 0.2041 0.5406 0.8162
vn -0.0264 -0.7131 -0.7006
vn -0.0265 -0.7130 -0.7006
vn -0.0264 -0.7130 -0.7006
vn -0.2353 -0.7391 -0.6311
vn -0.2764 0.7625 -0.5849
vn -0.2763 0.7625 -0.5850
vn -0.2763 0.7626 -0.5849
vn -0.3009 0.7595 -0.5768
vn -0.3008 0.7595 -0.5768
vn 0.1373 -0.9897 0.0407
vn 0.3306 -0.1737 0.9277
vn 0.3633 -0.9209 -0.1410
vn 0.7552 -0.0281 0.6549
vn -0.0309 -0.6829 -0.7298
vn -0.0306 -0.6829 -0.7299
vn -0.0305 -0.6829 -0.7299
vn -0.0306 -0.6829 -0.7298
vn -0.2562 -0.7110 -0.6548
vn -0.2558 -0.7111 -0.6549
vn 0.4390 -0.7833 -0.4402
vn 0.9704 0.0054 0.2412
vn -0.2276 -0.7599 -0.6089
vn -0.0146 -0.7332 -0.6798
vn -0.0147 -0.7332 -0.6798
vn 0.3306 -0.1738 0.9276
vn 0.7553 -0.0280 0.6548
vn -0.5686 -0.6948 -0.4404
vn -0.6111 -0.1925 0.7678
vn 0.9704 0.0054 0.2413
vn 0.3349 -0.5819 -0.7412
vn 0.3349 -0.5818 -0.7412
vn -0.8900 -0.2295 0.3941
vn 0.9563 0.0762 -0.2824
vn -0.6371 -0.7667 -0.0795
vn -0.8109 -0.3709 -0.4527
vn -0.7320 -0.6091 -0.3052
vn -0.5407 -0.8195 0.1901
vn -0.8618 -0.0880 -0.4995
vn -0.4575 -0.7593 0.4627
vn -0.8543 0.4387 -0.2788
vn -0.7969 0.6024 -0.0451
vn -0.3773 -0.3532 0.8561
vn -0.3926 -0.0689 0.9171
vn -0.7137 0.6625 0.2275
vn -0.4435 0.2140 0.8703
vn -0.6172 0.6098 0.4971
vn -0.5225 0.4521 0.7229
vn 0.4436 -0.2140 -0.8703
vn 0.6173 -0.6098 -0.4971
vn 0.5225 -0.4523 -0.7228
vn 0.3926 0.0689 -0.9171
vn 0.7137 -0.6625 -0.2274
vn 0.3773 0.3532 -0.8561
vn 0.7969 -0.6024 0.0450
vn 0.4001 0.5956 -0.6965
vn 0.8543 -0.4387 0.2789
vn 0.4575 0.7593 -0.4627
vn 0.8771 -0.1963 0.4384
vn 0.8618 0.0881 0.4995
vn 0.8108 0.3709 0.4527
vn 0.6371 0.7667 0.0795
vn 0.7319 0.6093 0.3052
vt 0.125000 0.500000
vt 0.228104 0.500000
vt 0.228259 0.448463
vt 0.271896 0.500000
vt 0.375000 0.500000
vt 0.271741 0.448463
vt 1.000000 0.500000
vt 1.000000 0.000000
vt 0.937500 0.000000
vt 0.937500 0.500000
vt 0.875000 0.000000
vt 0.875000 0.500000
vt 0.812500 0.000000
vt 0.812500 0.500000
vt 0.750000 0.000000
vt 0.750000 0.500000
vt 0.687500 0.000000
vt 0.687500 0.500000
vt 0.625000 0.000000
vt 0.625000 0.500000
vt 0.562500 0.000000
vt 0.562500 0.500000
vt 0.500000 0.000000
vt 0.500000 0.500000
vt 0.437500 0.000000
vt 0.437500 0.500000
vt 0.375000 0.000000
vt 0.312500 0.000000
vt 0.312500 0.500000
vt 0.250000 0.000000
vt 0.250000 0.500000
vt 0.187500 0.000000
vt 0.187500 0.500000
vt 0.125000 0.000000
vt 0.062500 0.000000
vt 0.062500 0.500000
vt 0.000000 0.000000
vt 0.000000 0.500000
vt 0.375000 0.875000
vt 0.625000 0.875000
vt 0.625000 0.750000
vt 0.375000 0.750000
vt 0.375000 0.375000
vt 0.625000 0.375000
vt 0.625000 0.250000
vt 0.375000 0.250000
vt 0.625000 0.146257
vt 0.375000 0.146560
vt 0.375000 0.603104
vt 0.625000 0.602936
vt 0.271650 0.349231
vt 0.271560 0.250000
vt 0.771660 0.375000
vt 0.875000 0.375000
vt 0.875000 0.250000
vt 0.771257 0.250000
vt 0.728339 0.375000
vt 0.728743 0.250000
vt 0.228350 0.349231
vt 0.228440 0.250000
vt 0.125000 0.250000
vt 0.125000 0.375000
vt 0.375000 0.103440
vt 0.625000 0.103743
vt 0.750000 0.253188
vt 0.750000 0.374166
vt 0.250000 0.250000
vt 0.250000 0.343727
vt 0.375000 0.125000
vt 0.617557 0.125000
vt 0.375000 0.625000
vt 0.618863 0.625000
vt 0.375000 0.646896
vt 0.625000 0.647064
vt 0.250000 0.437454
vt 0.250000 0.493280
vt 0.271741 0.448463
vt 0.750000 0.495144
vt 0.727936 0.500000
vt 0.772064 0.500000
vt 0.375000 1.000000
vt 0.625000 1.000000
vt 0.471731 0.658156
vt 0.471731 0.841844
vt 0.490000 0.750000
vt 0.419706 0.580294
vt 0.419706 0.919706
vt 0.341844 0.528269
vt 0.341844 0.971731
vt 0.250000 0.990000
vt 0.250000 0.510000
vt 0.158156 0.971731
vt 0.158156 0.528269
vt 0.080294 0.580294
vt 0.080294 0.919706
vt 0.028269 0.658156
vt 0.028269 0.841844
vt 0.010000 0.750000
vt 0.971731 0.841844
vt 0.971731 0.658156
vt 0.990000 0.750000
vt 0.919706 0.919706
vt 0.919706 0.580294
vt 0.841844 0.971731
vt 0.841844 0.528269
vt 0.750000 0.990000
vt 0.750000 0.510000
vt 0.658156 0.971731
vt 0.658156 0.528269
vt 0.580294 0.580294
vt 0.580294 0.919706
vt 0.528269 0.658156
vt 0.528269 0.841844
vt 0.510000 0.750000
s 0
usemtl gungray.001
f 71/1/1 72/2/1 73/3/1
f 102/4/2 103/5/2 104/6/2
s 1
f 1/7/3 2/8/4 3/9/5
f 1/7/3 3/9/5 4/10/6
f 4/10/6 3/9/5 5/11/7
f 4/10/6 5/11/7 6/12/8
f 6/12/8 5/11/7 7/13/9
f 6/12/8 7/13/9 8/14/10
f 8/14/10 7/13/9 9/15/11
f 8/14/10 9/15/11 10/16/12
f 10/16/12 9/15/11 11/17/13
f 10/16/12 11/17/13 12/18/14
f 12/18/14 11/17/13 13/19/15
f 12/18/14 13/19/15 14/20/16
f 14/20/16 13/19/15 15/21/17
f 14/20/16 15/21/17 16/22/18
f 16/22/18 15/21/17 17/23/19
f 16/22/18 17/23/19 18/24/20
f 18/24/20 17/23/19 19/25/21
f 18/24/20 19/25/21 20/26/22
f 20/26/22 19/25/21 21/27/23
f 20/26/22 21/27/23 22/5/24
f 22/5/24 21/27/23 23/28/25
f 22/5/24 23/28/25 24/29/26
f 24/29/26 23/28/25 25/30/27
f 24/29/26 25/30/27 26/31/28
f 26/31/28 25/30/27 27/32/29
f 26/31/28 27/32/29 28/33/30
f 28/33/30 27/32/29 29/34/31
f 28/33/30 29/34/31 30/1/32
f 30/1/32 29/34/31 47/35/33
f 30/1/32 47/35/33 48/36/34
f 48/36/34 47/35/33 49/37/35
f 48/36/34 49/37/35 50/38/36
s 0
f 67/39/37 68/40/37 69/41/37
f 67/39/38 69/41/38 70/42/38
f 74/43/39 75/44/39 76/45/39
f 74/43/39 76/45/39 77/46/39
s 1
f 78/46/40 79/45/41 80/47/41
f 78/46/40 80/47/41 81/48/42
f 82/49/43 83/50/44 84/20/45
f 82/49/43 84/20/45 85/5/46
f 86/51/47 87/43/48 88/46/49
f 86/51/47 88/46/49 89/52/48
f 90/53/50 91/54/51 92/55/52
f 90/53/50 92/55/52 93/56/53
f 94/44/54 95/57/55 96/58/56
f 94/44/54 96/58/56 97/45/57
f 98/59/58 99/60/59 100/61/60
f 98/59/58 100/61/60 101/62/59
f 105/63/61 106/64/62 107/19/63
f 105/63/61 107/19/63 108/27/63
f 90/53/50 93/56/53 109/65/64
f 90/53/50 109/65/64 110/66/65
f 110/66/65 109/65/64 96/58/56
f 110/66/65 96/58/56 95/57/55
f 111/51/66 112/52/67 113/67/68
f 111/51/66 113/67/68 114/68/66
f 115/68/69 116/67/69 117/60/69
f 115/68/69 117/60/69 118/59/69
f 119/64/70 120/63/71 121/69/71
f 119/64/70 121/69/71 122/70/72
f 123/70/73 124/69/74 125/48/74
f 123/70/73 125/48/74 126/47/73
f 83/50/44 82/49/43 127/71/75
f 83/50/44 127/71/75 128/72/76
f 128/72/76 127/71/75 129/73/77
f 128/72/76 129/73/77 130/74/78
f 131/4/79 132/6/80 133/75/81
f 131/4/79 133/75/81 134/76/82
s 0
f 135/76/83 136/75/83 137/3/83
f 135/76/84 137/3/84 138/2/84
s 1
f 139/42/85 140/41/86 130/74/78
f 139/42/85 130/74/78 129/73/77
f 141/75/87 142/68/87 143/59/87
f 141/75/87 143/59/87 144/3/87
f 145/77/88 146/51/89 147/68/89
f 145/77/88 147/68/89 148/75/89
f 149/78/90 110/66/65 95/57/55
f 149/78/90 95/57/55 150/79/44
f 151/80/91 90/53/50 110/66/65
f 151/80/91 110/66/65 149/78/90
f 152/3/92 153/59/92 154/62/92
f 152/3/92 154/62/92 155/1/92
f 84/20/93 150/79/44 95/57/55
f 84/20/93 95/57/55 94/44/54
f 151/80/91 156/12/94 91/54/51
f 151/80/91 91/54/51 90/53/50
f 157/77/95 158/5/96 159/43/96
f 157/77/95 159/43/96 160/51/96
s 0
f 161/5/97 162/20/97 163/44/97
f 161/5/97 163/44/97 164/43/97
f 165/81/98 166/82/98 167/40/98
f 165/81/98 167/40/98 168/39/98
s 1
f 45/83/99 43/84/100 44/85/101
f 43/84/100 45/83/99 46/86/102
f 43/84/100 46/86/102 42/87/103
f 42/87/103 46/86/102 31/88/104
f 42/87/103 31/88/104 41/89/17
f 41/89/17 31/88/104 40/90/105
f 40/90/105 31/88/104 32/91/35
f 40/90/105 32/91/35 39/92/106
f 39/92/106 32/91/35 33/93/107
f 39/92/106 33/93/107 34/94/108
f 39/92/106 34/94/108 38/95/109
f 38/95/109 34/94/108 35/96/110
f 38/95/109 35/96/110 37/97/111
f 37/97/111 35/96/110 36/98/112
f 56/99/113 54/100/114 55/101/115
f 54/100/114 56/99/113 57/102/116
f 54/100/114 57/102/116 53/103/117
f 53/103/117 57/102/116 58/104/118
f 53/103/117 58/104/118 52/105/119
f 52/105/119 58/104/118 59/106/120
f 52/105/119 59/106/120 51/107/121
f 51/107/121 59/106/120 60/108/122
f 51/107/121 60/108/122 66/109/123
f 66/109/123 60/108/122 65/110/124
f 65/110/124 60/108/122 61/111/24
f 65/110/124 61/111/24 64/112/125
f 64/112/125 61/111/24 62/113/126
f 64/112/125 62/113/126 63/114/127
