# Blender 4.4.1
# www.blender.org
mtllib Object_128.mtl
o Object_128.001
v -0.502709 -0.168935 11.165014
v -0.499415 -0.172099 11.176574
v -0.492950 -0.159700 11.178125
v -0.496245 -0.156536 11.166565
v -0.470878 -0.168448 11.156076
v -0.496245 -0.156536 11.166565
v -0.492950 -0.159700 11.178125
v -0.467584 -0.171612 11.167636
v -0.467584 -0.171612 11.167636
v -0.492950 -0.159700 11.178125
v -0.499415 -0.172099 11.176574
v -0.474048 -0.184012 11.166085
v -0.474048 -0.184012 11.166085
v -0.477342 -0.180848 11.154525
v -0.470878 -0.168448 11.156076
v -0.467584 -0.171612 11.167636
v -0.477342 -0.180848 11.154525
v -0.502709 -0.168935 11.165014
v -0.496245 -0.156536 11.166565
v -0.470878 -0.168448 11.156076
v -0.474048 -0.184012 11.166085
v -0.499415 -0.172099 11.176574
v -0.502709 -0.168935 11.165014
v -0.477342 -0.180848 11.154525
vn -0.8477 0.3981 0.3505
vn 0.4595 0.8813 0.1103
vn 0.2650 -0.2546 0.9300
vn 0.2650 -0.2544 0.9301
vn 0.8477 -0.3982 -0.3505
vn 0.8477 -0.3981 -0.3506
vn -0.2651 0.2546 -0.9300
vn -0.2650 0.2546 -0.9300
vn -0.4595 -0.8813 -0.1103
vn -0.4594 -0.8814 -0.1102
vt 0.625000 0.500000
vt 0.875000 0.500000
vt 0.875000 0.250000
vt 0.625000 0.250000
vt 0.375000 0.250000
vt 0.625000 0.000000
vt 0.375000 0.000000
vt 0.375000 1.000000
vt 0.625000 1.000000
vt 0.625000 0.750000
vt 0.375000 0.750000
vt 0.125000 0.500000
vt 0.375000 0.500000
vt 0.125000 0.250000
s 0
usemtl baseMaterial.001
f 1/1/1 2/2/1 3/3/1
f 1/1/1 3/3/1 4/4/1
f 5/5/2 6/4/2 7/6/2
f 5/5/2 7/6/2 8/7/2
f 9/8/3 10/9/3 11/10/3
f 9/8/4 11/10/4 12/11/4
f 13/12/5 14/13/5 15/5/5
f 13/12/6 15/5/6 16/14/6
f 17/13/7 18/1/7 19/4/7
f 17/13/8 19/4/8 20/5/8
f 21/11/9 22/10/9 23/1/9
f 21/11/10 23/1/10 24/13/10
