# Blender 4.4.1
# www.blender.org
mtllib Object_138.mtl
o Object_138.001
v -0.506741 -0.211877 11.133303
v -0.516800 -0.206910 11.139906
v -0.511741 -0.198547 11.141323
v -0.501682 -0.203514 11.134721
v -0.490677 -0.214402 11.159677
v -0.501682 -0.203514 11.134721
v -0.511741 -0.198547 11.141323
v -0.500737 -0.209435 11.166280
v -0.500737 -0.209435 11.166280
v -0.511741 -0.198547 11.141323
v -0.516800 -0.206910 11.139906
v -0.505796 -0.217798 11.164862
v -0.505796 -0.217798 11.164862
v -0.495736 -0.222764 11.158259
v -0.490677 -0.214402 11.159677
v -0.500737 -0.209435 11.166280
v -0.495736 -0.222764 11.158259
v -0.506741 -0.211877 11.133303
v -0.501682 -0.203514 11.134721
v -0.490677 -0.214402 11.159677
v -0.505796 -0.217798 11.164862
v -0.516800 -0.206910 11.139906
v -0.506741 -0.211877 11.133303
v -0.495736 -0.222764 11.158259
vn -0.3748 0.3708 -0.8498
vn -0.3747 0.3707 -0.8498
vn 0.5123 0.8467 0.1435
vn 0.5123 0.8468 0.1435
vn -0.7727 0.3816 0.5072
vn -0.7728 0.3815 0.5072
vn 0.3747 -0.3710 0.8497
vn 0.3747 -0.3708 0.8498
vn 0.7728 -0.3815 -0.5072
vn -0.5123 -0.8468 -0.1435
vn -0.5123 -0.8467 -0.1435
vt 0.625000 0.500000
vt 0.875000 0.500000
vt 0.875000 0.250000
vt 0.625000 0.250000
vt 0.375000 0.250000
vt 0.625000 0.000000
vt 0.375000 0.000000
vt 0.375000 1.000000
vt 0.625000 1.000000
vt 0.625000 0.750000
vt 0.375000 0.750000
vt 0.125000 0.500000
vt 0.375000 0.500000
vt 0.125000 0.250000
s 0
usemtl baseMaterial.001
f 1/1/1 2/2/1 3/3/1
f 1/1/2 3/3/2 4/4/2
f 5/5/3 6/4/3 7/6/3
f 5/5/4 7/6/4 8/7/4
f 9/8/5 10/9/5 11/10/5
f 9/8/6 11/10/6 12/11/6
f 13/12/7 14/13/7 15/5/7
f 13/12/8 15/5/8 16/14/8
f 17/13/9 18/1/9 19/4/9
f 17/13/9 19/4/9 20/5/9
f 21/11/10 22/10/10 23/1/10
f 21/11/11 23/1/11 24/13/11
