# Blender 4.4.1
# www.blender.org
mtllib Object_136.mtl
o Object_136.001
v -0.495808 -0.198107 11.133793
v -0.506907 -0.193218 11.141142
v -0.502669 -0.184833 11.141963
v -0.491571 -0.189722 11.134614
v -0.479473 -0.198176 11.158508
v -0.491571 -0.189722 11.134614
v -0.502669 -0.184833 11.141963
v -0.490572 -0.193286 11.165856
v -0.490572 -0.193286 11.165856
v -0.502669 -0.184833 11.141963
v -0.506907 -0.193218 11.141142
v -0.494809 -0.201671 11.165036
v -0.494809 -0.201671 11.165036
v -0.483711 -0.206561 11.157687
v -0.479473 -0.198176 11.158508
v -0.490572 -0.193286 11.165856
v -0.483711 -0.206561 11.157687
v -0.495808 -0.198107 11.133793
v -0.491571 -0.189722 11.134614
v -0.479473 -0.198176 11.158508
v -0.494809 -0.201671 11.165036
v -0.506907 -0.193218 11.141142
v -0.495808 -0.198107 11.133793
v -0.483711 -0.206561 11.157687
vn -0.4307 0.3011 -0.8508
vn 0.4493 0.8891 0.0871
vn 0.4494 0.8891 0.0871
vn -0.7826 0.3448 0.5182
vn -0.7827 0.3448 0.5183
vn 0.4308 -0.3009 0.8508
vn 0.4308 -0.3008 0.8509
vn 0.7827 -0.3448 -0.5182
vn 0.7826 -0.3449 -0.5182
vn -0.4493 -0.8891 -0.0871
vn -0.4494 -0.8891 -0.0871
vt 0.625000 0.500000
vt 0.875000 0.500000
vt 0.875000 0.250000
vt 0.625000 0.250000
vt 0.375000 0.250000
vt 0.625000 0.000000
vt 0.375000 0.000000
vt 0.375000 1.000000
vt 0.625000 1.000000
vt 0.625000 0.750000
vt 0.375000 0.750000
vt 0.125000 0.500000
vt 0.375000 0.500000
vt 0.125000 0.250000
s 0
usemtl baseMaterial.001
f 1/1/1 2/2/1 3/3/1
f 1/1/1 3/3/1 4/4/1
f 5/5/2 6/4/2 7/6/2
f 5/5/3 7/6/3 8/7/3
f 9/8/4 10/9/4 11/10/4
f 9/8/5 11/10/5 12/11/5
f 13/12/6 14/13/6 15/5/6
f 13/12/7 15/5/7 16/14/7
f 17/13/8 18/1/8 19/4/8
f 17/13/9 19/4/9 20/5/9
f 21/11/10 22/10/10 23/1/10
f 21/11/11 23/1/11 24/13/11
