# Blender 4.4.1
# www.blender.org
mtllib Object_43.mtl
o Object_43.001
v -0.220997 -0.456238 11.167991
v -0.240218 -0.458643 11.174390
v -0.241222 -0.446392 11.175979
v -0.222001 -0.443987 11.169580
v -0.240607 -0.435525 11.181909
v -0.221386 -0.433121 11.175509
v -0.238467 -0.427698 11.191278
v -0.219246 -0.425294 11.184878
v -0.235127 -0.424102 11.202659
v -0.215906 -0.421697 11.196259
v -0.231097 -0.425284 11.214320
v -0.211876 -0.422879 11.207920
v -0.226990 -0.431064 11.224485
v -0.207769 -0.428659 11.218086
v -0.223430 -0.440562 11.231607
v -0.204209 -0.438158 11.225208
v -0.220961 -0.452333 11.234603
v -0.201739 -0.449929 11.228203
v -0.219957 -0.464584 11.233014
v -0.200736 -0.462180 11.226615
v -0.220572 -0.475450 11.227084
v -0.201351 -0.473046 11.220685
v -0.222712 -0.483278 11.217715
v -0.203491 -0.480873 11.211316
v -0.226051 -0.486874 11.206334
v -0.206830 -0.484469 11.199934
v -0.230081 -0.485692 11.194673
v -0.210860 -0.483288 11.188273
v -0.234189 -0.479912 11.184507
v -0.214968 -0.477507 11.178108
v -0.241222 -0.446392 11.175979
v -0.240218 -0.458643 11.174390
v -0.237748 -0.470414 11.177384
v -0.234189 -0.479912 11.184507
v -0.230081 -0.485692 11.194673
v -0.226051 -0.486874 11.206334
v -0.222712 -0.483278 11.217715
v -0.220572 -0.475450 11.227084
v -0.219957 -0.464584 11.233014
v -0.220961 -0.452333 11.234603
v -0.223430 -0.440562 11.231607
v -0.226990 -0.431064 11.224485
v -0.231097 -0.425284 11.214320
v -0.235127 -0.424102 11.202659
v -0.238467 -0.427698 11.191278
v -0.240607 -0.435525 11.181909
v -0.237748 -0.470414 11.177384
v -0.218527 -0.468009 11.170985
v -0.240218 -0.458643 11.174390
v -0.220997 -0.456238 11.167991
v -0.220997 -0.456238 11.167991
v -0.222001 -0.443987 11.169580
v -0.221386 -0.433121 11.175509
v -0.219246 -0.425294 11.184878
v -0.215906 -0.421697 11.196259
v -0.211876 -0.422879 11.207920
v -0.207769 -0.428659 11.218086
v -0.204209 -0.438158 11.225208
v -0.201739 -0.449929 11.228203
v -0.200736 -0.462180 11.226615
v -0.201351 -0.473046 11.220685
v -0.203491 -0.480873 11.211316
v -0.206830 -0.484469 11.199934
v -0.210860 -0.483288 11.188273
v -0.214968 -0.477507 11.178108
v -0.218527 -0.468009 11.170985
v -0.314089 -0.449674 11.236042
v -0.321476 -0.410999 11.231223
v -0.353729 -0.470712 11.106485
v -0.352695 -0.478272 11.107305
v -0.352695 -0.478272 11.107305
v -0.332635 -0.462579 11.042180
v -0.318385 -0.455986 11.089229
v -0.259366 -0.464288 11.076478
v -0.260401 -0.456728 11.075659
v -0.228148 -0.397014 11.200397
v -0.220761 -0.435690 11.205215
v -0.220761 -0.435690 11.205215
v -0.228148 -0.397014 11.200397
v -0.272968 -0.369869 11.209693
v -0.259376 -0.441476 11.217971
v -0.316286 -0.460130 11.036780
v -0.317759 -0.451965 11.035813
v -0.260401 -0.456728 11.075659
v -0.259366 -0.464288 11.076478
v -0.302153 -0.453554 11.083867
v -0.259366 -0.464288 11.076478
v -0.220761 -0.435690 11.205215
v -0.259376 -0.441476 11.217971
v -0.334232 -0.454434 11.041254
v -0.353729 -0.470712 11.106485
v -0.321476 -0.410999 11.231223
v -0.288839 -0.372247 11.214935
v -0.260401 -0.456728 11.075659
v -0.317759 -0.451965 11.035813
v -0.272968 -0.369869 11.209693
v -0.228148 -0.397014 11.200397
v -0.318385 -0.455986 11.089229
v -0.275473 -0.443888 11.223288
v -0.314089 -0.449674 11.236042
v -0.352695 -0.478272 11.107305
v -0.316286 -0.460130 11.036780
v -0.259366 -0.464288 11.076478
v -0.302153 -0.453554 11.083867
v -0.275473 -0.443888 11.223288
v -0.288839 -0.372247 11.214935
v -0.321476 -0.410999 11.231223
v -0.314089 -0.449674 11.236042
v -0.281110 -0.369888 11.212220
v -0.327149 -0.453737 11.034796
v -0.302153 -0.453554 11.083867
v -0.259376 -0.441476 11.217971
v -0.267425 -0.442682 11.220629
v -0.310331 -0.454941 11.086282
v -0.310331 -0.454941 11.086282
v -0.267425 -0.442682 11.220629
v -0.275473 -0.443888 11.223288
v -0.318385 -0.455986 11.089229
v -0.288839 -0.372247 11.214935
v -0.275473 -0.443888 11.223288
v -0.267425 -0.442682 11.220629
v -0.281110 -0.369888 11.212220
v -0.281110 -0.369888 11.212220
v -0.267425 -0.442682 11.220629
v -0.259376 -0.441476 11.217971
v -0.272968 -0.369869 11.209693
v -0.317759 -0.451965 11.035813
v -0.316286 -0.460130 11.036780
v -0.325606 -0.461888 11.035770
v -0.327149 -0.453737 11.034796
v -0.327149 -0.453737 11.034796
v -0.325606 -0.461888 11.035770
v -0.332635 -0.462579 11.042180
v -0.334232 -0.454434 11.041254
v -0.316286 -0.460130 11.036780
v -0.302153 -0.453554 11.083867
v -0.310331 -0.454941 11.086282
v -0.325606 -0.461888 11.035770
v -0.325606 -0.461888 11.035770
v -0.310331 -0.454941 11.086282
v -0.318385 -0.455986 11.089229
v -0.332635 -0.462579 11.042180
v -0.352695 -0.478272 11.107305
v -0.353729 -0.470712 11.106485
v -0.334232 -0.454434 11.041254
v -0.332635 -0.462579 11.042180
vn 0.5288 -0.8477 -0.0414
vn -0.2066 -0.9586 0.1959
vn 0.4011 0.0044 -0.9160
vn -0.8534 -0.1525 -0.4984
vn -0.8770 0.1352 -0.4610
vn 0.3775 0.2921 -0.8787
vn -0.8626 0.3904 -0.3218
vn 0.3920 0.5473 -0.7395
vn -0.8123 0.5743 -0.1017
vn 0.4422 0.7313 -0.5193
vn -0.7339 0.6588 0.1656
vn 0.5207 0.8157 -0.2520
vn -0.6392 0.6310 0.4396
vn 0.6154 0.7879 0.0220
vn -0.5427 0.4952 0.6784
vn 0.7118 0.6522 0.2607
vn -0.4591 0.2722 0.8457
vn 0.7955 0.4289 0.4280
vn -0.4011 -0.0044 0.9160
vn 0.8535 0.1524 0.4984
vn -0.3775 -0.2921 0.8787
vn 0.8770 -0.1350 0.4611
vn -0.3920 -0.5473 0.7394
vn 0.8626 -0.3905 0.3217
vn -0.4422 -0.7312 0.5193
vn 0.8123 -0.5742 0.1017
vn -0.5206 -0.8157 0.2521
vn 0.7338 -0.6588 -0.1658
vn -0.6154 -0.7879 -0.0220
vn 0.6392 -0.6310 -0.4397
vn -0.7118 -0.6522 -0.2606
vn 0.5427 -0.4952 -0.6784
vn -0.7955 -0.4290 -0.4280
vn 0.4591 -0.2720 -0.8457
vn -0.8534 -0.1526 -0.4983
vn 0.4011 0.0043 -0.9160
vn -0.9414 -0.1337 0.3097
vn -0.9415 -0.1338 0.3094
vn 0.9414 0.1337 -0.3097
vn 0.9414 0.1336 -0.3097
vn 0.2917 0.1673 0.9418
vn 0.2917 0.1674 0.9417
vn 0.5712 -0.0020 -0.8208
vn 0.5712 -0.0019 -0.8208
vn 0.5712 -0.0023 -0.8208
vn -0.0206 -0.9870 0.1591
vn -0.7893 0.3629 -0.4953
vn -0.9878 0.1493 -0.0439
vn -0.5885 0.3807 0.7133
vn -0.2842 0.7937 0.5379
vn 0.6994 0.3900 -0.5990
vn 0.2221 0.5069 -0.8329
vn 0.3220 0.8845 0.3377
vn 0.7701 0.5796 0.2667
vn 0.3698 -0.9286 0.0291
vn 0.3697 -0.9287 0.0291
vn 0.2816 0.1658 0.9451
vn 0.2816 0.1659 0.9451
vn 0.0153 0.8923 0.4511
vn -0.3409 0.3906 -0.8551
vn 0.1685 -0.9851 0.0355
vn 0.1523 -0.9875 0.0409
vn 0.2849 0.1629 0.9446
vn 0.2849 0.1630 0.9446
vn 0.2897 0.1637 0.9430
vn 0.2896 0.1637 0.9431
vn 0.1249 -0.0947 -0.9877
vn 0.1248 -0.0943 -0.9877
vn -0.6474 -0.2101 -0.7326
vn -0.6474 -0.2102 -0.7326
vn 0.1826 -0.9799 0.0808
vn 0.1664 -0.9823 0.0860
vn 0.1665 -0.9823 0.0860
vn -0.9252 -0.1915 -0.3277
vn -0.9252 -0.1914 -0.3277
vn -0.8122 0.5744 -0.1017
vn -0.6391 0.6311 0.4395
vn -0.7339 0.6587 0.1657
vn -0.8625 0.3905 -0.3218
vn -0.5426 0.4953 0.6784
vn -0.8770 0.1352 -0.4611
vn -0.4590 0.2722 0.8457
vn -0.4010 -0.0044 0.9161
vn -0.3774 -0.2921 0.8788
vn -0.7954 -0.4291 -0.4281
vn -0.7118 -0.6522 -0.2608
vn -0.3919 -0.5475 0.7394
vn -0.6153 -0.7880 -0.0219
vn -0.4422 -0.7313 0.5193
vn -0.5207 -0.8157 0.2520
vn 0.6153 0.7880 0.0219
vn 0.4421 0.7313 -0.5193
vn 0.5207 0.8157 -0.2521
vn 0.3919 0.5474 -0.7395
vn 0.7954 0.4290 0.4281
vn 0.3774 0.2921 -0.8788
vn 0.8534 0.1526 0.4984
vn 0.4010 0.0043 -0.9161
vn 0.8770 -0.1351 0.4611
vn 0.4590 -0.2721 -0.8457
vn 0.5426 -0.4954 -0.6784
vn 0.8626 -0.3904 0.3218
vn 0.6391 -0.6311 -0.4396
vn 0.8123 -0.5744 0.1017
vn 0.7338 -0.6588 -0.1656
vt 0.125000 0.500000
vt 0.228104 0.500000
vt 0.228259 0.448463
vt 0.271896 0.500000
vt 0.375000 0.500000
vt 0.271741 0.448463
vt 1.000000 0.500000
vt 1.000000 0.000000
vt 0.937500 0.000000
vt 0.937500 0.500000
vt 0.875000 0.000000
vt 0.875000 0.500000
vt 0.812500 0.000000
vt 0.812500 0.500000
vt 0.750000 0.000000
vt 0.750000 0.500000
vt 0.687500 0.000000
vt 0.687500 0.500000
vt 0.625000 0.000000
vt 0.625000 0.500000
vt 0.562500 0.000000
vt 0.562500 0.500000
vt 0.500000 0.000000
vt 0.500000 0.500000
vt 0.437500 0.000000
vt 0.437500 0.500000
vt 0.375000 0.000000
vt 0.312500 0.000000
vt 0.312500 0.500000
vt 0.250000 0.000000
vt 0.250000 0.500000
vt 0.187500 0.000000
vt 0.187500 0.500000
vt 0.125000 0.000000
vt 0.062500 0.000000
vt 0.062500 0.500000
vt 0.000000 0.000000
vt 0.000000 0.500000
vt 0.375000 1.000000
vt 0.625000 1.000000
vt 0.625000 0.750000
vt 0.375000 0.750000
vt 0.625000 0.250000
vt 0.375000 0.250000
vt 0.625000 0.146257
vt 0.375000 0.146560
vt 0.375000 0.603104
vt 0.625000 0.602936
vt 0.271741 0.448463
vt 0.271560 0.250000
vt 0.772064 0.500000
vt 0.875000 0.250000
vt 0.771257 0.250000
vt 0.727936 0.500000
vt 0.728743 0.250000
vt 0.228440 0.250000
vt 0.125000 0.250000
vt 0.375000 0.103440
vt 0.625000 0.103743
vt 0.750000 0.253188
vt 0.750000 0.495144
vt 0.250000 0.250000
vt 0.250000 0.437454
vt 0.375000 0.125000
vt 0.617557 0.125000
vt 0.375000 0.625000
vt 0.618863 0.625000
vt 0.375000 0.646896
vt 0.625000 0.647064
vt 0.250000 0.493280
vt 0.471731 0.658156
vt 0.471731 0.841844
vt 0.490000 0.750000
vt 0.419706 0.580294
vt 0.419706 0.919706
vt 0.341844 0.528269
vt 0.341844 0.971731
vt 0.250000 0.990000
vt 0.250000 0.510000
vt 0.158156 0.971731
vt 0.158156 0.528269
vt 0.080294 0.580294
vt 0.080294 0.919706
vt 0.028269 0.658156
vt 0.028269 0.841844
vt 0.010000 0.750000
vt 0.971731 0.841844
vt 0.971731 0.658156
vt 0.990000 0.750000
vt 0.919706 0.919706
vt 0.919706 0.580294
vt 0.841844 0.971731
vt 0.841844 0.528269
vt 0.750000 0.990000
vt 0.750000 0.510000
vt 0.658156 0.971731
vt 0.658156 0.528269
vt 0.580294 0.580294
vt 0.580294 0.919706
vt 0.528269 0.658156
vt 0.528269 0.841844
vt 0.510000 0.750000
s 0
usemtl gungray.001
f 71/1/1 72/2/1 73/3/1
f 102/4/2 103/5/2 104/6/2
s 1
f 1/7/3 2/8/4 3/9/5
f 1/7/3 3/9/5 4/10/6
f 4/10/6 3/9/5 5/11/7
f 4/10/6 5/11/7 6/12/8
f 6/12/8 5/11/7 7/13/9
f 6/12/8 7/13/9 8/14/10
f 8/14/10 7/13/9 9/15/11
f 8/14/10 9/15/11 10/16/12
f 10/16/12 9/15/11 11/17/13
f 10/16/12 11/17/13 12/18/14
f 12/18/14 11/17/13 13/19/15
f 12/18/14 13/19/15 14/20/16
f 14/20/16 13/19/15 15/21/17
f 14/20/16 15/21/17 16/22/18
f 16/22/18 15/21/17 17/23/19
f 16/22/18 17/23/19 18/24/20
f 18/24/20 17/23/19 19/25/21
f 18/24/20 19/25/21 20/26/22
f 20/26/22 19/25/21 21/27/23
f 20/26/22 21/27/23 22/5/24
f 22/5/24 21/27/23 23/28/25
f 22/5/24 23/28/25 24/29/26
f 24/29/26 23/28/25 25/30/27
f 24/29/26 25/30/27 26/31/28
f 26/31/28 25/30/27 27/32/29
f 26/31/28 27/32/29 28/33/30
f 28/33/30 27/32/29 29/34/31
f 28/33/30 29/34/31 30/1/32
f 30/1/32 29/34/31 47/35/33
f 30/1/32 47/35/33 48/36/34
f 48/36/34 47/35/33 49/37/35
f 48/36/34 49/37/35 50/38/36
f 67/39/37 68/40/37 69/41/38
f 67/39/37 69/41/38 70/42/37
f 74/5/39 75/20/40 76/43/39
f 74/5/39 76/43/39 77/44/39
f 78/44/41 79/43/42 80/45/41
f 78/44/41 80/45/41 81/46/41
f 82/47/43 83/48/44 84/20/45
f 82/47/43 84/20/45 85/5/45
f 86/49/46 87/5/46 88/44/46
f 86/49/46 88/44/46 89/50/46
f 90/51/47 91/12/48 92/52/49
f 90/51/47 92/52/49 93/53/50
f 94/20/51 95/54/52 96/55/53
f 94/20/51 96/55/53 97/43/54
f 98/3/55 99/56/56 100/57/56
f 98/3/55 100/57/56 101/1/55
f 105/58/57 106/59/57 107/19/58
f 105/58/57 107/19/58 108/27/57
f 90/51/47 93/53/50 109/60/59
f 90/51/47 109/60/59 110/61/60
f 110/61/60 109/60/59 96/55/53
f 110/61/60 96/55/53 95/54/52
f 111/49/61 112/50/61 113/62/61
f 111/49/61 113/62/61 114/63/61
f 115/63/62 116/62/62 117/56/62
f 115/63/62 117/56/62 118/3/62
f 119/59/63 120/58/64 121/64/64
f 119/59/63 121/64/64 122/65/63
f 123/65/65 124/64/66 125/46/66
f 123/65/65 125/46/66 126/45/65
s 0
f 127/48/67 128/47/67 129/66/67
f 127/48/68 129/66/68 130/67/68
f 131/67/69 132/66/69 133/68/69
f 131/67/70 133/68/70 134/69/70
s 1
f 135/4/71 136/6/71 137/63/71
f 135/4/71 137/63/71 138/70/71
f 139/70/72 140/63/73 141/3/73
f 139/70/72 141/3/73 142/2/72
f 143/42/74 144/41/74 145/69/75
f 143/42/74 145/69/75 146/68/75
f 45/71/76 43/72/77 44/73/78
f 43/72/77 45/71/76 46/74/79
f 43/72/77 46/74/79 42/75/80
f 42/75/80 46/74/79 31/76/81
f 42/75/80 31/76/81 41/77/82
f 41/77/82 31/76/81 40/78/83
f 40/78/83 31/76/81 32/79/4
f 40/78/83 32/79/4 39/80/84
f 39/80/84 32/79/4 33/81/85
f 39/80/84 33/81/85 34/82/86
f 39/80/84 34/82/86 38/83/87
f 38/83/87 34/82/86 35/84/88
f 38/83/87 35/84/88 37/85/89
f 37/85/89 35/84/88 36/86/90
f 56/87/91 54/88/92 55/89/93
f 54/88/92 56/87/91 57/90/16
f 54/88/92 57/90/16 53/91/94
f 53/91/94 57/90/16 58/92/95
f 53/91/94 58/92/95 52/93/96
f 52/93/96 58/92/95 59/94/97
f 52/93/96 59/94/97 51/95/98
f 51/95/98 59/94/97 60/96/99
f 51/95/98 60/96/99 66/97/100
f 66/97/100 60/96/99 65/98/101
f 65/98/101 60/96/99 61/99/102
f 65/98/101 61/99/102 64/100/103
f 64/100/103 61/99/102 62/101/104
f 64/100/103 62/101/104 63/102/105
