# Blender 4.4.1
# www.blender.org
mtllib Object_156.mtl
o Object_156.001
v -0.495999 -0.221599 11.167518
v -0.501459 -0.216611 11.157577
v -0.498635 -0.211942 11.158367
v -0.493175 -0.216930 11.168309
v -0.508417 -0.209739 11.180288
v -0.493175 -0.216930 11.168309
v -0.498635 -0.211942 11.158367
v -0.513877 -0.204751 11.170346
v -0.513877 -0.204751 11.170346
v -0.498635 -0.211942 11.158367
v -0.501459 -0.216611 11.157577
v -0.516701 -0.209420 11.169555
v -0.516701 -0.209420 11.169555
v -0.511241 -0.214408 11.179497
v -0.514212 -0.212481 11.178734
v -0.517295 -0.209665 11.173120
v -0.511241 -0.214408 11.179497
v -0.495999 -0.221599 11.167518
v -0.493175 -0.216930 11.168309
v -0.508417 -0.209739 11.180288
v -0.501459 -0.216611 11.157577
v -0.495999 -0.221599 11.167518
v -0.517295 -0.209665 11.173120
v -0.514212 -0.212481 11.178734
v -0.511387 -0.207813 11.179525
v -0.514471 -0.204996 11.173911
v -0.514471 -0.204996 11.173911
v -0.511387 -0.207813 11.179525
v -0.513877 -0.204751 11.170346
v -0.516701 -0.209420 11.169555
v -0.517295 -0.209665 11.173120
v -0.514471 -0.204996 11.173911
v -0.511241 -0.214408 11.179497
v -0.508417 -0.209739 11.180288
v -0.511387 -0.207813 11.179525
v -0.514212 -0.212481 11.178734
vn 0.7371 -0.3477 -0.5794
vn 0.7371 -0.3480 -0.5793
vn 0.5123 0.8468 0.1435
vn 0.5122 0.8468 0.1435
vn -0.4407 0.4024 -0.8024
vn -0.4406 0.4028 -0.8023
vn -0.5123 -0.8468 -0.1435
vn -0.5126 -0.8465 -0.1436
vn 0.4407 -0.4024 0.8024
vn 0.4406 -0.4028 0.8023
vn -0.5123 -0.8467 -0.1435
vn -0.5122 -0.8468 -0.1435
vn -0.7373 0.3473 0.5795
vn -0.7371 0.3480 0.5793
vn 0.5125 0.8466 0.1436
vn 0.5120 0.8469 0.1435
vn -0.8431 0.5276 -0.1042
vn -0.8429 0.5278 -0.1042
vn -0.2547 -0.0097 0.9670
vn -0.2548 -0.0097 0.9670
vt 0.625000 0.500000
vt 0.875000 0.500000
vt 0.875000 0.250000
vt 0.625000 0.250000
vt 0.375000 0.250000
vt 0.625000 0.000000
vt 0.375000 0.000000
vt 0.375000 1.000000
vt 0.625000 1.000000
vt 0.625000 0.750000
vt 0.375000 0.750000
vt 0.375000 0.500000
vt 0.125000 0.500000
vt 0.125000 0.250000
s 0
usemtl baseMaterial.001
f 1/1/1 2/2/1 3/3/1
f 1/1/2 3/3/2 4/4/2
f 5/5/3 6/4/3 7/6/3
f 5/5/4 7/6/4 8/7/4
f 9/8/5 10/9/5 11/10/5
f 9/8/6 11/10/6 12/11/6
f 13/11/7 14/12/7 15/12/7
f 13/11/8 15/12/8 16/11/8
f 17/12/9 18/1/9 19/4/9
f 17/12/10 19/4/10 20/5/10
f 13/11/11 21/10/11 22/1/11
f 13/11/12 22/1/12 14/12/12
f 23/13/13 24/12/13 25/5/13
f 23/13/14 25/5/14 26/14/14
f 5/5/15 8/7/15 27/7/15
f 5/5/16 27/7/16 28/5/16
f 29/8/17 30/11/17 31/11/17
f 29/8/18 31/11/18 32/8/18
s 1
f 33/12/19 34/5/19 35/5/19
s 0
f 33/12/20 35/5/20 36/12/20
