# Blender 4.4.1
# www.blender.org
mtllib Object_181.mtl
o Object_181.001
v 0.567655 -0.141379 11.075930
v 0.572080 -0.136351 11.057600
v 0.575520 -0.140936 11.057173
v 0.571094 -0.145963 11.075503
v 0.580387 -0.143972 11.057516
v 0.575962 -0.148999 11.075846
v 0.585942 -0.144997 11.058576
v 0.581516 -0.150025 11.076905
v 0.591338 -0.143856 11.060191
v 0.586912 -0.148884 11.078521
v 0.595754 -0.140722 11.062117
v 0.591328 -0.145750 11.080447
v 0.598517 -0.136073 11.064059
v 0.594091 -0.141100 11.082389
v 0.599207 -0.130615 11.065722
v 0.594782 -0.135643 11.084053
v 0.597719 -0.125181 11.066854
v 0.593294 -0.130208 11.085184
v 0.594280 -0.120596 11.067281
v 0.589854 -0.125624 11.085611
v 0.589412 -0.117560 11.066938
v 0.584986 -0.122588 11.085268
v 0.583858 -0.116535 11.065879
v 0.579432 -0.121562 11.084208
v 0.578462 -0.117676 11.064263
v 0.574036 -0.122703 11.082593
v 0.574046 -0.120810 11.062337
v 0.569620 -0.125837 11.080667
v 0.571283 -0.125459 11.060395
v 0.566857 -0.130487 11.078725
v 0.620192 -0.131749 11.073591
v 0.614796 -0.132890 11.071976
v 0.615029 -0.130921 11.070939
v 0.619828 -0.129906 11.072376
v 0.570592 -0.130917 11.058731
v 0.566167 -0.135944 11.077062
v 0.572080 -0.136351 11.057600
v 0.567655 -0.141379 11.075930
v 0.567655 -0.141379 11.075930
v 0.571094 -0.145963 11.075503
v 0.575962 -0.148999 11.075846
v 0.581516 -0.150025 11.076905
v 0.586912 -0.148884 11.078521
v 0.591328 -0.145750 11.080447
v 0.594091 -0.141100 11.082389
v 0.594782 -0.135643 11.084053
v 0.593294 -0.130208 11.085184
v 0.589854 -0.125624 11.085611
v 0.584986 -0.122588 11.085268
v 0.579432 -0.121562 11.084208
v 0.574036 -0.122703 11.082593
v 0.569620 -0.125837 11.080667
v 0.566857 -0.130487 11.078725
v 0.566167 -0.135944 11.077062
v 0.596509 -0.129271 11.089330
v 0.600934 -0.124244 11.071000
v 0.604374 -0.128828 11.070573
v 0.599949 -0.133856 11.088903
v 0.609242 -0.131864 11.070915
v 0.604816 -0.136892 11.089246
v 0.610371 -0.137917 11.090305
v 0.615767 -0.136776 11.091921
v 0.624608 -0.128615 11.075517
v 0.620182 -0.133642 11.093846
v 0.627371 -0.123965 11.077459
v 0.622946 -0.128993 11.095789
v 0.628061 -0.118508 11.079123
v 0.623636 -0.123535 11.097453
v 0.626573 -0.113073 11.080254
v 0.622148 -0.118100 11.098584
v 0.623134 -0.108489 11.080681
v 0.618708 -0.113516 11.099010
v 0.618266 -0.105453 11.080338
v 0.613841 -0.110480 11.098668
v 0.612712 -0.104427 11.079279
v 0.608286 -0.109455 11.097609
v 0.607316 -0.105568 11.077662
v 0.602890 -0.110596 11.095993
v 0.602900 -0.108702 11.075737
v 0.598475 -0.113730 11.094067
v 0.600137 -0.113352 11.073794
v 0.595711 -0.118379 11.092125
v 0.589261 -0.118626 11.064977
v 0.584321 -0.117713 11.064034
v 0.599447 -0.118809 11.072131
v 0.595021 -0.123837 11.090461
v 0.600934 -0.124244 11.071000
v 0.596509 -0.129271 11.089330
v 0.596509 -0.129271 11.089330
v 0.599949 -0.133856 11.088903
v 0.604816 -0.136892 11.089246
v 0.610371 -0.137917 11.090305
v 0.615767 -0.136776 11.091921
v 0.620182 -0.133642 11.093846
v 0.622946 -0.128993 11.095789
v 0.623636 -0.123535 11.097453
v 0.622148 -0.118100 11.098584
v 0.618708 -0.113516 11.099010
v 0.613841 -0.110480 11.098668
v 0.608286 -0.109455 11.097609
v 0.602890 -0.110596 11.095993
v 0.598475 -0.113730 11.094067
v 0.595711 -0.118379 11.092125
v 0.595021 -0.123837 11.090461
v 0.576905 -0.139416 11.056292
v 0.573846 -0.135339 11.056671
v 0.572522 -0.130505 11.057677
v 0.573136 -0.125651 11.059157
v 0.575594 -0.121516 11.060884
v 0.579521 -0.118728 11.062597
v 0.584321 -0.117713 11.064034
v 0.589261 -0.118626 11.064977
v 0.593590 -0.121326 11.065282
v 0.596649 -0.125403 11.064902
v 0.597973 -0.130237 11.063896
v 0.597359 -0.135091 11.062416
v 0.594901 -0.139226 11.060689
v 0.590974 -0.142014 11.058976
v 0.586175 -0.143028 11.057539
v 0.581234 -0.142116 11.056596
v 0.605759 -0.127309 11.069692
v 0.602700 -0.123231 11.070071
v 0.601376 -0.118398 11.071077
v 0.601990 -0.113544 11.072557
v 0.604448 -0.109408 11.074285
v 0.608375 -0.106621 11.075997
v 0.613175 -0.105606 11.077435
v 0.618115 -0.106518 11.078377
v 0.622444 -0.109218 11.078682
v 0.625504 -0.113296 11.078302
v 0.626827 -0.118129 11.077296
v 0.626213 -0.122983 11.075816
v 0.623755 -0.127119 11.074089
v 0.619828 -0.129906 11.072376
v 0.615029 -0.130921 11.070939
v 0.610088 -0.130009 11.069996
v 0.608375 -0.106621 11.075997
v 0.604448 -0.109408 11.074285
v 0.597359 -0.135091 11.062416
v 0.597973 -0.130237 11.063896
v 0.572522 -0.130505 11.057677
v 0.573846 -0.135339 11.056671
v 0.625504 -0.113296 11.078302
v 0.622444 -0.109218 11.078682
v 0.581234 -0.142116 11.056596
v 0.586175 -0.143028 11.057539
v 0.579521 -0.118728 11.062597
v 0.623755 -0.127119 11.074089
v 0.601990 -0.113544 11.072557
v 0.602700 -0.123231 11.070071
v 0.605759 -0.127309 11.069692
v 0.596649 -0.125403 11.064902
v 0.618115 -0.106518 11.078377
v 0.590974 -0.142014 11.058976
v 0.575594 -0.121516 11.060884
v 0.626213 -0.122983 11.075816
v 0.601376 -0.118398 11.071077
v 0.593590 -0.121326 11.065282
v 0.610088 -0.130009 11.069996
v 0.613175 -0.105606 11.077435
v 0.594901 -0.139226 11.060689
v 0.573136 -0.125651 11.059157
v 0.626827 -0.118129 11.077296
v 0.573846 -0.135339 11.056671
v 0.576905 -0.139416 11.056292
v 0.602700 -0.123231 11.070071
vn -0.8004 -0.4544 0.3909
vn -0.7191 -0.2531 -0.6472
vn -0.5030 -0.5411 -0.6740
vn -0.6262 -0.6866 0.3693
vn -0.1974 -0.7317 -0.6524
vn -0.3794 -0.8406 0.3867
vn 0.1515 -0.7962 -0.5858
vn -0.0981 -0.8925 0.4403
vn 0.4906 -0.7242 -0.4846
vn 0.1751 -0.8347 0.5222
vn 0.7678 -0.5275 -0.3636
vn 0.3988 -0.6760 0.6197
vn 0.9414 -0.2355 -0.2415
vn 0.5389 -0.4403 0.7182
vn 0.9847 0.1072 -0.1371
vn 0.5738 -0.1639 0.8024
vn 0.8913 0.4487 -0.0659
vn 0.4985 0.1114 0.8597
vn 0.6753 0.7365 -0.0392
vn 0.3243 0.3436 0.8814
vn 0.3695 0.9272 -0.0607
vn 0.0775 0.4975 0.8640
vn 0.0206 0.9917 -0.1273
vn -0.2038 0.5494 0.8103
vn -0.3183 0.9200 -0.2287
vn -0.4771 0.4916 0.7285
vn -0.5957 0.7230 -0.3498
vn -0.7008 0.3329 0.6309
vn -0.7692 0.4311 -0.4716
vn -0.8408 0.0973 0.5325
vn 0.4904 -0.7245 -0.4844
vn 0.1516 -0.7961 -0.5859
vn 0.2360 -0.1582 -0.9588
vn 0.3851 -0.1269 -0.9141
vn -0.8125 0.0884 -0.5762
vn -0.8758 -0.1793 0.4482
vn -0.7191 -0.2530 -0.6472
vn -0.8004 -0.4545 0.3909
vn -0.5031 -0.5408 -0.6741
vn -0.6261 -0.6868 0.3693
vn -0.1973 -0.7316 -0.6526
vn -0.3794 -0.8405 0.3867
vn -0.0981 -0.8924 0.4404
vn 0.1752 -0.8346 0.5222
vn 0.9414 -0.2356 -0.2415
vn 0.5388 -0.4405 0.7181
vn 0.9847 0.1074 -0.1371
vn 0.8913 0.4486 -0.0661
vn 0.4984 0.1116 0.8598
vn 0.6752 0.7366 -0.0392
vn 0.3242 0.3437 0.8814
vn 0.3694 0.9273 -0.0606
vn 0.0776 0.4975 0.8640
vn -0.3182 0.9201 -0.2285
vn -0.5957 0.7231 -0.3497
vn -0.7009 0.3328 0.6309
vn -0.7691 0.4311 -0.4718
vn -0.8408 0.0975 0.5326
vn 0.3319 0.6003 -0.7276
vn 0.1782 0.6287 -0.7569
vn -0.8125 0.0883 -0.5762
vn -0.8758 -0.1791 0.4482
vn 0.0292 0.5976 -0.8012
vn -0.0929 0.5104 -0.8549
vn 0.5836 0.0884 -0.8072
vn 0.6026 0.2393 -0.7613
vn -0.1884 0.2313 -0.9545
vn -0.1473 0.0809 -0.9858
vn 0.5615 0.3896 -0.7300
vn 0.4664 0.5164 -0.7182
vn 0.0822 -0.1299 -0.9881
vn 0.2360 -0.1583 -0.9588
vn 0.0291 0.5971 -0.8016
vn 0.5071 -0.0398 -0.8610
vn -0.1691 0.3820 -0.9086
vn -0.1473 0.0810 -0.9858
vn -0.0521 -0.0455 -0.9976
vn 0.5616 0.3897 -0.7299
vn 0.3319 0.6005 -0.7275
vn 0.3851 -0.1259 -0.9142
vn -0.0930 0.5104 -0.8549
vn -0.1884 0.2311 -0.9545
vn 0.4666 0.5162 -0.7182
vn 0.0824 -0.1298 -0.9881
vn 0.1783 0.6286 -0.7570
vn 0.5071 -0.0400 -0.8610
vn -0.1694 0.3821 -0.9085
vn 0.6025 0.2396 -0.7613
vn -0.1473 0.0806 -0.9858
vn -0.0521 -0.0462 -0.9976
vn -0.1474 0.0808 -0.9858
vn -0.6262 -0.6869 0.3689
vn -0.8006 -0.4547 0.3902
vn -0.3796 -0.8405 0.3866
vn -0.8408 0.0974 0.5324
vn 0.1751 -0.8346 0.5222
vn 0.3989 -0.6759 0.6197
vn -0.2038 0.5495 0.8102
vn 0.0777 0.4975 0.8640
vn 0.5389 -0.4403 0.7181
vn 0.3241 0.3437 0.8814
vn 0.4987 0.1117 0.8595
vn -0.6262 -0.6865 0.3695
vn -0.8759 -0.1791 0.4480
vn -0.8006 -0.4539 0.3911
vn -0.8408 0.0974 0.5325
vn -0.7008 0.3328 0.6309
vn -0.0981 -0.8925 0.4402
vn 0.1752 -0.8347 0.5221
vn -0.4772 0.4916 0.7285
vn 0.0777 0.4976 0.8639
vn 0.5389 -0.4404 0.7181
vn 0.5737 -0.1637 0.8025
vn 0.3244 0.3440 0.8812
vn 0.4984 0.1116 0.8597
vn 0.2268 0.2578 -0.9392
vn 0.2270 0.2575 -0.9392
vn 0.2267 0.2575 -0.9393
vn 0.2266 0.2577 -0.9393
vn 0.2269 0.2575 -0.9393
vn 0.2268 0.2576 -0.9393
vn 0.2268 0.2577 -0.9392
vn 0.2268 0.2576 -0.9392
vn 0.2267 0.2574 -0.9393
vn 0.2269 0.2579 -0.9392
vn 0.2270 0.2577 -0.9392
vn 0.2267 0.2585 -0.9390
vn 0.2270 0.2578 -0.9392
vn 0.2266 0.2576 -0.9393
vn 0.2269 0.2577 -0.9392
vn 0.2268 0.2575 -0.9393
vn 0.2267 0.2576 -0.9393
vn 0.2267 0.2577 -0.9393
vn 0.2268 0.2571 -0.9394
vt 1.000000 0.500000
vt 1.000000 0.000000
vt 0.937500 0.000000
vt 0.937500 0.500000
vt 0.875000 0.000000
vt 0.875000 0.500000
vt 0.812500 0.000000
vt 0.812500 0.500000
vt 0.750000 0.000000
vt 0.750000 0.500000
vt 0.687500 0.000000
vt 0.687500 0.500000
vt 0.625000 0.000000
vt 0.625000 0.500000
vt 0.562500 0.000000
vt 0.562500 0.500000
vt 0.500000 0.000000
vt 0.500000 0.500000
vt 0.437500 0.000000
vt 0.437500 0.500000
vt 0.375000 0.000000
vt 0.375000 0.500000
vt 0.312500 0.000000
vt 0.312500 0.500000
vt 0.250000 0.000000
vt 0.250000 0.500000
vt 0.187500 0.000000
vt 0.187500 0.500000
vt 0.125000 0.000000
vt 0.125000 0.500000
vt 0.062500 0.000000
vt 0.062500 0.500000
vt 0.000000 0.000000
vt 0.000000 0.500000
vt 0.841844 0.528269
vt 0.658156 0.528269
vt 0.750000 0.510000
vt 0.919706 0.580294
vt 0.580294 0.580294
vt 0.528269 0.658156
vt 0.971731 0.658156
vt 0.990000 0.750000
vt 0.510000 0.750000
vt 0.971731 0.841844
vt 0.528269 0.841844
vt 0.580294 0.919706
vt 0.919706 0.919706
vt 0.841844 0.971731
vt 0.658156 0.971731
vt 0.750000 0.990000
vt 0.158156 0.528269
vt 0.341844 0.528269
vt 0.250000 0.510000
vt 0.080294 0.580294
vt 0.419706 0.580294
vt 0.028269 0.658156
vt 0.471731 0.658156
vt 0.010000 0.750000
vt 0.490000 0.750000
vt 0.028269 0.841844
vt 0.471731 0.841844
vt 0.080294 0.919706
vt 0.419706 0.919706
vt 0.158156 0.971731
vt 0.341844 0.971731
vt 0.250000 0.990000
s 1
usemtl baseMaterial.001
f 1/1/1 2/2/2 3/3/3
f 1/1/1 3/3/3 4/4/4
f 4/4/4 3/3/3 5/5/5
f 4/4/4 5/5/5 6/6/6
f 6/6/6 5/5/5 7/7/7
f 6/6/6 7/7/7 8/8/8
f 8/8/8 7/7/7 9/9/9
f 8/8/8 9/9/9 10/10/10
f 10/10/10 9/9/9 11/11/11
f 10/10/10 11/11/11 12/12/12
f 12/12/12 11/11/11 13/13/13
f 12/12/12 13/13/13 14/14/14
f 14/14/14 13/13/13 15/15/15
f 14/14/14 15/15/15 16/16/16
f 16/16/16 15/15/15 17/17/17
f 16/16/16 17/17/17 18/18/18
f 18/18/18 17/17/17 19/19/19
f 18/18/18 19/19/19 20/20/20
f 20/20/20 19/19/19 21/21/21
f 20/20/20 21/21/21 22/22/22
f 22/22/22 21/21/21 23/23/23
f 22/22/22 23/23/23 24/24/24
f 24/24/24 23/23/23 25/25/25
f 24/24/24 25/25/25 26/26/26
f 26/26/26 25/25/25 27/27/27
f 26/26/26 27/27/27 28/28/28
f 28/28/28 27/27/27 29/29/29
f 28/28/28 29/29/29 30/30/30
f 31/9/31 32/7/32 33/7/33
f 31/9/31 33/7/33 34/9/34
f 30/30/30 29/29/29 35/31/35
f 30/30/30 35/31/35 36/32/36
f 36/32/36 35/31/35 37/33/37
f 36/32/36 37/33/37 38/34/1
f 55/1/38 56/2/37 57/3/39
f 55/1/38 57/3/39 58/4/40
f 58/4/40 57/3/39 59/5/41
f 58/4/40 59/5/41 60/6/42
f 60/6/42 59/5/41 32/7/32
f 60/6/42 32/7/32 61/8/43
f 61/8/43 32/7/32 31/9/31
f 61/8/43 31/9/31 62/10/44
f 62/10/44 31/9/31 63/11/11
f 62/10/44 63/11/11 64/12/12
f 64/12/12 63/11/11 65/13/45
f 64/12/12 65/13/45 66/14/46
f 66/14/46 65/13/45 67/15/47
f 66/14/46 67/15/47 68/16/16
f 68/16/16 67/15/47 69/17/48
f 68/16/16 69/17/48 70/18/49
f 70/18/49 69/17/48 71/19/50
f 70/18/49 71/19/50 72/20/51
f 72/20/51 71/19/50 73/21/52
f 72/20/51 73/21/52 74/22/53
f 74/22/53 73/21/52 75/23/23
f 74/22/53 75/23/23 76/24/24
f 76/24/24 75/23/23 77/25/54
f 76/24/24 77/25/54 78/26/26
f 78/26/26 77/25/54 79/27/55
f 78/26/26 79/27/55 80/28/56
f 80/28/56 79/27/55 81/29/57
f 80/28/56 81/29/57 82/30/58
f 23/23/23 21/21/21 83/21/59
f 23/23/23 83/21/59 84/23/60
f 82/30/58 81/29/57 85/31/61
f 82/30/58 85/31/61 86/32/62
f 86/32/62 85/31/61 87/33/2
f 86/32/62 87/33/2 88/34/1
f 79/27/55 77/25/54 137/25/63
f 79/27/55 137/25/63 138/27/64
f 15/15/15 13/13/13 139/13/65
f 15/15/15 139/13/65 140/15/66
f 37/33/37 35/31/35 141/31/67
f 37/33/37 141/31/67 142/33/68
f 71/19/50 69/17/48 143/17/69
f 71/19/50 143/17/69 144/19/70
f 7/7/7 5/5/5 145/5/71
f 7/7/7 145/5/71 146/7/72
f 25/25/25 23/23/23 84/23/60
f 25/25/25 84/23/60 147/25/73
f 63/11/11 31/9/31 34/9/34
f 63/11/11 34/9/34 148/11/74
f 81/29/57 79/27/55 138/27/64
f 81/29/57 138/27/64 149/29/75
f 57/3/39 56/2/37 150/2/76
f 57/3/39 150/2/76 151/3/77
f 17/17/17 15/15/15 140/15/66
f 17/17/17 140/15/66 152/17/78
f 73/21/52 71/19/50 144/19/70
f 73/21/52 144/19/70 153/21/79
f 9/9/9 7/7/7 146/7/72
f 9/9/9 146/7/72 154/9/80
f 27/27/27 25/25/25 147/25/73
f 27/27/27 147/25/73 155/27/81
f 65/13/45 63/11/11 148/11/74
f 65/13/45 148/11/74 156/13/65
f 85/31/61 81/29/57 149/29/75
f 85/31/61 149/29/75 157/31/82
f 19/19/19 17/17/17 152/17/78
f 19/19/19 152/17/78 158/19/83
f 59/5/41 57/3/39 151/3/77
f 59/5/41 151/3/77 159/5/84
f 75/23/23 73/21/52 153/21/79
f 75/23/23 153/21/79 160/23/85
f 11/11/11 9/9/9 154/9/80
f 11/11/11 154/9/80 161/11/86
f 29/29/29 27/27/27 155/27/81
f 29/29/29 155/27/81 162/29/87
f 67/15/47 65/13/45 156/13/65
f 67/15/47 156/13/65 163/15/88
f 3/3/3 2/2/2 164/2/89
f 3/3/3 164/2/89 165/3/90
f 87/33/2 85/31/61 157/31/82
f 87/33/2 157/31/82 166/33/91
f 21/21/21 19/19/19 158/19/83
f 21/21/21 158/19/83 83/21/59
f 32/7/32 59/5/41 159/5/84
f 32/7/32 159/5/84 33/7/33
f 77/25/54 75/23/23 160/23/85
f 77/25/54 160/23/85 137/25/63
f 13/13/13 11/11/11 161/11/86
f 13/13/13 161/11/86 139/13/65
f 35/31/35 29/29/29 162/29/87
f 35/31/35 162/29/87 141/31/67
f 69/17/48 67/15/47 163/15/88
f 69/17/48 163/15/88 143/17/69
f 5/5/5 3/3/3 165/3/90
f 5/5/5 165/3/90 145/5/71
f 40/35/92 54/36/62 39/37/93
f 54/36/62 40/35/92 41/38/94
f 54/36/62 41/38/94 53/39/95
f 53/39/95 41/38/94 52/40/28
f 52/40/28 41/38/94 42/41/43
f 52/40/28 42/41/43 43/42/96
f 52/40/28 43/42/96 51/43/26
f 51/43/26 43/42/96 44/44/97
f 51/43/26 44/44/97 50/45/98
f 50/45/98 44/44/97 49/46/99
f 49/46/99 44/44/97 45/47/100
f 49/46/99 45/47/100 46/48/16
f 49/46/99 46/48/16 48/49/101
f 48/49/101 46/48/16 47/50/102
f 90/35/103 104/36/104 89/37/105
f 104/36/104 90/35/103 91/38/94
f 104/36/104 91/38/94 103/39/106
f 103/39/106 91/38/94 102/40/107
f 102/40/107 91/38/94 92/41/108
f 102/40/107 92/41/108 93/42/109
f 102/40/107 93/42/109 101/43/110
f 101/43/110 93/42/109 94/44/97
f 101/43/110 94/44/97 100/45/24
f 100/45/24 94/44/97 99/46/111
f 99/46/111 94/44/97 95/47/112
f 99/46/111 95/47/112 96/48/113
f 99/46/111 96/48/113 98/49/114
f 98/49/114 96/48/113 97/50/115
s 0
f 107/51/116 105/52/116 106/53/116
f 105/52/117 107/51/117 108/54/117
f 105/52/118 108/54/118 120/55/118
f 120/55/119 108/54/119 109/56/119
f 120/55/120 109/56/120 119/57/120
f 119/57/121 109/56/121 110/58/121
f 119/57/122 110/58/122 118/59/122
f 118/59/123 110/58/123 111/60/123
f 118/59/121 111/60/121 117/61/121
f 117/61/118 111/60/118 112/62/118
f 117/61/124 112/62/124 116/63/124
f 116/63/125 112/62/125 113/64/125
f 116/63/126 113/64/126 115/65/126
f 115/65/127 113/64/127 114/66/127
f 123/51/116 121/52/116 122/53/116
f 121/52/128 123/51/128 124/54/128
f 121/52/118 124/54/118 136/55/118
f 136/55/129 124/54/129 125/56/129
f 136/55/130 125/56/130 135/57/130
f 135/57/122 125/56/122 126/58/122
f 135/57/131 126/58/131 134/59/131
f 134/59/121 126/58/121 127/60/121
f 134/59/121 127/60/121 133/61/121
f 133/61/132 127/60/132 128/62/132
f 133/61/133 128/62/133 132/63/133
f 132/63/120 128/62/120 129/64/120
f 132/63/126 129/64/126 131/65/126
f 131/65/134 129/64/134 130/66/134
