# Blender 4.4.1
# www.blender.org
mtllib Object_106.mtl
o Object_106.001
v -0.491872 -0.181285 11.138045
v -0.501854 -0.177397 11.144349
v -0.498215 -0.168707 11.144753
v -0.488232 -0.172595 11.138450
v -0.475503 -0.179049 11.162589
v -0.488232 -0.172595 11.138450
v -0.498215 -0.168707 11.144753
v -0.485486 -0.175161 11.168892
v -0.485486 -0.175161 11.168892
v -0.498215 -0.168707 11.144753
v -0.501854 -0.177397 11.144349
v -0.489125 -0.183852 11.168488
v -0.489125 -0.183852 11.168488
v -0.479143 -0.187739 11.162185
v -0.475503 -0.179049 11.162589
v -0.485486 -0.175161 11.168892
v -0.479143 -0.187739 11.162185
v -0.491872 -0.181285 11.138045
v -0.488232 -0.172595 11.138450
v -0.475503 -0.179049 11.162589
v -0.489125 -0.183852 11.168488
v -0.501854 -0.177397 11.144349
v -0.491872 -0.181285 11.138045
v -0.479143 -0.187739 11.162185
vn -0.4539 0.2301 -0.8608
vn -0.4539 0.2303 -0.8608
vn 0.3859 0.9215 0.0429
vn 0.3860 0.9215 0.0429
vn -0.8031 0.3128 0.5071
vn -0.8031 0.3127 0.5071
vn 0.4539 -0.2303 0.8608
vn 0.4539 -0.2300 0.8609
vn 0.8031 -0.3127 -0.5071
vn 0.8031 -0.3128 -0.5071
vn -0.3860 -0.9215 -0.0429
vn -0.3859 -0.9215 -0.0429
vt 0.625000 0.500000
vt 0.875000 0.500000
vt 0.875000 0.250000
vt 0.625000 0.250000
vt 0.375000 0.250000
vt 0.625000 0.000000
vt 0.375000 0.000000
vt 0.375000 1.000000
vt 0.625000 1.000000
vt 0.625000 0.750000
vt 0.375000 0.750000
vt 0.125000 0.500000
vt 0.375000 0.500000
vt 0.125000 0.250000
s 0
usemtl baseMaterial.001
f 1/1/1 2/2/1 3/3/1
f 1/1/2 3/3/2 4/4/2
f 5/5/3 6/4/3 7/6/3
f 5/5/4 7/6/4 8/7/4
f 9/8/5 10/9/5 11/10/5
f 9/8/6 11/10/6 12/11/6
f 13/12/7 14/13/7 15/5/7
f 13/12/8 15/5/8 16/14/8
f 17/13/9 18/1/9 19/4/9
f 17/13/10 19/4/10 20/5/10
f 21/11/11 22/10/11 23/1/11
f 21/11/12 23/1/12 24/13/12
