# Blender 4.4.1
# www.blender.org
mtllib Object_8.mtl
o Object_8.001
v -0.525856 -0.319800 11.376872
v -0.500252 -0.343547 11.452611
v -0.490246 -0.291513 11.395503
v -0.520347 -0.264670 11.324459
v -0.551408 -0.293520 11.258098
v -0.607079 -0.462247 11.400608
v -0.564654 -0.282722 11.215415
v -0.496494 -0.346260 11.450798
v -0.583839 -0.485168 11.483059
v -0.590026 -0.478991 11.459973
v -0.515000 -0.327640 11.371689
v -0.499261 -0.279894 11.314310
v -0.486488 -0.294226 11.393689
v -0.585286 -0.484124 11.483757
v -0.592025 -0.477547 11.460926
v -0.496494 -0.346260 11.450798
v -0.500252 -0.343547 11.452611
v -0.585286 -0.484124 11.483757
v -0.583839 -0.485168 11.483059
v -0.541935 -0.241871 11.214123
v -0.529141 -0.256227 11.293639
v -0.508788 -0.229079 11.295177
v -0.521566 -0.214740 11.215744
v -0.555166 -0.290807 11.259912
v -0.536715 -0.309400 11.339253
v -0.529141 -0.256227 11.293639
v -0.500252 -0.343547 11.452611
v -0.496494 -0.346260 11.450798
v -0.486488 -0.294226 11.393689
v -0.490246 -0.291513 11.395503
v -0.551408 -0.293520 11.258098
v -0.555166 -0.290807 11.259912
v -0.541935 -0.241871 11.214123
v -0.538176 -0.244584 11.212310
v -0.609244 -0.488813 11.435225
v -0.611050 -0.487520 11.436054
v -0.614060 -0.487450 11.429092
v -0.612614 -0.488494 11.428394
v -0.538176 -0.244584 11.212310
v -0.541935 -0.241871 11.214123
v -0.521566 -0.214740 11.215744
v -0.517808 -0.217453 11.213930
v -0.490246 -0.291513 11.395503
v -0.486488 -0.294226 11.393689
v -0.466119 -0.267095 11.395310
v -0.469878 -0.264382 11.397123
v -0.478882 -0.252774 11.315989
v -0.466119 -0.267095 11.395310
v -0.594664 -0.489582 11.467218
v -0.596111 -0.488537 11.467916
v -0.599432 -0.488225 11.461178
v -0.597652 -0.489514 11.460301
v -0.608525 -0.461202 11.401306
v -0.607079 -0.462247 11.400608
v -0.612614 -0.488494 11.428394
v -0.614060 -0.487450 11.429092
v -0.583839 -0.485168 11.483059
v -0.585286 -0.484124 11.483757
v -0.596111 -0.488537 11.467916
v -0.594664 -0.489582 11.467218
v -0.600309 -0.468849 11.423489
v -0.609244 -0.488813 11.435225
v -0.612614 -0.488494 11.428394
v -0.607079 -0.462247 11.400608
v -0.608525 -0.461202 11.401306
v -0.568412 -0.280009 11.217228
v -0.564654 -0.282722 11.215415
v -0.608525 -0.461202 11.401306
v -0.568412 -0.280009 11.217228
v -0.555166 -0.290807 11.259912
v -0.551408 -0.293520 11.258098
v -0.564654 -0.282722 11.215415
v -0.568412 -0.280009 11.217228
v -0.508060 -0.271441 11.283405
v -0.538176 -0.244584 11.212310
v -0.517808 -0.217453 11.213930
v -0.487712 -0.244293 11.284977
v -0.520347 -0.264670 11.324459
v -0.490246 -0.291513 11.395503
v -0.469878 -0.264382 11.397123
v -0.499954 -0.237562 11.326143
v -0.478882 -0.252774 11.315989
v -0.499954 -0.237562 11.326143
v -0.469878 -0.264382 11.397123
v -0.466119 -0.267095 11.395310
v -0.590026 -0.478991 11.459973
v -0.583839 -0.485168 11.483059
v -0.594664 -0.489582 11.467218
v -0.597652 -0.489514 11.460301
v -0.517808 -0.217453 11.213930
v -0.521566 -0.214740 11.215744
v -0.508788 -0.229079 11.295177
v -0.487712 -0.244293 11.284977
v -0.602281 -0.467433 11.424549
v -0.602281 -0.467433 11.424549
v -0.608525 -0.461202 11.401306
v -0.614060 -0.487450 11.429092
v -0.611050 -0.487520 11.436054
v -0.525706 -0.317340 11.333826
v -0.585286 -0.484124 11.483757
v -0.592025 -0.477547 11.460926
v -0.599432 -0.488225 11.461178
v -0.596111 -0.488537 11.467916
v -0.611050 -0.487520 11.436054
v -0.609244 -0.488813 11.435225
v -0.597652 -0.489514 11.460301
v -0.599432 -0.488225 11.461178
v -0.499954 -0.237562 11.326143
v -0.478882 -0.252774 11.315989
v -0.487712 -0.244293 11.284977
v -0.508788 -0.229079 11.295177
vn 0.6503 -0.4912 -0.5795
vn 0.0450 -0.7255 -0.6868
vn 0.3547 0.1131 -0.9281
vn -0.9814 0.0183 -0.1912
vn -0.8074 0.5747 0.1332
vn -0.4691 0.7080 -0.5279
vn -0.7423 0.5314 0.4081
vn -0.0328 0.5209 0.8530
vn -0.2722 0.5008 0.8217
vn -0.7722 0.4905 0.4039
vn 0.9025 -0.1568 0.4011
vn 0.4694 -0.7410 0.4801
vn 0.7517 -0.5618 -0.3453
vn 0.7643 -0.5598 -0.3202
vn 0.7338 -0.5974 -0.3235
vn 0.9026 -0.3470 0.2548
vn -0.4119 -0.1031 0.9054
vn -0.7561 0.5305 0.3832
vn 0.4078 -0.0445 0.9120
vn 0.4079 -0.0442 0.9120
vn -0.8374 0.2347 -0.4937
vn -0.8225 0.4892 0.2901
vn -0.1427 0.9581 0.2483
vn -0.2128 0.9130 -0.3479
vn -0.8195 0.4663 0.3332
vn -0.8225 0.4891 0.2901
vn -0.8373 0.2348 -0.4937
vn 0.6429 0.5067 0.5744
vn 0.6430 0.5067 0.5743
vn -0.6264 -0.4356 -0.6464
vn -0.6263 -0.4355 -0.6466
vn -0.5041 -0.8378 0.2096
vn -0.5036 -0.8382 0.2094
vn -0.2650 0.2542 -0.9301
vn -0.2651 0.2548 -0.9299
vn 0.2651 -0.2546 0.9300
vn 0.2650 -0.2544 0.9301
vn 0.9722 0.1469 -0.1822
vn 0.9146 0.0217 0.4038
vn -0.5039 -0.8380 0.2095
vn -0.6398 -0.4908 -0.5913
vn -0.6398 -0.4909 -0.5913
vn -0.3569 -0.8079 0.4690
vn -0.3571 -0.8077 0.4692
vn 0.7319 -0.5670 -0.3779
vn 0.1741 -0.9779 -0.1155
vn -0.0464 -0.9176 -0.3948
vn -0.6364 -0.4759 -0.6070
vn -0.6364 -0.4759 -0.6071
vn 0.5916 0.8060 0.0203
vn 0.5917 0.8059 0.0203
vn 0.6775 -0.5939 -0.4339
vn 0.0390 -0.3980 -0.9166
vn 0.5900 0.3335 -0.7353
vn 0.9453 0.1727 -0.2767
vn 0.1118 0.6014 0.7911
vn -0.1156 0.9322 0.3429
vn 0.5997 0.7988 0.0477
vn 0.4695 -0.7410 0.4801
vn 0.1771 -0.9840 0.0205
vn 0.1768 -0.9786 -0.1050
vn -0.7753 0.5250 0.3511
vn -0.9814 0.0184 -0.1912
vn -0.9661 -0.2535 0.0493
vn -0.8929 -0.2076 0.3995
vn 0.6798 -0.6200 -0.3918
vn -0.4118 -0.1031 0.9054
vn -0.8882 -0.2097 0.4088
vn -0.8235 -0.2621 0.5031
vn -0.5040 -0.8379 0.2096
vn -0.5037 -0.8381 0.2094
vt 0.125000 0.250000
vt 0.375000 0.250000
vt 0.625000 0.250000
vt 0.875000 0.250000
vt 0.875000 0.395637
vt 0.875000 0.500000
vt 0.875000 0.396316
vt 0.125000 0.500000
vt 0.375000 0.500000
vt 0.375000 0.430414
vt 0.125000 0.395685
vt 0.125000 0.396348
vt 0.625000 0.500000
vt 0.625000 0.430380
vt 0.375000 0.750000
vt 0.625000 0.750000
vt 0.875000 0.353830
vt 0.875000 0.353719
vt 0.875000 0.354536
vt 0.875000 0.353830
vt 0.375000 0.000000
vt 0.625000 0.000000
vt 0.375000 0.294526
vt 0.625000 0.294299
vt 0.125000 0.396423
vt 0.625000 0.456088
vt 0.375000 0.455995
vt 0.375000 0.319789
vt 0.375000 0.294526
vt 0.125000 0.353756
vt 0.125000 0.353684
vt 0.875000 0.396316
vt 0.875000 0.396408
vt 0.375000 0.853577
vt 0.625000 0.853592
vt 0.375000 0.430413
vt 0.375000 0.455995
vt 0.375000 1.000000
vt 0.625000 1.000000
vt 0.625000 0.896281
vt 0.375000 0.896316
vt 0.625000 0.320079
vt 0.625000 0.320079
vt 0.625000 0.294300
vt 0.125000 0.354420
vt 0.625000 0.430380
s 1
usemtl baseMaterial.001
f 5/1/1 6/2/2 7/1/3
f 68/3/4 24/4/5 69/4/6
f 1/5/7 2/6/8 3/6/9
f 1/5/7 3/6/9 4/7/10
f 8/8/11 9/9/12 10/10/13
f 8/8/11 10/10/13 11/11/14
f 8/8/11 11/11/14 12/12/15
f 8/8/11 12/12/15 13/8/16
f 14/13/17 2/6/8 1/5/7
f 14/13/17 1/5/7 15/14/18
s 0
f 16/15/19 17/16/19 18/13/19
f 16/15/20 18/13/20 19/9/20
s 1
f 20/4/21 21/17/22 22/18/23
f 20/4/21 22/18/23 23/4/24
f 24/4/5 25/19/25 26/20/26
f 24/4/5 26/20/26 20/4/27
s 0
f 27/16/28 28/15/28 29/15/28
f 27/16/29 29/15/29 30/16/29
f 31/21/30 32/22/30 33/22/30
f 31/21/31 33/22/31 34/21/31
s 1
f 35/23/32 36/24/32 37/3/32
s 0
f 35/23/33 37/3/33 38/2/33
f 39/21/34 40/22/34 41/22/34
f 39/21/35 41/22/35 42/21/35
f 43/16/36 44/15/36 45/15/36
f 43/16/37 45/15/37 46/16/37
s 1
f 13/8/16 12/12/15 47/25/38
f 13/8/16 47/25/38 48/8/39
s 0
f 49/9/40 50/13/40 51/26/40
f 49/9/40 51/26/40 52/27/40
f 53/3/41 54/2/41 55/2/41
f 53/3/42 55/2/42 56/3/42
f 57/9/43 58/13/43 59/13/43
f 57/9/44 59/13/44 60/9/44
s 1
f 6/2/2 61/28/45 62/29/46
f 6/2/2 62/29/46 63/2/47
s 0
f 64/2/48 65/3/48 66/22/48
f 64/2/49 66/22/49 67/21/49
f 70/22/50 71/21/50 72/21/50
f 70/22/51 72/21/51 73/22/51
s 1
f 74/30/52 75/1/53 76/1/54
f 74/30/52 76/1/54 77/31/55
f 78/32/10 79/6/9 80/6/56
f 78/32/10 80/6/56 81/33/57
s 0
f 82/34/58 83/35/58 84/16/58
f 82/34/58 84/16/58 85/15/58
s 1
f 86/36/13 87/9/59 88/9/60
f 86/36/13 88/9/60 89/37/61
s 0
f 90/38/58 91/39/58 92/40/58
f 90/38/58 92/40/58 93/41/58
s 1
f 94/42/62 25/19/25 24/4/5
f 94/42/62 24/4/5 68/3/4
f 95/43/62 96/3/63 97/3/64
f 95/43/62 97/3/64 98/44/65
f 99/45/66 5/1/1 75/1/53
f 99/45/66 75/1/53 74/30/52
f 100/13/67 101/46/18 102/26/68
f 100/13/67 102/26/68 103/13/69
f 86/36/13 89/37/61 62/29/46
f 86/36/13 62/29/46 61/28/45
s 0
f 104/24/70 105/23/70 106/27/70
f 104/24/71 106/27/71 107/26/71
s 1
f 74/30/52 77/31/55 47/25/38
f 74/30/52 47/25/38 12/12/15
s 0
f 108/35/58 109/34/58 110/41/58
f 108/35/58 110/41/58 111/40/58
s 1
f 1/5/7 4/7/10 26/20/26
f 1/5/7 26/20/26 25/19/25
f 78/32/10 81/33/57 22/18/23
f 78/32/10 22/18/23 21/17/22
f 95/43/62 98/44/65 102/26/68
f 95/43/62 102/26/68 101/46/18
f 61/28/45 99/45/66 11/11/14
f 61/28/45 11/11/14 10/10/13
f 99/45/66 74/30/52 12/12/15
f 99/45/66 12/12/15 11/11/14
f 25/19/25 94/42/62 15/14/18
f 25/19/25 15/14/18 1/5/7
f 99/45/66 61/28/45 6/2/2
f 99/45/66 6/2/2 5/1/1
