# Blender 4.4.1
# www.blender.org
mtllib Object_184.mtl
o Object_184.001
v -0.580936 -0.150200 11.097222
v -0.586108 -0.145232 11.079073
v -0.589789 -0.149643 11.078915
v -0.584617 -0.154610 11.097065
v -0.594775 -0.152424 11.079575
v -0.589603 -0.157391 11.097724
v -0.600307 -0.153151 11.080952
v -0.595135 -0.158119 11.099102
v -0.605542 -0.151715 11.082837
v -0.600370 -0.156683 11.100986
v -0.609685 -0.148334 11.084943
v -0.604513 -0.153301 11.103092
v -0.612103 -0.143522 11.086948
v -0.606931 -0.148489 11.105099
v -0.612429 -0.138012 11.088550
v -0.607257 -0.142979 11.106700
v -0.610614 -0.132643 11.089502
v -0.605442 -0.137610 11.107652
v -0.606933 -0.128232 11.089660
v -0.601761 -0.133200 11.107810
v -0.601947 -0.125451 11.089001
v -0.596775 -0.130419 11.107150
v -0.596415 -0.124724 11.087624
v -0.591243 -0.129691 11.105773
v -0.591179 -0.126160 11.085738
v -0.586007 -0.131127 11.103888
v -0.587037 -0.129541 11.083632
v -0.581865 -0.134509 11.101782
v -0.584619 -0.134353 11.081626
v -0.579446 -0.139321 11.099775
v -0.632980 -0.137966 11.097563
v -0.627744 -0.139402 11.095677
v -0.627936 -0.137440 11.094620
v -0.632592 -0.136163 11.096296
v -0.584293 -0.139863 11.080025
v -0.579120 -0.144831 11.098175
v -0.586108 -0.145232 11.079073
v -0.580936 -0.150200 11.097222
v -0.580936 -0.150200 11.097222
v -0.584617 -0.154610 11.097065
v -0.589603 -0.157391 11.097724
v -0.595135 -0.158119 11.099102
v -0.600370 -0.156683 11.100986
v -0.604513 -0.153301 11.103092
v -0.606931 -0.148489 11.105099
v -0.607257 -0.142979 11.106700
v -0.605442 -0.137610 11.107652
v -0.601761 -0.133200 11.107810
v -0.596775 -0.130419 11.107150
v -0.591243 -0.129691 11.105773
v -0.586007 -0.131127 11.103888
v -0.581865 -0.134509 11.101782
v -0.579446 -0.139321 11.099775
v -0.579120 -0.144831 11.098175
v -0.608373 -0.136450 11.111948
v -0.613546 -0.131483 11.093799
v -0.617227 -0.135893 11.093640
v -0.612054 -0.140861 11.111790
v -0.622213 -0.138674 11.094300
v -0.617040 -0.143642 11.112450
v -0.622572 -0.144369 11.113827
v -0.627808 -0.142933 11.115712
v -0.637122 -0.134584 11.099669
v -0.631950 -0.139552 11.117818
v -0.639541 -0.129772 11.101674
v -0.634369 -0.134740 11.119824
v -0.639867 -0.124263 11.103275
v -0.634695 -0.129230 11.121426
v -0.638051 -0.118894 11.104227
v -0.632879 -0.123861 11.122377
v -0.634371 -0.114483 11.104385
v -0.629198 -0.119450 11.122536
v -0.629385 -0.111702 11.103725
v -0.624212 -0.116670 11.121876
v -0.623853 -0.110974 11.102348
v -0.618680 -0.115942 11.120499
v -0.618617 -0.112411 11.100464
v -0.613445 -0.117378 11.118613
v -0.614475 -0.115792 11.098358
v -0.609303 -0.120760 11.116508
v -0.612056 -0.120604 11.096352
v -0.606884 -0.125572 11.114501
v -0.601957 -0.126552 11.087053
v -0.597037 -0.125905 11.085828
v -0.611730 -0.126114 11.094750
v -0.606558 -0.131081 11.112901
v -0.613546 -0.131483 11.093799
v -0.608373 -0.136450 11.111948
v -0.608373 -0.136450 11.111948
v -0.612054 -0.140861 11.111790
v -0.617040 -0.143642 11.112450
v -0.622572 -0.144369 11.113827
v -0.627808 -0.142933 11.115712
v -0.631950 -0.139552 11.117818
v -0.634369 -0.134740 11.119824
v -0.634695 -0.129230 11.121426
v -0.632879 -0.123861 11.122377
v -0.629198 -0.119450 11.122536
v -0.624212 -0.116670 11.121876
v -0.618680 -0.115942 11.120499
v -0.613445 -0.117378 11.118613
v -0.609303 -0.120760 11.116508
v -0.606884 -0.125572 11.114501
v -0.606558 -0.131081 11.112901
v -0.591143 -0.148069 11.078082
v -0.587869 -0.144146 11.078223
v -0.586255 -0.139370 11.079070
v -0.586545 -0.134470 11.080494
v -0.588696 -0.130190 11.082278
v -0.592380 -0.127182 11.084151
v -0.597037 -0.125905 11.085828
v -0.601957 -0.126552 11.087053
v -0.606392 -0.129026 11.087640
v -0.609665 -0.132949 11.087499
v -0.611280 -0.137724 11.086653
v -0.610990 -0.142624 11.085228
v -0.608839 -0.146904 11.083444
v -0.605155 -0.149912 11.081571
v -0.600498 -0.151189 11.079894
v -0.595578 -0.150542 11.078670
v -0.618581 -0.134319 11.092808
v -0.615307 -0.130396 11.092949
v -0.613692 -0.125621 11.093796
v -0.613982 -0.120721 11.095220
v -0.616133 -0.116441 11.097004
v -0.619818 -0.113433 11.098877
v -0.624474 -0.112156 11.100554
v -0.629394 -0.112803 11.101779
v -0.633829 -0.115276 11.102365
v -0.637103 -0.119199 11.102224
v -0.638718 -0.123974 11.101377
v -0.638428 -0.128875 11.099954
v -0.636277 -0.133155 11.098169
v -0.632592 -0.136163 11.096296
v -0.627936 -0.137440 11.094620
v -0.623016 -0.136793 11.093395
v -0.619818 -0.113433 11.098877
v -0.616133 -0.116441 11.097004
v -0.610990 -0.142624 11.085228
v -0.611280 -0.137724 11.086653
v -0.586255 -0.139370 11.079070
v -0.587869 -0.144146 11.078223
v -0.637103 -0.119199 11.102224
v -0.633829 -0.115276 11.102365
v -0.595578 -0.150542 11.078670
v -0.600498 -0.151189 11.079894
v -0.592380 -0.127182 11.084151
v -0.636277 -0.133155 11.098169
v -0.613982 -0.120721 11.095220
v -0.615307 -0.130396 11.092949
v -0.618581 -0.134319 11.092808
v -0.609665 -0.132949 11.087499
v -0.629394 -0.112803 11.101779
v -0.605155 -0.149912 11.081571
v -0.588696 -0.130190 11.082278
v -0.638428 -0.128875 11.099954
v -0.613692 -0.125621 11.093796
v -0.606392 -0.129026 11.087640
v -0.623016 -0.136793 11.093395
v -0.624474 -0.112156 11.100554
v -0.608839 -0.146904 11.083444
v -0.586545 -0.134470 11.080494
v -0.638718 -0.123974 11.101377
v -0.587869 -0.144146 11.078223
v -0.591143 -0.148069 11.078082
v -0.615307 -0.130396 11.092949
vn -0.7971 0.4884 -0.3550
vn -0.6690 0.2988 0.6806
vn -0.4378 0.5758 0.6905
vn -0.6107 0.7118 -0.3470
vn -0.1246 0.7504 0.6492
vn -0.3580 0.8527 -0.3804
vn 0.2229 0.7961 0.5626
vn -0.0778 0.8895 -0.4502
vn 0.5517 0.7060 0.4441
vn 0.1874 0.8168 -0.5456
vn 0.8119 0.4936 0.3119
vn 0.3972 0.6454 -0.6524
vn 0.9638 0.1912 0.1859
vn 0.5198 0.4016 -0.7541
vn 0.9842 -0.1548 0.0854
vn 0.5363 0.1227 -0.8351
vn 0.8703 -0.4919 0.0255
vn 0.4443 -0.1495 -0.8833
vn 0.6389 -0.7691 0.0156
vn 0.2577 -0.3730 -0.8913
vn 0.3259 -0.9437 0.0571
vn 0.0052 -0.5137 -0.8579
vn -0.0216 -0.9894 0.1434
vn -0.2750 -0.5506 -0.7882
vn -0.3505 -0.8992 0.2620
vn -0.5402 -0.4779 -0.6927
vn -0.6106 -0.6868 0.3942
vn -0.7501 -0.3065 -0.5860
vn -0.7625 -0.3846 0.5202
vn -0.8726 -0.0628 -0.4844
vn 0.2228 0.7961 0.5626
vn 0.2958 0.1604 0.9417
vn 0.4406 0.1212 0.8895
vn -0.7830 -0.0385 0.6209
vn -0.8891 0.2164 -0.4032
vn -0.6690 0.2986 0.6806
vn -0.7972 0.4883 -0.3550
vn -0.7972 0.4884 -0.3550
vn -0.4378 0.5759 0.6904
vn -0.1246 0.7504 0.6491
vn -0.3580 0.8527 -0.3805
vn 0.1874 0.8168 -0.5457
vn 0.8118 0.4936 0.3118
vn 0.9638 0.1913 0.1859
vn 0.5197 0.4016 -0.7540
vn 0.9843 -0.1548 0.0853
vn 0.5363 0.1226 -0.8351
vn 0.8702 -0.4920 0.0256
vn 0.6390 -0.7691 0.0156
vn 0.2578 -0.3729 -0.8913
vn 0.3258 -0.9437 0.0572
vn 0.0052 -0.5138 -0.8579
vn -0.0216 -0.9894 0.1435
vn -0.3505 -0.8992 0.2619
vn -0.6107 -0.6868 0.3942
vn -0.8726 -0.0627 -0.4843
vn 0.3413 -0.6052 0.7192
vn 0.1883 -0.6255 0.7571
vn -0.8891 0.2163 -0.4033
vn -0.6690 0.2987 0.6806
vn 0.0435 -0.5858 0.8093
vn -0.0710 -0.4925 0.8674
vn 0.6219 -0.1060 0.7759
vn 0.6309 -0.2581 0.7317
vn -0.1467 -0.2069 0.9673
vn -0.0967 -0.0588 0.9936
vn 0.5808 -0.4065 0.7053
vn 0.4789 -0.5285 0.7009
vn 0.1430 0.1403 0.9797
vn 0.2959 0.1607 0.9416
vn 0.0435 -0.5856 0.8094
vn 0.5552 0.0277 0.8313
vn -0.1378 -0.3594 0.9230
vn -0.0967 -0.0584 0.9936
vn 0.0050 0.0636 0.9980
vn 0.5810 -0.4064 0.7052
vn 0.3411 -0.6053 0.7192
vn 0.4406 0.1211 0.8895
vn -0.0710 -0.4924 0.8675
vn 0.6220 -0.1056 0.7759
vn -0.1468 -0.2068 0.9673
vn 0.4789 -0.5286 0.7009
vn 0.1429 0.1401 0.9798
vn 0.1882 -0.6257 0.7570
vn 0.5551 0.0272 0.8313
vn -0.1378 -0.3592 0.9230
vn 0.6311 -0.2581 0.7315
vn -0.0967 -0.0582 0.9936
vn 0.0050 0.0637 0.9980
vn -0.0967 -0.0585 0.9936
vn -0.7501 -0.3064 -0.5860
vn -0.2751 -0.5503 -0.7883
vn -0.5403 -0.4779 -0.6926
vn -0.8727 -0.0630 -0.4842
vn 0.2579 -0.3728 -0.8914
vn -0.8892 0.2162 -0.4032
vn 0.4444 -0.1494 -0.8833
vn -0.7973 0.4882 -0.3550
vn 0.5363 0.1225 -0.8351
vn -0.6108 0.7117 -0.3470
vn 0.5198 0.4018 -0.7539
vn -0.3581 0.8527 -0.3803
vn 0.3973 0.6455 -0.6523
vn -0.0778 0.8896 -0.4501
vn 0.1875 0.8169 -0.5455
vn -0.7501 -0.3067 -0.5859
vn -0.2750 -0.5509 -0.7880
vn -0.5403 -0.4783 -0.6924
vn 0.0053 -0.5140 -0.8578
vn -0.8727 -0.0627 -0.4843
vn 0.2579 -0.3730 -0.8913
vn -0.8891 0.2165 -0.4032
vn -0.7972 0.4884 -0.3549
vn -0.6107 0.7119 -0.3468
vn 0.5198 0.4017 -0.7539
vn 0.1873 0.8168 -0.5456
vn 0.2649 -0.2555 0.9298
vn 0.2651 -0.2548 0.9299
vn 0.2651 -0.2544 0.9301
vn 0.2650 -0.2552 0.9299
vn 0.2651 -0.2541 0.9301
vn 0.2650 -0.2549 0.9300
vn 0.2650 -0.2546 0.9300
vn 0.2651 -0.2546 0.9300
vn 0.2650 -0.2544 0.9301
vn 0.2650 -0.2543 0.9301
vn 0.2649 -0.2549 0.9300
vn 0.2651 -0.2543 0.9301
vn 0.2650 -0.2545 0.9300
vn 0.2650 -0.2548 0.9300
vn 0.2650 -0.2547 0.9300
vt 1.000000 0.500000
vt 1.000000 0.000000
vt 0.937500 0.000000
vt 0.937500 0.500000
vt 0.875000 0.000000
vt 0.875000 0.500000
vt 0.812500 0.000000
vt 0.812500 0.500000
vt 0.750000 0.000000
vt 0.750000 0.500000
vt 0.687500 0.000000
vt 0.687500 0.500000
vt 0.625000 0.000000
vt 0.625000 0.500000
vt 0.562500 0.000000
vt 0.562500 0.500000
vt 0.500000 0.000000
vt 0.500000 0.500000
vt 0.437500 0.000000
vt 0.437500 0.500000
vt 0.375000 0.000000
vt 0.375000 0.500000
vt 0.312500 0.000000
vt 0.312500 0.500000
vt 0.250000 0.000000
vt 0.250000 0.500000
vt 0.187500 0.000000
vt 0.187500 0.500000
vt 0.125000 0.000000
vt 0.125000 0.500000
vt 0.062500 0.000000
vt 0.062500 0.500000
vt 0.000000 0.000000
vt 0.000000 0.500000
vt 0.528269 0.658156
vt 0.528269 0.841844
vt 0.510000 0.750000
vt 0.580294 0.919706
vt 0.580294 0.580294
vt 0.658156 0.971731
vt 0.658156 0.528269
vt 0.750000 0.990000
vt 0.750000 0.510000
vt 0.841844 0.971731
vt 0.841844 0.528269
vt 0.919706 0.919706
vt 0.919706 0.580294
vt 0.971731 0.841844
vt 0.971731 0.658156
vt 0.990000 0.750000
vt 0.028269 0.841844
vt 0.028269 0.658156
vt 0.010000 0.750000
vt 0.080294 0.919706
vt 0.080294 0.580294
vt 0.158156 0.971731
vt 0.158156 0.528269
vt 0.250000 0.990000
vt 0.250000 0.510000
vt 0.341844 0.971731
vt 0.341844 0.528269
vt 0.419706 0.919706
vt 0.419706 0.580294
vt 0.471731 0.841844
vt 0.471731 0.658156
vt 0.490000 0.750000
s 1
usemtl baseMaterial.001
f 1/1/1 2/2/2 3/3/3
f 1/1/1 3/3/3 4/4/4
f 4/4/4 3/3/3 5/5/5
f 4/4/4 5/5/5 6/6/6
f 6/6/6 5/5/5 7/7/7
f 6/6/6 7/7/7 8/8/8
f 8/8/8 7/7/7 9/9/9
f 8/8/8 9/9/9 10/10/10
f 10/10/10 9/9/9 11/11/11
f 10/10/10 11/11/11 12/12/12
f 12/12/12 11/11/11 13/13/13
f 12/12/12 13/13/13 14/14/14
f 14/14/14 13/13/13 15/15/15
f 14/14/14 15/15/15 16/16/16
f 16/16/16 15/15/15 17/17/17
f 16/16/16 17/17/17 18/18/18
f 18/18/18 17/17/17 19/19/19
f 18/18/18 19/19/19 20/20/20
f 20/20/20 19/19/19 21/21/21
f 20/20/20 21/21/21 22/22/22
f 22/22/22 21/21/21 23/23/23
f 22/22/22 23/23/23 24/24/24
f 24/24/24 23/23/23 25/25/25
f 24/24/24 25/25/25 26/26/26
f 26/26/26 25/25/25 27/27/27
f 26/26/26 27/27/27 28/28/28
f 28/28/28 27/27/27 29/29/29
f 28/28/28 29/29/29 30/30/30
f 31/9/9 32/7/31 33/7/32
f 31/9/9 33/7/32 34/9/33
f 30/30/30 29/29/29 35/31/34
f 30/30/30 35/31/34 36/32/35
f 36/32/35 35/31/34 37/33/36
f 36/32/35 37/33/36 38/34/37
f 55/1/38 56/2/2 57/3/39
f 55/1/38 57/3/39 58/4/4
f 58/4/4 57/3/39 59/5/40
f 58/4/4 59/5/40 60/6/41
f 60/6/41 59/5/40 32/7/31
f 60/6/41 32/7/31 61/8/8
f 61/8/8 32/7/31 31/9/9
f 61/8/8 31/9/9 62/10/42
f 62/10/42 31/9/9 63/11/43
f 62/10/42 63/11/43 64/12/12
f 64/12/12 63/11/43 65/13/44
f 64/12/12 65/13/44 66/14/45
f 66/14/45 65/13/44 67/15/46
f 66/14/45 67/15/46 68/16/47
f 68/16/47 67/15/46 69/17/48
f 68/16/47 69/17/48 70/18/18
f 70/18/18 69/17/48 71/19/49
f 70/18/18 71/19/49 72/20/50
f 72/20/50 71/19/49 73/21/51
f 72/20/50 73/21/51 74/22/52
f 74/22/52 73/21/51 75/23/53
f 74/22/52 75/23/53 76/24/24
f 76/24/24 75/23/53 77/25/54
f 76/24/24 77/25/54 78/26/26
f 78/26/26 77/25/54 79/27/55
f 78/26/26 79/27/55 80/28/28
f 80/28/28 79/27/55 81/29/29
f 80/28/28 81/29/29 82/30/56
f 23/23/23 21/21/21 83/21/57
f 23/23/23 83/21/57 84/23/58
f 82/30/56 81/29/29 85/31/34
f 82/30/56 85/31/34 86/32/59
f 86/32/59 85/31/34 87/33/60
f 86/32/59 87/33/60 88/34/38
f 79/27/55 77/25/54 137/25/61
f 79/27/55 137/25/61 138/27/62
f 15/15/15 13/13/13 139/13/63
f 15/15/15 139/13/63 140/15/64
f 37/33/36 35/31/34 141/31/65
f 37/33/36 141/31/65 142/33/66
f 71/19/49 69/17/48 143/17/67
f 71/19/49 143/17/67 144/19/68
f 7/7/7 5/5/5 145/5/69
f 7/7/7 145/5/69 146/7/70
f 25/25/25 23/23/23 84/23/58
f 25/25/25 84/23/58 147/25/71
f 63/11/43 31/9/9 34/9/33
f 63/11/43 34/9/33 148/11/72
f 81/29/29 79/27/55 138/27/62
f 81/29/29 138/27/62 149/29/73
f 57/3/39 56/2/2 150/2/74
f 57/3/39 150/2/74 151/3/75
f 17/17/17 15/15/15 140/15/64
f 17/17/17 140/15/64 152/17/76
f 73/21/51 71/19/49 144/19/68
f 73/21/51 144/19/68 153/21/77
f 9/9/9 7/7/7 146/7/70
f 9/9/9 146/7/70 154/9/78
f 27/27/27 25/25/25 147/25/71
f 27/27/27 147/25/71 155/27/79
f 65/13/44 63/11/43 148/11/72
f 65/13/44 148/11/72 156/13/80
f 85/31/34 81/29/29 149/29/73
f 85/31/34 149/29/73 157/31/81
f 19/19/19 17/17/17 152/17/76
f 19/19/19 152/17/76 158/19/82
f 59/5/40 57/3/39 151/3/75
f 59/5/40 151/3/75 159/5/83
f 75/23/53 73/21/51 153/21/77
f 75/23/53 153/21/77 160/23/84
f 11/11/11 9/9/9 154/9/78
f 11/11/11 154/9/78 161/11/85
f 29/29/29 27/27/27 155/27/79
f 29/29/29 155/27/79 162/29/86
f 67/15/46 65/13/44 156/13/80
f 67/15/46 156/13/80 163/15/87
f 3/3/3 2/2/2 164/2/88
f 3/3/3 164/2/88 165/3/89
f 87/33/60 85/31/34 157/31/81
f 87/33/60 157/31/81 166/33/90
f 21/21/21 19/19/19 158/19/82
f 21/21/21 158/19/82 83/21/57
f 32/7/31 59/5/40 159/5/83
f 32/7/31 159/5/83 33/7/32
f 77/25/54 75/23/53 160/23/84
f 77/25/54 160/23/84 137/25/61
f 13/13/13 11/11/11 161/11/85
f 13/13/13 161/11/85 139/13/63
f 35/31/34 29/29/29 162/29/86
f 35/31/34 162/29/86 141/31/65
f 69/17/48 67/15/46 163/15/87
f 69/17/48 163/15/87 143/17/67
f 5/5/5 3/3/3 165/3/89
f 5/5/5 165/3/89 145/5/69
f 52/35/91 50/36/92 51/37/93
f 50/36/92 52/35/91 49/38/52
f 49/38/52 52/35/91 53/39/94
f 49/38/52 53/39/94 48/40/95
f 48/40/95 53/39/94 54/41/96
f 48/40/95 54/41/96 47/42/97
f 47/42/97 54/41/96 39/43/98
f 47/42/97 39/43/98 46/44/99
f 46/44/99 39/43/98 40/45/100
f 46/44/99 40/45/100 45/46/101
f 45/46/101 40/45/100 41/47/102
f 45/46/101 41/47/102 44/48/103
f 44/48/103 41/47/102 42/49/104
f 44/48/103 42/49/104 43/50/105
f 102/35/106 100/36/107 101/37/108
f 100/36/107 102/35/106 99/38/109
f 99/38/109 102/35/106 103/39/110
f 99/38/109 103/39/110 98/40/111
f 98/40/111 103/39/110 104/41/112
f 98/40/111 104/41/112 97/42/18
f 97/42/18 104/41/112 89/43/113
f 97/42/18 89/43/113 96/44/99
f 96/44/99 89/43/113 90/45/114
f 96/44/99 90/45/114 95/46/115
f 95/46/115 90/45/114 91/47/102
f 95/46/115 91/47/102 94/48/103
f 94/48/103 91/47/102 92/49/104
f 94/48/103 92/49/104 93/50/116
s 0
f 111/51/117 109/52/117 110/53/117
f 109/52/118 111/51/118 112/54/118
f 109/52/119 112/54/119 108/55/119
f 108/55/120 112/54/120 113/56/120
f 108/55/121 113/56/121 107/57/121
f 107/57/122 113/56/122 114/58/122
f 107/57/123 114/58/123 106/59/123
f 106/59/124 114/58/124 115/60/124
f 106/59/125 115/60/125 105/61/125
f 105/61/126 115/60/126 116/62/126
f 105/61/119 116/62/119 120/63/119
f 120/63/122 116/62/122 117/64/122
f 120/63/127 117/64/127 119/65/127
f 119/65/121 117/64/121 118/66/121
f 127/51/122 125/52/122 126/53/122
f 125/52/121 127/51/121 128/54/121
f 125/52/128 128/54/128 124/55/128
f 124/55/129 128/54/129 129/56/129
f 124/55/123 129/56/123 123/57/123
f 123/57/130 129/56/130 130/58/130
f 123/57/125 130/58/125 122/59/125
f 122/59/123 130/58/123 131/60/123
f 122/59/131 131/60/131 121/61/131
f 121/61/123 131/60/123 132/62/123
f 121/61/119 132/62/119 136/63/119
f 136/63/125 132/62/125 133/64/125
f 136/63/125 133/64/125 135/65/125
f 135/65/130 133/64/130 134/66/130
