# Blender 4.4.1
# www.blender.org
mtllib Object_174.mtl
o Object_174.001
v -0.002122 0.117156 11.395659
v -0.002331 0.122737 11.386768
v -0.012399 0.120976 11.385900
v -0.012190 0.115395 11.394791
v -0.020953 0.116093 11.383036
v -0.020745 0.110512 11.391926
v -0.026691 0.108832 11.378612
v -0.026483 0.103251 11.387503
v -0.028740 0.100297 11.373302
v -0.028531 0.094716 11.382194
v -0.026787 0.091789 11.367916
v -0.026578 0.086208 11.376807
v -0.021129 0.084602 11.363273
v -0.020921 0.079021 11.372164
v -0.012629 0.079831 11.360078
v -0.012420 0.074250 11.368969
v -0.002580 0.078202 11.358820
v -0.002371 0.072621 11.367711
v 0.007488 0.079963 11.359689
v 0.007697 0.074382 11.368580
v 0.016042 0.084846 11.362553
v 0.016251 0.079265 11.371444
v 0.021780 0.092107 11.366977
v 0.021989 0.086527 11.375868
v 0.023829 0.100642 11.372286
v 0.024037 0.095061 11.381176
v 0.021876 0.109150 11.377672
v 0.022084 0.103569 11.386563
v 0.016218 0.116337 11.382316
v 0.016427 0.110756 11.391207
v -0.028531 0.094716 11.382194
v -0.026578 0.086208 11.376807
v -0.002247 0.094889 11.381685
v 0.007718 0.121108 11.385510
v 0.007927 0.115527 11.394402
v -0.002331 0.122737 11.386768
v -0.002122 0.117156 11.395659
v -0.002455 0.100470 11.372794
v 0.022084 0.103569 11.386563
v 0.016427 0.110756 11.391207
v -0.002247 0.094889 11.381685
v -0.002122 0.117156 11.395659
v -0.012190 0.115395 11.394791
v -0.002247 0.094889 11.381685
v 0.007697 0.074382 11.368580
v 0.016251 0.079265 11.371444
v -0.002247 0.094889 11.381685
v -0.026578 0.086208 11.376807
v -0.020921 0.079021 11.372164
v -0.002247 0.094889 11.381685
v 0.016427 0.110756 11.391207
v 0.007927 0.115527 11.394402
v -0.002247 0.094889 11.381685
v -0.012190 0.115395 11.394791
v -0.020745 0.110512 11.391926
v -0.002247 0.094889 11.381685
v 0.016251 0.079265 11.371444
v 0.021989 0.086527 11.375868
v -0.002247 0.094889 11.381685
v -0.020921 0.079021 11.372164
v -0.012420 0.074250 11.368969
v -0.002247 0.094889 11.381685
v 0.007927 0.115527 11.394402
v -0.002122 0.117156 11.395659
v -0.002247 0.094889 11.381685
v -0.020745 0.110512 11.391926
v -0.026483 0.103251 11.387503
v -0.002247 0.094889 11.381685
v 0.021989 0.086527 11.375868
v 0.024037 0.095061 11.381176
v -0.002247 0.094889 11.381685
v -0.012420 0.074250 11.368969
v -0.002371 0.072621 11.367711
v -0.026483 0.103251 11.387503
v -0.028531 0.094716 11.382194
v -0.002247 0.094889 11.381685
v 0.024037 0.095061 11.381176
v 0.022084 0.103569 11.386563
v -0.002247 0.094889 11.381685
v -0.002371 0.072621 11.367711
v 0.007697 0.074382 11.368580
v -0.002247 0.094889 11.381685
v -0.019885 0.090031 11.357239
v -0.019108 0.069849 11.390554
v -0.019132 0.102784 11.400438
v -0.019722 0.119157 11.375517
v -0.019722 0.119157 11.375517
v -0.019132 0.102784 11.400438
v 0.015247 0.103010 11.399773
v 0.014657 0.119382 11.374852
v 0.014657 0.119382 11.374852
v 0.015247 0.103010 11.399773
v 0.015271 0.070075 11.389890
v 0.014494 0.090257 11.356574
v 0.014494 0.090257 11.356574
v 0.015271 0.070075 11.389890
v -0.019108 0.069849 11.390554
v -0.019885 0.090031 11.357239
v -0.019722 0.119157 11.375517
v 0.014657 0.119382 11.374852
v 0.014494 0.090257 11.356574
v -0.019885 0.090031 11.357239
v 0.015271 0.070075 11.389890
v 0.015247 0.103010 11.399773
v 0.016007 0.099843 11.438004
v 0.015808 0.071743 11.418185
v -0.018571 0.071518 11.418851
v 0.015808 0.071743 11.418185
v 0.016017 0.052439 11.422425
v -0.018362 0.052214 11.423090
v -0.019132 0.102784 11.400438
v -0.019108 0.069849 11.390554
v -0.018571 0.071518 11.418851
v -0.018372 0.099618 11.438669
v -0.019108 0.069849 11.390554
v 0.015271 0.070075 11.389890
v 0.015808 0.071743 11.418185
v -0.018571 0.071518 11.418851
v 0.015247 0.103010 11.399773
v -0.019132 0.102784 11.400438
v -0.018372 0.099618 11.438669
v 0.016007 0.099843 11.438004
v 0.016558 0.064707 11.454544
v -0.017821 0.064481 11.455210
v -0.018362 0.052214 11.423090
v 0.016017 0.052439 11.422425
v 0.016007 0.099843 11.438004
v -0.018372 0.099618 11.438669
v -0.017821 0.064481 11.455210
v 0.016558 0.064707 11.454544
v 0.015808 0.071743 11.418185
v 0.016007 0.099843 11.438004
v 0.016558 0.064707 11.454544
v 0.016017 0.052439 11.422425
v -0.018372 0.099618 11.438669
v -0.018571 0.071518 11.418851
v -0.018362 0.052214 11.423090
v -0.017821 0.064481 11.455210
vn 0.0199 -0.5316 0.8468
vn 0.2690 -0.2282 -0.9357
vn -0.0168 -0.2782 -0.9604
vn -0.0199 0.5315 -0.8468
vn 0.0199 -0.5314 0.8469
vn -0.7038 0.1075 -0.7022
vn -0.7593 0.3489 -0.5493
vn 0.5168 0.8043 -0.2935
vn 0.6774 0.6003 -0.4252
vn -0.2954 0.9359 -0.1917
vn -0.0097 0.9859 -0.1671
vn 0.5118 -0.0896 -0.8544
vn 0.0199 -0.5315 0.8468
vn -0.5433 -0.0965 -0.8340
vn 0.2755 0.9397 -0.2028
vn 0.0198 -0.5316 0.8468
vn 0.0198 -0.5318 0.8467
vn -0.5383 0.7973 -0.2730
vn 0.6747 0.1164 -0.7289
vn 0.0198 -0.5315 0.8468
vn -0.3020 -0.2320 -0.9247
vn 0.0199 -0.5313 0.8470
vn -0.7011 0.5912 -0.3986
vn 0.7328 0.3587 -0.5782
vn 0.0199 -0.5318 0.8467
vn 0.0168 0.2782 0.9604
vn -0.2691 0.2281 0.9357
vn -0.5119 0.0894 0.8544
vn -0.6746 -0.1164 0.7289
vn -0.7328 -0.3588 0.5782
vn -0.6774 -0.6002 0.4253
vn -0.5168 -0.8042 0.2935
vn -0.2756 -0.9396 0.2028
vn 0.0096 -0.9859 0.1670
vn 0.2954 -0.9359 0.1918
vn 0.5382 -0.7973 0.2731
vn 0.7011 -0.5912 0.3987
vn 0.7592 -0.3490 0.5493
vn 0.7037 -0.1073 0.7023
vn 0.5433 0.0964 0.8340
vn 0.3021 0.2318 0.9247
vn 0.0167 0.2782 0.9604
vn -0.9998 -0.0066 0.0193
vn 0.0051 0.8358 0.5490
vn 0.9998 0.0066 -0.0193
vn -0.0044 -0.8554 -0.5180
vn -0.0044 -0.8553 -0.5181
vn -0.0199 0.5316 -0.8468
vn -0.0199 0.5314 -0.8469
vn -0.0175 -0.2147 -0.9765
vn -0.0175 -0.2146 -0.9765
vn 0.0077 -0.9982 0.0587
vn -0.0049 0.9966 0.0826
vn 0.0130 -0.9342 0.3565
vn 0.0130 -0.9342 0.3566
vn 0.0147 0.4260 0.9046
vn 0.0147 0.4261 0.9045
vt 0.750000 0.500000
vt 0.687500 0.500000
vt 0.500000 0.500000
vt 0.437500 0.000000
vt 0.500000 0.000000
vt 0.187500 0.500000
vt 0.125000 0.500000
vt 1.000000 0.500000
vt 0.937500 0.500000
vt 0.687500 0.000000
vt 0.750000 0.000000
vt 0.125000 0.000000
vt 0.187500 0.000000
vt 0.937500 0.000000
vt 1.000000 0.000000
vt 0.437500 0.500000
vt 0.375000 0.500000
vt 0.375000 0.000000
vt 0.625000 0.500000
vt 0.062500 0.500000
vt 0.625000 0.000000
vt 0.062500 0.000000
vt 0.875000 0.500000
vt 0.312500 0.500000
vt 0.875000 0.000000
vt 0.312500 0.000000
vt 0.562500 0.500000
vt 0.000000 0.500000
vt 0.562500 0.000000
vt 0.000000 0.000000
vt 0.812500 0.500000
vt 0.250000 0.500000
vt 0.812500 0.000000
vt 0.250000 0.000000
vt 0.375000 1.000000
vt 0.625000 1.000000
vt 0.625000 0.750000
vt 0.375000 0.750000
vt 0.625000 0.250000
vt 0.375000 0.250000
vt 0.125000 0.250000
vt 0.875000 0.250000
s 0
usemtl baseMaterial.001
f 31/1/1 32/2/1 33/3/1
s 1
f 19/4/2 17/5/3 38/5/4
s 0
f 39/6/5 40/7/5 41/3/5
f 42/8/1 43/9/1 44/3/1
s 1
f 11/10/6 9/11/7 38/5/4
f 29/12/8 27/13/9 38/5/4
f 3/14/10 2/15/11 38/5/4
s 0
f 45/16/5 46/17/5 47/3/5
s 1
f 21/18/12 19/4/2 38/5/4
s 0
f 48/2/13 49/19/13 50/3/13
f 51/7/1 52/20/1 53/3/1
s 1
f 13/21/14 11/10/6 38/5/4
f 34/22/15 29/12/8 38/5/4
s 0
f 54/9/16 55/23/16 56/3/16
f 57/17/17 58/24/17 59/3/17
s 1
f 5/25/18 3/14/10 38/5/4
f 23/26/19 21/18/12 38/5/4
s 0
f 60/19/1 61/27/1 62/3/1
f 63/20/20 64/28/20 65/3/20
s 1
f 15/29/21 13/21/14 38/5/4
f 36/30/11 34/22/15 38/5/4
s 0
f 66/23/5 67/31/5 68/3/5
f 69/24/22 70/32/22 71/3/22
s 1
f 7/33/23 5/25/18 38/5/4
f 25/34/24 23/26/19 38/5/4
s 0
f 72/27/16 73/3/16 44/3/16
s 1
f 17/5/3 15/29/21 38/5/4
s 0
f 74/31/1 75/1/1 76/3/1
f 77/32/25 78/6/25 79/3/25
s 1
f 9/11/7 7/33/23 38/5/4
f 27/13/9 25/34/24 38/5/4
s 0
f 80/3/1 81/16/1 82/3/1
s 1
f 1/8/26 2/15/11 3/14/10
f 1/8/26 3/14/10 4/9/27
f 4/9/27 3/14/10 5/25/18
f 4/9/27 5/25/18 6/23/28
f 6/23/28 5/25/18 7/33/23
f 6/23/28 7/33/23 8/31/29
f 8/31/29 7/33/23 9/11/7
f 8/31/29 9/11/7 10/1/30
f 10/1/30 9/11/7 11/10/6
f 10/1/30 11/10/6 12/2/31
f 12/2/31 11/10/6 13/21/14
f 12/2/31 13/21/14 14/19/32
f 14/19/32 13/21/14 15/29/21
f 14/19/32 15/29/21 16/27/33
f 16/27/33 15/29/21 17/5/3
f 16/27/33 17/5/3 18/3/34
f 18/3/34 17/5/3 19/4/2
f 18/3/34 19/4/2 20/16/35
f 20/16/35 19/4/2 21/18/12
f 20/16/35 21/18/12 22/17/36
f 22/17/36 21/18/12 23/26/19
f 22/17/36 23/26/19 24/24/37
f 24/24/37 23/26/19 25/34/24
f 24/24/37 25/34/24 26/32/38
f 26/32/38 25/34/24 27/13/9
f 26/32/38 27/13/9 28/6/39
f 28/6/39 27/13/9 29/12/8
f 28/6/39 29/12/8 30/7/40
f 30/7/40 29/12/8 34/22/15
f 30/7/40 34/22/15 35/20/41
f 35/20/41 34/22/15 36/30/11
f 35/20/41 36/30/11 37/28/42
s 0
f 83/35/43 84/36/43 85/37/43
f 83/35/43 85/37/43 86/38/43
f 87/38/44 88/37/44 89/19/44
f 87/38/44 89/19/44 90/17/44
f 91/17/45 92/19/45 93/39/45
f 91/17/45 93/39/45 94/40/45
f 95/40/46 96/39/46 97/21/46
f 95/40/47 97/21/47 98/18/47
f 99/7/48 100/17/48 101/40/48
f 99/7/49 101/40/49 102/41/49
f 103/39/45 104/19/45 105/19/45
f 103/39/45 105/19/45 106/39/45
f 107/21/50 108/39/50 109/39/50
f 107/21/51 109/39/51 110/21/51
f 111/37/43 112/36/43 113/36/43
f 111/37/43 113/36/43 114/37/43
f 115/21/52 116/39/52 117/39/52
f 115/21/52 117/39/52 118/21/52
f 119/19/53 120/37/53 121/37/53
f 119/19/53 121/37/53 122/19/53
f 123/19/54 124/23/54 125/42/54
f 123/19/55 125/42/55 126/39/55
f 127/19/56 128/37/56 129/37/56
f 127/19/57 129/37/57 130/19/57
f 131/39/45 132/19/45 133/19/45
f 131/39/45 133/19/45 134/39/45
f 135/37/43 136/36/43 137/36/43
f 135/37/43 137/36/43 138/37/43
