# Blender 4.4.1
# www.blender.org
mtllib Object_167.mtl
o Object_167.001
v 0.040659 0.069068 11.351404
v 0.026341 0.057576 11.360152
v 0.020020 0.060699 11.341020
v 0.029152 0.072880 11.327817
v -0.003098 0.063354 11.324242
v -0.003571 0.076638 11.304068
v 0.019937 0.087135 11.346323
v -0.003181 0.089790 11.329545
v 0.032221 0.087242 11.366476
v 0.026785 0.053952 11.382332
v 0.020464 0.057075 11.363198
v 0.041104 0.065444 11.373583
v 0.019937 0.087135 11.346323
v -0.003181 0.089790 11.329545
v -0.002736 0.086166 11.351725
v 0.020382 0.083511 11.368502
v 0.032221 0.087242 11.366476
v 0.019937 0.087135 11.346323
v 0.020382 0.083511 11.368502
v 0.032665 0.083618 11.388655
v -0.002654 0.059730 11.346421
v 0.032665 0.083618 11.388655
v -0.045873 0.068471 11.353039
v -0.035319 0.072435 11.329035
v -0.025527 0.060385 11.341880
v -0.031077 0.057180 11.361238
v -0.025609 0.086821 11.347183
v -0.037123 0.086763 11.367786
v -0.025083 0.056761 11.364059
v -0.030633 0.053556 11.383417
v -0.045429 0.064847 11.375218
v -0.025609 0.086821 11.347183
v -0.025165 0.083197 11.369363
v -0.002736 0.086166 11.351725
v -0.003181 0.089790 11.329545
v -0.037123 0.086763 11.367786
v -0.036678 0.083139 11.389965
v -0.025165 0.083197 11.369363
v -0.025609 0.086821 11.347183
v -0.036678 0.083139 11.389965
vn 0.9374 -0.1405 -0.3187
vn 0.3060 -0.9307 -0.2007
vn 0.2558 -0.9106 -0.3246
vn 0.7299 -0.0161 -0.6834
vn -0.0021 -0.8988 -0.4384
vn -0.0194 0.0774 -0.9968
vn 0.3170 0.9377 -0.1422
vn -0.0117 0.9633 -0.2680
vn 0.4401 0.8974 0.0297
vn 0.4539 -0.8779 -0.1525
vn 0.0014 -0.9869 -0.1613
vn 0.9576 -0.2805 -0.0650
vn -0.0038 0.9869 0.1613
vn -0.2716 0.9489 0.1605
vn -0.2715 0.9490 0.1605
vn 0.0038 -0.9869 -0.1613
vn 0.6633 0.7406 0.1077
vn -0.9467 -0.1535 -0.2831
vn -0.7549 -0.0264 -0.6553
vn -0.2553 -0.9141 -0.3149
vn -0.3004 -0.9348 -0.1892
vn -0.3350 0.9332 -0.1299
vn -0.4510 0.8913 0.0466
vn 0.0062 -0.9869 -0.1614
vn -0.4472 -0.8841 -0.1355
vn -0.9554 -0.2937 -0.0289
vn 0.2643 0.9526 0.1504
vn -0.6689 0.7314 0.1329
vt 0.500000 0.375000
vt 0.625000 0.375000
vt 0.625000 0.250000
vt 0.500000 0.250000
vt 0.625000 0.125000
vt 0.500000 0.125000
vt 0.375000 0.250000
vt 0.375000 0.125000
vt 0.375000 0.375000
s 1
usemtl DarkGlass.001
f 1/1/1 2/2/2 3/3/3
f 1/1/1 3/3/3 4/4/4
f 4/4/4 3/3/3 5/5/5
f 4/4/4 5/5/5 6/6/6
f 7/7/7 4/4/4 6/6/6
f 7/7/7 6/6/6 8/8/8
f 9/9/9 1/1/1 4/4/4
f 9/9/9 4/4/4 7/7/7
f 3/3/3 2/2/2 10/2/10
f 3/3/3 10/2/10 11/3/11
f 2/2/2 1/1/1 12/1/12
f 2/2/2 12/1/12 10/2/10
s 0
f 13/7/13 14/8/13 15/8/13
f 13/7/13 15/8/13 16/7/13
f 17/9/14 18/7/14 19/7/14
f 17/9/15 19/7/15 20/9/15
s 1
f 5/5/5 3/3/3 11/3/11
f 5/5/5 11/3/11 21/5/16
f 1/1/1 9/9/9 22/9/17
f 1/1/1 22/9/17 12/1/12
f 23/1/18 24/4/19 25/3/20
f 23/1/18 25/3/20 26/2/21
f 24/4/19 6/6/6 5/5/5
f 24/4/19 5/5/5 25/3/20
f 27/7/22 8/8/8 6/6/6
f 27/7/22 6/6/6 24/4/19
f 28/9/23 27/7/22 24/4/19
f 28/9/23 24/4/19 23/1/18
f 25/3/20 29/3/24 30/2/25
f 25/3/20 30/2/25 26/2/21
f 26/2/21 30/2/25 31/1/26
f 26/2/21 31/1/26 23/1/18
s 0
f 32/7/13 33/7/13 34/8/13
f 32/7/13 34/8/13 35/8/13
f 36/9/27 37/9/27 38/7/27
f 36/9/27 38/7/27 39/7/27
s 1
f 5/5/5 21/5/16 29/3/24
f 5/5/5 29/3/24 25/3/20
f 23/1/18 31/1/26 40/9/28
f 23/1/18 40/9/28 28/9/23
