# Blender 4.4.1
# www.blender.org
mtllib Object_108.mtl
o Object_108.001
v -0.479281 -0.185894 11.170890
v -0.485459 -0.182859 11.161267
v -0.483379 -0.177891 11.161498
v -0.477201 -0.180927 11.171122
v -0.492216 -0.175171 11.182577
v -0.477201 -0.180927 11.171122
v -0.483379 -0.177891 11.161498
v -0.498394 -0.172136 11.172954
v -0.498394 -0.172136 11.172954
v -0.483379 -0.177891 11.161498
v -0.485459 -0.182859 11.161267
v -0.500474 -0.177103 11.172723
v -0.500474 -0.177103 11.172723
v -0.494296 -0.180138 11.182345
v -0.497396 -0.178804 11.181591
v -0.500885 -0.177090 11.176156
v -0.494296 -0.180138 11.182345
v -0.479281 -0.185894 11.170890
v -0.477201 -0.180927 11.171122
v -0.492216 -0.175171 11.182577
v -0.485459 -0.182859 11.161267
v -0.479281 -0.185894 11.170890
v -0.500885 -0.177090 11.176156
v -0.497396 -0.178804 11.181591
v -0.495316 -0.173837 11.181822
v -0.498805 -0.172123 11.176388
v -0.498805 -0.172123 11.176388
v -0.495316 -0.173837 11.181822
v -0.498394 -0.172136 11.172954
v -0.500474 -0.177103 11.172723
v -0.500885 -0.177090 11.176156
v -0.498805 -0.172123 11.176388
v -0.494296 -0.180138 11.182345
v -0.492216 -0.175171 11.182577
v -0.495316 -0.173837 11.181822
v -0.497396 -0.178804 11.181591
vn 0.7605 -0.2914 -0.5802
vn 0.7605 -0.2916 -0.5802
vn 0.3859 0.9215 0.0429
vn 0.3860 0.9215 0.0429
vn -0.5222 0.2564 -0.8134
vn -0.5222 0.2565 -0.8133
vn -0.3861 -0.9215 -0.0429
vn -0.3857 -0.9216 -0.0429
vn 0.5221 -0.2566 0.8133
vn 0.5221 -0.2568 0.8133
vn -0.3860 -0.9215 -0.0429
vn -0.7605 0.2915 0.5802
vn 0.3859 0.9216 0.0428
vn -0.9148 0.3884 -0.1110
vn -0.9149 0.3883 -0.1109
vn -0.2178 0.0460 0.9749
vn -0.2175 0.0460 0.9750
vt 0.625000 0.500000
vt 0.875000 0.500000
vt 0.875000 0.250000
vt 0.625000 0.250000
vt 0.375000 0.250000
vt 0.625000 0.000000
vt 0.375000 0.000000
vt 0.375000 1.000000
vt 0.625000 1.000000
vt 0.625000 0.750000
vt 0.375000 0.750000
vt 0.375000 0.500000
vt 0.125000 0.500000
vt 0.125000 0.250000
s 0
usemtl baseMaterial.001
f 1/1/1 2/2/1 3/3/1
f 1/1/2 3/3/2 4/4/2
f 5/5/3 6/4/3 7/6/3
f 5/5/4 7/6/4 8/7/4
f 9/8/5 10/9/5 11/10/5
f 9/8/6 11/10/6 12/11/6
f 13/11/7 14/12/7 15/12/7
f 13/11/8 15/12/8 16/11/8
f 17/12/9 18/1/9 19/4/9
f 17/12/10 19/4/10 20/5/10
f 13/11/11 21/10/11 22/1/11
f 13/11/11 22/1/11 14/12/11
f 23/13/12 24/12/12 25/5/12
f 23/13/12 25/5/12 26/14/12
f 5/5/13 8/7/13 27/7/13
f 5/5/4 27/7/4 28/5/4
f 29/8/14 30/11/14 31/11/14
f 29/8/15 31/11/15 32/8/15
s 1
f 33/12/16 34/5/16 35/5/16
s 0
f 33/12/17 35/5/17 36/12/17
