# Blender 4.4.1
# www.blender.org
mtllib Object_120.mtl
o Object_120.001
v -0.547241 -0.209265 11.143309
v -0.543942 -0.214160 11.154247
v -0.536115 -0.202791 11.156973
v -0.539413 -0.197897 11.146034
v -0.515851 -0.211010 11.133062
v -0.539413 -0.197897 11.146034
v -0.536115 -0.202791 11.156973
v -0.512553 -0.215904 11.144001
v -0.512553 -0.215904 11.144001
v -0.536115 -0.202791 11.156973
v -0.543942 -0.214160 11.154247
v -0.520380 -0.227273 11.141275
v -0.520380 -0.227273 11.141275
v -0.523679 -0.222379 11.130337
v -0.515851 -0.211010 11.133062
v -0.512553 -0.215904 11.144001
v -0.523679 -0.222379 11.130337
v -0.547241 -0.209265 11.143309
v -0.539413 -0.197897 11.146034
v -0.515851 -0.211010 11.133062
v -0.520380 -0.227273 11.141275
v -0.543942 -0.214160 11.154247
v -0.547241 -0.209265 11.143309
v -0.523679 -0.222379 11.130337
vn -0.7874 0.4382 0.4335
vn 0.5564 0.8080 0.1937
vn 0.2654 -0.3937 0.8801
vn 0.7874 -0.4382 -0.4335
vn -0.2654 0.3937 -0.8801
vn -0.5564 -0.8080 -0.1937
vt 0.625000 0.500000
vt 0.875000 0.500000
vt 0.875000 0.250000
vt 0.625000 0.250000
vt 0.375000 0.250000
vt 0.625000 0.000000
vt 0.375000 0.000000
vt 0.375000 1.000000
vt 0.625000 1.000000
vt 0.625000 0.750000
vt 0.375000 0.750000
vt 0.125000 0.500000
vt 0.375000 0.500000
vt 0.125000 0.250000
s 0
usemtl baseMaterial.001
f 1/1/1 2/2/1 3/3/1
f 1/1/1 3/3/1 4/4/1
f 5/5/2 6/4/2 7/6/2
f 5/5/2 7/6/2 8/7/2
f 9/8/3 10/9/3 11/10/3
f 9/8/3 11/10/3 12/11/3
f 13/12/4 14/13/4 15/5/4
f 13/12/4 15/5/4 16/14/4
f 17/13/5 18/1/5 19/4/5
f 17/13/5 19/4/5 20/5/5
f 21/11/6 22/10/6 23/1/6
f 21/11/6 23/1/6 24/13/6
