# Blender 4.4.1
# www.blender.org
mtllib Object_60.mtl
o Object_60.001
v 0.005308 0.192499 10.910689
v 0.000433 0.202814 10.910056
v -0.023920 0.202662 10.910513
v -0.028639 0.192287 10.911325
v 0.000617 0.178516 10.911754
v 0.005308 0.192499 10.910689
v -0.028639 0.192287 10.911325
v -0.023737 0.178364 10.912210
vn 0.0183 0.0698 0.9974
vn 0.0183 0.0699 0.9974
vt 0.518563 0.750000
vt 0.625000 0.750000
vt 0.625000 0.500000
vt 0.518563 0.500000
vt 0.375000 0.750000
vt 0.375000 0.500000
s 0
usemtl blueScreen.001
f 1/1/1 2/2/1 3/3/1
f 1/1/2 3/3/2 4/4/2
f 5/5/2 6/1/2 7/4/2
f 5/5/1 7/4/1 8/6/1
