# Blender 4.4.1
# www.blender.org
mtllib Object_170.mtl
o Object_170.001
v -0.025495 0.096364 11.343132
v 0.019471 0.096659 11.342261
v 0.019657 0.093421 11.350756
v -0.025309 0.093126 11.351625
v 0.019831 0.093682 11.359841
v -0.025135 0.093387 11.360712
v 0.019967 0.097400 11.368137
v -0.024999 0.097105 11.369007
v 0.020044 0.104010 11.374379
v -0.024922 0.103715 11.375249
v 0.020051 0.112505 11.377617
v -0.024915 0.112210 11.378488
v 0.019987 0.121593 11.377357
v -0.024979 0.121298 11.378228
v 0.019860 0.129890 11.373641
v -0.025106 0.129595 11.374512
v 0.019692 0.136132 11.367033
v -0.025275 0.135837 11.367904
v 0.019506 0.139369 11.358540
v -0.025460 0.139074 11.359409
v 0.019332 0.139109 11.349453
v -0.025634 0.138814 11.350324
v 0.019196 0.135391 11.341158
v -0.025770 0.135096 11.342028
v 0.019118 0.128781 11.334916
v -0.025848 0.128486 11.335786
v 0.019111 0.120285 11.331678
v -0.025855 0.119990 11.332548
v 0.019176 0.111197 11.331937
v -0.025790 0.110902 11.332808
v -0.024922 0.103715 11.375249
v -0.024915 0.112210 11.378488
v -0.025385 0.116100 11.355517
v 0.019302 0.102901 11.335653
v -0.025664 0.102606 11.336524
v 0.019471 0.096659 11.342261
v -0.025495 0.096364 11.343132
v 0.019581 0.116395 11.354648
v -0.025855 0.119990 11.332548
v -0.025790 0.110902 11.332808
v -0.025385 0.116100 11.355517
v -0.025495 0.096364 11.343132
v -0.025309 0.093126 11.351625
v -0.025385 0.116100 11.355517
v -0.025460 0.139074 11.359409
v -0.025634 0.138814 11.350324
v -0.025385 0.116100 11.355517
v -0.024915 0.112210 11.378488
v -0.024979 0.121298 11.378228
v -0.025385 0.116100 11.355517
v -0.025790 0.110902 11.332808
v -0.025664 0.102606 11.336524
v -0.025385 0.116100 11.355517
v -0.025309 0.093126 11.351625
v -0.025135 0.093387 11.360712
v -0.025385 0.116100 11.355517
v -0.025634 0.138814 11.350324
v -0.025770 0.135096 11.342028
v -0.025385 0.116100 11.355517
v -0.024979 0.121298 11.378228
v -0.025106 0.129595 11.374512
v -0.025385 0.116100 11.355517
v -0.025664 0.102606 11.336524
v -0.025495 0.096364 11.343132
v -0.025385 0.116100 11.355517
v -0.025135 0.093387 11.360712
v -0.024999 0.097105 11.369007
v -0.025385 0.116100 11.355517
v -0.025770 0.135096 11.342028
v -0.025848 0.128486 11.335786
v -0.025385 0.116100 11.355517
v -0.025106 0.129595 11.374512
v -0.025275 0.135837 11.367904
v -0.024999 0.097105 11.369007
v -0.024922 0.103715 11.375249
v -0.025385 0.116100 11.355517
v -0.025848 0.128486 11.335786
v -0.025855 0.119990 11.332548
v -0.025385 0.116100 11.355517
v -0.025275 0.135837 11.367904
v -0.025460 0.139074 11.359409
v -0.001841 0.079824 11.351432
v -0.001572 0.072843 11.362562
v -0.012506 0.074612 11.363936
v -0.012775 0.081593 11.352806
v -0.012775 0.081593 11.352806
v -0.012506 0.074612 11.363936
v -0.021755 0.079801 11.367415
v -0.022024 0.086783 11.356285
v -0.022024 0.086783 11.356285
v -0.021755 0.079801 11.367415
v -0.027910 0.087620 11.372469
v -0.028180 0.094602 11.361339
v -0.028180 0.094602 11.361339
v -0.027910 0.087620 11.372469
v -0.030036 0.096879 11.378328
v -0.030305 0.103861 11.367198
v -0.030305 0.103861 11.367198
v -0.030036 0.096879 11.378328
v -0.027807 0.106168 11.384101
v -0.028076 0.113150 11.372971
v -0.028076 0.113150 11.372971
v -0.027807 0.106168 11.384101
v -0.021564 0.114073 11.388908
v -0.021833 0.121055 11.377778
v -0.021833 0.121055 11.377778
v -0.021564 0.114073 11.388908
v -0.012256 0.119390 11.392018
v -0.012526 0.126372 11.380888
v -0.012526 0.126372 11.380888
v -0.012256 0.119390 11.392018
v -0.001302 0.121311 11.392957
v -0.001571 0.128292 11.381826
v -0.001571 0.128292 11.381826
v -0.001302 0.121311 11.392957
v 0.009633 0.119541 11.391582
v 0.009363 0.126523 11.380452
v 0.009363 0.126523 11.380452
v 0.009633 0.119541 11.391582
v 0.018882 0.114352 11.388103
v 0.018612 0.121334 11.376973
v 0.018612 0.121334 11.376973
v 0.018882 0.114352 11.388103
v 0.025037 0.106533 11.383050
v 0.024768 0.113514 11.371920
v 0.024768 0.113514 11.371920
v 0.025037 0.106533 11.383050
v 0.027163 0.097274 11.377191
v 0.026893 0.104255 11.366060
v 0.026893 0.104255 11.366060
v 0.027163 0.097274 11.377191
v 0.024934 0.087985 11.371418
v 0.024664 0.094966 11.360288
v 0.024664 0.094966 11.360288
v 0.024934 0.087985 11.371418
v 0.018691 0.080080 11.366611
v 0.018421 0.087062 11.355481
v -0.030305 0.103861 11.367198
v -0.028076 0.113150 11.372971
v -0.001706 0.104058 11.366630
v 0.018421 0.087062 11.355481
v 0.018691 0.080080 11.366611
v 0.009383 0.074763 11.363502
v 0.009114 0.081744 11.352371
v 0.009114 0.081744 11.352371
v 0.009383 0.074763 11.363502
v -0.001572 0.072843 11.362562
v -0.001841 0.079824 11.351432
v 0.009633 0.119541 11.391582
v -0.001302 0.121311 11.392957
v -0.001437 0.097077 11.377760
v 0.024664 0.094966 11.360288
v 0.018421 0.087062 11.355481
v -0.001706 0.104058 11.366630
v -0.001841 0.079824 11.351432
v -0.012775 0.081593 11.352806
v -0.001706 0.104058 11.366630
v -0.027807 0.106168 11.384101
v -0.030036 0.096879 11.378328
v -0.001437 0.097077 11.377760
v 0.018691 0.080080 11.366611
v 0.024934 0.087985 11.371418
v -0.001437 0.097077 11.377760
v -0.012506 0.074612 11.363936
v -0.001572 0.072843 11.362562
v -0.001437 0.097077 11.377760
v 0.009363 0.126523 11.380452
v 0.018612 0.121334 11.376973
v -0.001706 0.104058 11.366630
v 0.018882 0.114352 11.388103
v 0.009633 0.119541 11.391582
v -0.001437 0.097077 11.377760
v -0.028076 0.113150 11.372971
v -0.021833 0.121055 11.377778
v -0.001706 0.104058 11.366630
v 0.018421 0.087062 11.355481
v 0.009114 0.081744 11.352371
v -0.001706 0.104058 11.366630
v -0.021564 0.114073 11.388908
v -0.027807 0.106168 11.384101
v -0.001437 0.097077 11.377760
v 0.009383 0.074763 11.363502
v 0.018691 0.080080 11.366611
v -0.001437 0.097077 11.377760
v -0.012775 0.081593 11.352806
v -0.022024 0.086783 11.356285
v -0.001706 0.104058 11.366630
v 0.018612 0.121334 11.376973
v 0.024768 0.113514 11.371920
v -0.001706 0.104058 11.366630
v -0.021755 0.079801 11.367415
v -0.012506 0.074612 11.363936
v -0.001437 0.097077 11.377760
v 0.025037 0.106533 11.383050
v 0.018882 0.114352 11.388103
v -0.001437 0.097077 11.377760
v -0.021833 0.121055 11.377778
v -0.012526 0.126372 11.380888
v -0.001706 0.104058 11.366630
v 0.009114 0.081744 11.352371
v -0.001841 0.079824 11.351432
v -0.001706 0.104058 11.366630
v -0.012256 0.119390 11.392018
v -0.021564 0.114073 11.388908
v -0.001437 0.097077 11.377760
v -0.001572 0.072843 11.362562
v 0.009383 0.074763 11.363502
v -0.001437 0.097077 11.377760
v -0.022024 0.086783 11.356285
v -0.028180 0.094602 11.361339
v -0.001706 0.104058 11.366630
v 0.024768 0.113514 11.371920
v 0.026893 0.104255 11.366060
v -0.001706 0.104058 11.366630
v -0.027910 0.087620 11.372469
v -0.021755 0.079801 11.367415
v -0.001437 0.097077 11.377760
v 0.027163 0.097274 11.377191
v 0.025037 0.106533 11.383050
v -0.001437 0.097077 11.377760
v -0.012526 0.126372 11.380888
v -0.001571 0.128292 11.381826
v -0.001706 0.104058 11.366630
v -0.001302 0.121311 11.392957
v -0.012256 0.119390 11.392018
v -0.001437 0.097077 11.377760
v -0.028180 0.094602 11.361339
v -0.030305 0.103861 11.367198
v -0.001706 0.104058 11.366630
v 0.026893 0.104255 11.366060
v 0.024664 0.094966 11.360288
v -0.001706 0.104058 11.366630
v -0.030036 0.096879 11.378328
v -0.027910 0.087620 11.372469
v -0.001437 0.097077 11.377760
v 0.024934 0.087985 11.371418
v 0.027163 0.097274 11.377191
v -0.001437 0.097077 11.377760
v -0.001571 0.128292 11.381826
v 0.009363 0.126523 11.380452
v -0.001706 0.104058 11.366630
vn -0.9998 -0.0066 0.0193
vn 0.6632 0.7401 0.1118
vn 0.6691 0.6364 0.3837
vn 0.9998 0.0066 -0.0193
vn 0.6806 -0.1201 0.7227
vn 0.6804 -0.3923 0.6190
vn 0.6526 -0.1621 -0.7402
vn 0.6506 0.1289 -0.7484
vn 0.6680 -0.7313 -0.1375
vn 0.6621 -0.6277 -0.4095
vn -0.9998 -0.0066 0.0194
vn 0.6576 0.7317 -0.1793
vn 0.6786 0.1708 0.7144
vn 0.6566 -0.4278 -0.6211
vn 0.6736 -0.7230 0.1534
vn 0.6532 0.6126 -0.4450
vn 0.6745 0.4365 0.5953
vn 0.6620 -0.6277 -0.4095
vn 0.6779 -0.6040 0.4191
vn 0.6508 0.4010 -0.6448
vn -0.0205 0.5313 -0.8470
vn 0.0205 -0.5313 0.8470
vn -0.0205 0.5312 -0.8470
vn 0.0205 -0.5312 0.8470
vn -0.0205 0.5311 -0.8470
vn 0.0205 -0.5313 0.8469
vn -0.0205 0.5314 -0.8469
vn -0.0205 0.5313 -0.8469
vn -0.0206 0.5313 -0.8470
vn 0.0206 -0.5312 0.8470
vn 0.0205 -0.5314 0.8469
vn -0.6692 -0.6364 -0.3837
vn -0.6632 -0.7400 -0.1117
vn -0.6576 -0.7317 0.1792
vn -0.6533 -0.6126 0.4449
vn -0.6508 -0.4009 0.6448
vn -0.6506 -0.1289 0.7484
vn -0.6526 0.1619 0.7402
vn -0.6567 0.4278 0.6211
vn -0.6621 0.6278 0.4093
vn -0.6680 0.7313 0.1376
vn -0.6736 0.7230 -0.1535
vn -0.6780 0.6039 -0.4191
vn -0.6804 0.3922 -0.6190
vn -0.6807 0.1201 -0.7227
vn -0.6786 -0.1708 -0.7144
vn -0.6746 -0.4363 -0.5954
vn -0.1997 -0.8322 -0.5172
vn -0.5594 -0.7082 -0.4307
vn -0.5594 -0.7083 -0.4307
vn -0.8339 -0.4764 -0.2786
vn -0.9815 -0.1721 -0.0842
vn -0.9815 -0.1720 -0.0842
vn -0.9796 0.1585 0.1232
vn -0.8286 0.4650 0.3117
vn -0.5515 0.7006 0.4528
vn -0.5516 0.7005 0.4528
vn -0.1904 0.8295 0.5250
vn -0.1904 0.8296 0.5249
vn 0.1997 0.8322 0.5172
vn 0.5594 0.7083 0.4307
vn 0.5594 0.7082 0.4307
vn 0.8339 0.4764 0.2786
vn 0.8340 0.4763 0.2786
vn 0.9815 0.1720 0.0842
vn 0.9815 0.1721 0.0842
vn 0.9796 -0.1585 -0.1232
vn 0.9797 -0.1585 -0.1232
vn 0.8287 -0.4649 -0.3117
vn 0.8286 -0.4650 -0.3117
vn 0.5515 -0.7006 -0.4528
vn 0.1904 -0.8295 -0.5250
vt 0.750000 0.500000
vt 0.687500 0.500000
vt 0.500000 0.500000
vt 0.437500 0.000000
vt 0.500000 0.000000
vt 0.187500 0.500000
vt 0.125000 0.500000
vt 1.000000 0.500000
vt 0.937500 0.500000
vt 0.687500 0.000000
vt 0.750000 0.000000
vt 0.125000 0.000000
vt 0.187500 0.000000
vt 0.937500 0.000000
vt 1.000000 0.000000
vt 0.437500 0.500000
vt 0.375000 0.500000
vt 0.375000 0.000000
vt 0.625000 0.500000
vt 0.062500 0.500000
vt 0.625000 0.000000
vt 0.062500 0.000000
vt 0.875000 0.500000
vt 0.312500 0.500000
vt 0.875000 0.000000
vt 0.312500 0.000000
vt 0.562500 0.500000
vt 0.000000 0.500000
vt 0.562500 0.000000
vt 0.000000 0.000000
vt 0.812500 0.500000
vt 0.250000 0.500000
vt 0.812500 0.000000
vt 0.250000 0.000000
s 0
usemtl baseMaterial.001
f 31/1/1 32/2/1 33/3/1
s 1
f 19/4/2 17/5/3 38/5/4
s 0
f 39/6/1 40/7/1 41/3/1
f 42/8/1 43/9/1 44/3/1
s 1
f 11/10/5 9/11/6 38/5/4
f 29/12/7 27/13/8 38/5/4
f 3/14/9 2/15/10 38/5/4
s 0
f 45/16/11 46/17/11 47/3/11
s 1
f 21/18/12 19/4/2 38/5/4
s 0
f 48/2/1 49/19/1 50/3/1
f 51/7/1 52/20/1 53/3/1
s 1
f 13/21/13 11/10/5 38/5/4
f 34/22/14 29/12/7 38/5/4
s 0
f 54/9/1 55/23/1 56/3/1
f 57/17/1 58/24/1 59/3/1
s 1
f 5/25/15 3/14/9 38/5/4
f 23/26/16 21/18/12 38/5/4
s 0
f 60/19/1 61/27/1 62/3/1
f 63/20/11 64/28/11 65/3/11
s 1
f 15/29/17 13/21/13 38/5/4
f 36/30/18 34/22/14 38/5/4
s 0
f 66/23/1 67/31/1 68/3/1
f 69/24/1 70/32/1 71/3/1
s 1
f 7/33/19 5/25/15 38/5/4
f 25/34/20 23/26/16 38/5/4
s 0
f 72/27/1 73/3/1 44/3/1
s 1
f 17/5/3 15/29/17 38/5/4
s 0
f 74/31/1 75/1/1 76/3/1
f 77/32/1 78/6/1 79/3/1
s 1
f 9/11/6 7/33/19 38/5/4
f 27/13/8 25/34/20 38/5/4
s 0
f 80/3/1 81/16/1 65/3/1
f 138/1/21 139/2/21 140/3/21
f 149/4/22 150/5/22 151/5/22
f 152/6/23 153/7/23 154/3/23
f 155/8/21 156/9/21 157/3/21
f 158/10/22 159/11/22 160/5/22
f 161/12/22 162/13/22 163/5/22
f 164/14/24 165/15/24 166/5/24
f 167/16/23 168/17/23 169/3/23
f 170/18/24 171/4/24 172/5/24
f 173/2/25 174/19/25 175/3/25
f 176/7/21 177/20/21 178/3/21
f 179/21/22 180/10/22 181/5/22
f 182/22/26 183/12/26 184/5/26
f 185/9/21 186/23/21 187/3/21
f 188/17/27 189/24/27 190/3/27
f 191/25/22 192/14/22 193/5/22
f 194/26/22 195/18/22 196/5/22
s 1
f 197/19/21 198/27/21 199/3/21
s 0
f 200/20/28 201/28/28 202/3/28
f 203/29/26 204/21/26 205/5/26
f 206/30/26 207/22/26 208/5/26
f 209/23/21 210/31/21 211/3/21
f 212/24/27 213/32/27 214/3/27
f 215/33/22 216/25/22 217/5/22
f 218/34/22 219/26/22 220/5/22
f 221/27/29 222/3/29 223/3/29
f 224/5/30 225/29/30 226/5/30
f 227/31/21 228/1/21 229/3/21
f 230/32/21 231/6/21 232/3/21
f 233/11/31 234/33/31 235/5/31
f 236/13/31 237/34/31 238/5/31
f 239/3/21 240/16/21 241/3/21
s 1
f 1/8/32 2/15/10 3/14/9
f 1/8/32 3/14/9 4/9/33
f 4/9/33 3/14/9 5/25/15
f 4/9/33 5/25/15 6/23/34
f 6/23/34 5/25/15 7/33/19
f 6/23/34 7/33/19 8/31/35
f 8/31/35 7/33/19 9/11/6
f 8/31/35 9/11/6 10/1/36
f 10/1/36 9/11/6 11/10/5
f 10/1/36 11/10/5 12/2/37
f 12/2/37 11/10/5 13/21/13
f 12/2/37 13/21/13 14/19/38
f 14/19/38 13/21/13 15/29/17
f 14/19/38 15/29/17 16/27/39
f 16/27/39 15/29/17 17/5/3
f 16/27/39 17/5/3 18/3/40
f 18/3/40 17/5/3 19/4/2
f 18/3/40 19/4/2 20/16/41
f 20/16/41 19/4/2 21/18/12
f 20/16/41 21/18/12 22/17/42
f 22/17/42 21/18/12 23/26/16
f 22/17/42 23/26/16 24/24/43
f 24/24/43 23/26/16 25/34/20
f 24/24/43 25/34/20 26/32/44
f 26/32/44 25/34/20 27/13/8
f 26/32/44 27/13/8 28/6/45
f 28/6/45 27/13/8 29/12/7
f 28/6/45 29/12/7 30/7/46
f 30/7/46 29/12/7 34/22/14
f 30/7/46 34/22/14 35/20/47
f 35/20/47 34/22/14 36/30/18
f 35/20/47 36/30/18 37/28/32
s 0
f 82/8/48 83/15/48 84/14/48
f 82/8/48 84/14/48 85/9/48
f 86/9/49 87/14/49 88/25/49
f 86/9/50 88/25/50 89/23/50
f 90/23/51 91/25/51 92/33/51
f 90/23/51 92/33/51 93/31/51
f 94/31/52 95/33/52 96/11/52
f 94/31/53 96/11/53 97/1/53
f 98/1/54 99/11/54 100/10/54
f 98/1/54 100/10/54 101/2/54
f 102/2/55 103/10/55 104/21/55
f 102/2/55 104/21/55 105/19/55
f 106/19/56 107/21/56 108/29/56
f 106/19/57 108/29/57 109/27/57
f 110/27/58 111/29/58 112/5/58
f 110/27/59 112/5/59 113/3/59
f 114/3/60 115/5/60 116/4/60
f 114/3/60 116/4/60 117/16/60
f 118/16/61 119/4/61 120/18/61
f 118/16/62 120/18/62 121/17/62
f 122/17/63 123/18/63 124/26/63
f 122/17/64 124/26/64 125/24/64
f 126/24/65 127/26/65 128/34/65
f 126/24/66 128/34/66 129/32/66
f 130/32/67 131/34/67 132/13/67
f 130/32/68 132/13/68 133/6/68
f 134/6/69 135/13/69 136/12/69
f 134/6/70 136/12/70 137/7/70
f 141/7/71 142/12/71 143/22/71
f 141/7/71 143/22/71 144/20/71
f 145/20/72 146/22/72 147/30/72
f 145/20/72 147/30/72 148/28/72
