# Blender 4.4.1
# www.blender.org
mtllib Object_62.mtl
o Object_62.001
v -0.324318 0.007421 11.501057
v -0.261890 -0.002592 11.476357
v -0.258403 -0.001320 11.484656
v -0.320831 0.008693 11.509356
v -0.254889 0.003262 11.491679
v -0.317317 0.013275 11.516378
v -0.251885 0.010456 11.496357
v -0.314313 0.020469 11.521056
v -0.249847 0.019167 11.497976
v -0.312274 0.029180 11.522676
v -0.249085 0.028069 11.496292
v -0.311513 0.038082 11.520991
v -0.249717 0.035806 11.491560
v -0.312144 0.045819 11.516259
v -0.251644 0.041201 11.484501
v -0.314072 0.051214 11.509200
v -0.254575 0.043433 11.476189
v -0.317003 0.053446 11.500888
v -0.258063 0.042161 11.467889
v -0.320490 0.052174 11.492589
v -0.261576 0.037579 11.460866
v -0.324004 0.047592 11.485565
v -0.264581 0.030385 11.456189
v -0.327008 0.040398 11.480888
v -0.266619 0.021674 11.454569
v -0.329047 0.031687 11.479268
v -0.267380 0.012772 11.456254
v -0.329808 0.022785 11.480953
v -0.266749 0.005034 11.460986
v -0.329177 0.015048 11.485685
v -0.312274 0.029180 11.522676
v -0.311513 0.038082 11.520991
v -0.320660 0.030433 11.500972
v -0.264821 -0.000361 11.468045
v -0.327249 0.009652 11.492744
v -0.261890 -0.002592 11.476357
v -0.324318 0.007421 11.501057
v -0.258233 0.020420 11.476273
v -0.329808 0.022785 11.480953
v -0.329177 0.015048 11.485685
v -0.320660 0.030433 11.500972
v -0.324318 0.007421 11.501057
v -0.320831 0.008693 11.509356
v -0.320660 0.030433 11.500972
v -0.320490 0.052174 11.492589
v -0.324004 0.047592 11.485565
v -0.320660 0.030433 11.500972
v -0.311513 0.038082 11.520991
v -0.312144 0.045819 11.516259
v -0.320660 0.030433 11.500972
v -0.329177 0.015048 11.485685
v -0.327249 0.009652 11.492744
v -0.320660 0.030433 11.500972
v -0.320831 0.008693 11.509356
v -0.317317 0.013275 11.516378
v -0.320660 0.030433 11.500972
v -0.324004 0.047592 11.485565
v -0.327008 0.040398 11.480888
v -0.320660 0.030433 11.500972
v -0.312144 0.045819 11.516259
v -0.314072 0.051214 11.509200
v -0.320660 0.030433 11.500972
v -0.327249 0.009652 11.492744
v -0.324318 0.007421 11.501057
v -0.320660 0.030433 11.500972
v -0.317317 0.013275 11.516378
v -0.314313 0.020469 11.521056
v -0.320660 0.030433 11.500972
v -0.327008 0.040398 11.480888
v -0.329047 0.031687 11.479268
v -0.320660 0.030433 11.500972
v -0.314072 0.051214 11.509200
v -0.317003 0.053446 11.500888
v -0.314313 0.020469 11.521056
v -0.312274 0.029180 11.522676
v -0.320660 0.030433 11.500972
v -0.329047 0.031687 11.479268
v -0.329808 0.022785 11.480953
v -0.320660 0.030433 11.500972
v -0.317003 0.053446 11.500888
v -0.320490 0.052174 11.492589
v -0.320660 0.030433 11.500972
v -0.332428 0.049660 11.527384
v -0.338176 0.005361 11.531516
v -0.362377 0.002742 11.471410
v -0.354162 0.046167 11.474109
v -0.338176 0.005361 11.531516
v -0.342464 -0.038369 11.538199
v -0.367863 -0.039476 11.474454
v -0.362377 0.002742 11.471410
v -0.260264 0.040683 11.473319
v -0.262374 0.018664 11.469257
v -0.251064 0.016973 11.498528
v -0.251541 0.039455 11.495996
v -0.262374 0.018664 11.469257
v -0.264970 -0.002578 11.476130
v -0.253102 -0.004352 11.506846
v -0.251064 0.016973 11.498528
v -0.281094 0.020793 11.448260
v -0.270043 0.019607 11.456555
v -0.267827 0.041429 11.460671
v -0.278781 0.042339 11.452382
v -0.284278 0.000104 11.453371
v -0.272985 -0.001411 11.462452
v -0.270043 0.019607 11.456555
v -0.281094 0.020793 11.448260
v -0.315430 0.046911 11.520652
v -0.337163 0.043418 11.467378
v -0.345378 -0.000007 11.464678
v -0.321177 0.002612 11.524785
v -0.321177 0.002612 11.524785
v -0.345378 -0.000007 11.464678
v -0.350864 -0.042225 11.467723
v -0.325466 -0.041118 11.531468
v -0.367863 -0.039476 11.474454
v -0.342464 -0.038369 11.538199
v -0.325466 -0.041118 11.531468
v -0.350864 -0.042225 11.467723
v -0.342464 -0.038369 11.538199
v -0.338176 0.005361 11.531516
v -0.321177 0.002612 11.524785
v -0.325466 -0.041118 11.531468
v -0.354162 0.046167 11.474109
v -0.362377 0.002742 11.471410
v -0.345378 -0.000007 11.464678
v -0.337163 0.043418 11.467378
v -0.332428 0.049660 11.527384
v -0.354162 0.046167 11.474109
v -0.337163 0.043418 11.467378
v -0.315430 0.046911 11.520652
v -0.362377 0.002742 11.471410
v -0.367863 -0.039476 11.474454
v -0.350864 -0.042225 11.467723
v -0.345378 -0.000007 11.464678
v -0.338176 0.005361 11.531516
v -0.332428 0.049660 11.527384
v -0.315430 0.046911 11.520652
v -0.321177 0.002612 11.524785
v -0.260264 0.040683 11.473319
v -0.267827 0.041429 11.460671
v -0.270043 0.019607 11.456555
v -0.262374 0.018664 11.469257
v -0.262374 0.018664 11.469257
v -0.270043 0.019607 11.456555
v -0.272985 -0.001411 11.462452
v -0.264970 -0.002578 11.476130
v -0.282968 0.044271 11.481488
v -0.274201 0.043036 11.504148
v -0.276330 0.020972 11.507711
v -0.287640 0.022662 11.478440
v -0.287640 0.022662 11.478440
v -0.276330 0.020972 11.507711
v -0.276754 -0.000612 11.515390
v -0.288622 0.001161 11.484674
v -0.297264 0.023332 11.453844
v -0.292605 0.044503 11.457038
v -0.288266 0.044653 11.467944
v -0.292945 0.023226 11.464803
v -0.298851 0.002387 11.458323
v -0.297264 0.023332 11.453844
v -0.292945 0.023226 11.464803
v -0.294277 0.001950 11.470062
v -0.282968 0.044271 11.481488
v -0.287640 0.022662 11.478440
v -0.292945 0.023226 11.464803
v -0.288266 0.044653 11.467944
v -0.287640 0.022662 11.478440
v -0.288622 0.001161 11.484674
v -0.294277 0.001950 11.470062
v -0.292945 0.023226 11.464803
v -0.264970 -0.002578 11.476130
v -0.272985 -0.001411 11.462452
v -0.294277 0.001950 11.470062
v -0.288622 0.001161 11.484674
v -0.253102 -0.004352 11.506846
v -0.264970 -0.002578 11.476130
v -0.288622 0.001161 11.484674
v -0.276754 -0.000612 11.515390
v -0.251064 0.016973 11.498528
v -0.253102 -0.004352 11.506846
v -0.276754 -0.000612 11.515390
v -0.276330 0.020972 11.507711
v -0.272985 -0.001411 11.462452
v -0.284278 0.000104 11.453371
v -0.298851 0.002387 11.458323
v -0.294277 0.001950 11.470062
v -0.260264 0.040683 11.473319
v -0.251541 0.039455 11.495996
v -0.274201 0.043036 11.504148
v -0.282968 0.044271 11.481488
v -0.278781 0.042339 11.452382
v -0.267827 0.041429 11.460671
v -0.288266 0.044653 11.467944
v -0.292605 0.044503 11.457038
v -0.281094 0.020793 11.448260
v -0.278781 0.042339 11.452382
v -0.292605 0.044503 11.457038
v -0.297264 0.023332 11.453844
v -0.267827 0.041429 11.460671
v -0.260264 0.040683 11.473319
v -0.282968 0.044271 11.481488
v -0.288266 0.044653 11.467944
v -0.251541 0.039455 11.495996
v -0.251064 0.016973 11.498528
v -0.276330 0.020972 11.507711
v -0.274201 0.043036 11.504148
v -0.284278 0.000104 11.453371
v -0.281094 0.020793 11.448260
v -0.297264 0.023332 11.453844
v -0.298851 0.002387 11.458323
vn -0.9197 0.1474 0.3639
vn 0.6177 0.5980 -0.5107
vn 0.7294 0.6388 -0.2449
vn 0.9197 -0.1475 -0.3639
vn -0.9197 0.1475 0.3639
vn 0.9052 0.1468 0.3988
vn 0.8808 -0.1383 0.4528
vn 0.3396 -0.5910 -0.7317
vn 0.3193 -0.3432 -0.8833
vn 0.6068 -0.7944 0.0262
vn 0.4951 -0.8351 -0.2395
vn -0.9197 0.1475 0.3638
vn 0.5052 0.4513 -0.7356
vn -0.9197 0.1476 0.3639
vn 0.8850 0.3946 0.2473
vn 0.4013 -0.7637 -0.5057
vn 0.7193 -0.6477 0.2511
vn 0.4090 0.2209 -0.8854
vn 0.8232 0.5673 0.0212
vn 0.4952 -0.8352 -0.2394
vn 0.8155 -0.4173 0.4009
vn 0.3437 -0.0581 -0.9373
vn -0.9197 0.1477 0.3639
vn -0.7294 -0.6387 0.2450
vn -0.6169 -0.5990 0.5106
vn -0.5041 -0.4520 0.7359
vn -0.4079 -0.2216 0.8857
vn -0.3424 0.0578 0.9378
vn -0.3180 0.3430 0.8838
vn -0.3382 0.5913 0.7321
vn -0.4001 0.7643 0.5057
vn -0.4941 0.8359 0.2391
vn -0.6059 0.7951 -0.0269
vn -0.7185 0.6482 -0.2521
vn -0.8150 0.4173 -0.4022
vn -0.8802 0.1382 -0.4540
vn -0.9046 -0.1470 -0.4000
vn -0.8844 -0.3952 -0.2483
vn -0.8226 -0.5682 -0.0219
vn -0.7294 -0.6387 0.2449
vn 0.9189 -0.1524 -0.3639
vn 0.9189 -0.1525 -0.3638
vn 0.9188 -0.1520 -0.3642
vn 0.9188 -0.1517 -0.3644
vn 0.9199 -0.1459 -0.3640
vn 0.9199 -0.1458 -0.3640
vn -0.9324 0.0219 0.3609
vn -0.9323 0.0221 0.3611
vn -0.9324 0.0216 0.3607
vn -0.9325 0.0214 0.3605
vn -0.9038 0.2277 0.3624
vn -0.9038 0.2278 0.3624
vn -0.6049 -0.0871 0.7915
vn -0.6047 -0.0874 0.7916
vn -0.6048 -0.0873 0.7916
vn -0.6050 -0.0871 0.7914
vn -0.5662 0.2875 0.7725
vn -0.5679 0.2894 0.7705
vn -0.5660 0.2867 0.7729
vn -0.5643 0.2847 0.7749
vn -0.9189 0.1524 0.3639
vn -0.9188 0.1517 0.3644
vn -0.9188 0.1520 0.3642
vn -0.9189 0.1526 0.3637
vn -0.9199 0.1458 0.3640
vn -0.9199 0.1459 0.3640
vn 0.1322 0.9888 -0.0699
vn -0.3806 -0.1031 -0.9190
vn 0.3480 -0.1236 0.9293
vn -0.1154 -0.9870 0.1118
vn 0.3707 0.0187 0.9286
vn 0.3708 0.0188 0.9285
vn -0.3733 -0.0381 -0.9269
vn -0.3732 -0.0381 -0.9270
vn -0.8576 -0.0112 0.5143
vn -0.8578 -0.0108 0.5139
vn -0.8572 -0.0118 0.5149
vn -0.8571 -0.0119 0.5150
vn -0.8202 0.2610 0.5090
vn -0.8197 0.2603 0.5102
vn -0.8206 0.2615 0.5082
vn -0.8210 0.2621 0.5072
vn 0.1539 0.9881 -0.0059
vn 0.1540 0.9881 -0.0063
vn 0.1552 0.9879 -0.0029
vn 0.1551 0.9879 -0.0029
vn -0.3667 -0.3065 -0.8784
vn -0.3672 -0.3063 -0.8783
vn -0.3671 -0.3061 -0.8784
vn -0.3664 -0.3065 -0.8785
vn 0.1484 0.9887 -0.0202
vn 0.1485 0.9887 -0.0205
vn 0.1485 0.9887 -0.0206
vn 0.1484 0.9887 -0.0204
vn -0.1541 -0.9880 0.0057
vn -0.1324 -0.9890 0.0663
vn 0.2853 -0.2074 0.9357
vn 0.2887 -0.2072 0.9347
vn 0.2886 -0.2066 0.9349
vn 0.2852 -0.2068 0.9359
vn -0.1459 -0.9889 0.0290
vn -0.1456 -0.9889 0.0291
vn -0.3542 -0.1135 -0.9282
vn -0.3531 -0.1140 -0.9286
vn -0.3537 -0.1142 -0.9284
vn -0.3546 -0.1139 -0.9281
vn 0.3446 0.1734 0.9226
vn 0.3424 0.1735 0.9234
vn 0.3426 0.1730 0.9234
vn 0.3447 0.1730 0.9226
vt 0.750000 0.500000
vt 0.687500 0.500000
vt 0.500000 0.500000
vt 0.437500 0.000000
vt 0.500000 0.000000
vt 0.187500 0.500000
vt 0.125000 0.500000
vt 1.000000 0.500000
vt 0.937500 0.500000
vt 0.687500 0.000000
vt 0.750000 0.000000
vt 0.125000 0.000000
vt 0.187500 0.000000
vt 0.937500 0.000000
vt 1.000000 0.000000
vt 0.437500 0.500000
vt 0.375000 0.500000
vt 0.375000 0.000000
vt 0.625000 0.500000
vt 0.062500 0.500000
vt 0.625000 0.000000
vt 0.062500 0.000000
vt 0.875000 0.500000
vt 0.312500 0.500000
vt 0.875000 0.000000
vt 0.312500 0.000000
vt 0.562500 0.500000
vt 0.000000 0.500000
vt 0.562500 0.000000
vt 0.000000 0.000000
vt 0.812500 0.500000
vt 0.250000 0.500000
vt 0.812500 0.000000
vt 0.250000 0.000000
vt 0.875000 0.340593
vt 0.875000 0.371875
vt 0.625000 0.371875
vt 0.625000 0.340593
vt 0.875000 0.403189
vt 0.625000 0.403189
vt 0.222222 0.337708
vt 0.226326 0.371875
vt 0.125000 0.371875
vt 0.125000 0.337633
vt 0.222214 0.406051
vt 0.125000 0.406122
vt 0.390185 0.371843
vt 0.289052 0.371867
vt 0.282414 0.337681
vt 0.379483 0.337548
vt 0.379475 0.406156
vt 0.282402 0.406064
s 0
usemtl baseMaterial.001
f 31/1/1 32/2/1 33/3/1
s 1
f 19/4/2 17/5/3 38/5/4
s 0
f 39/6/5 40/7/5 41/3/5
f 42/8/5 43/9/5 44/3/5
s 1
f 11/10/6 9/11/7 38/5/4
f 29/12/8 27/13/9 38/5/4
f 3/14/10 2/15/11 38/5/4
s 0
f 45/16/12 46/17/12 47/3/12
s 1
f 21/18/13 19/4/2 38/5/4
s 0
f 48/2/5 49/19/5 50/3/5
f 51/7/14 52/20/14 53/3/14
s 1
f 13/21/15 11/10/6 38/5/4
f 34/22/16 29/12/8 38/5/4
s 0
f 54/9/5 55/23/5 56/3/5
f 57/17/5 58/24/5 59/3/5
s 1
f 5/25/17 3/14/10 38/5/4
f 23/26/18 21/18/13 38/5/4
s 0
f 60/19/5 61/27/5 62/3/5
f 63/20/5 64/28/5 65/3/5
s 1
f 15/29/19 13/21/15 38/5/4
f 36/30/20 34/22/16 38/5/4
s 0
f 66/23/1 67/31/1 68/3/1
f 69/24/5 70/32/5 71/3/5
s 1
f 7/33/21 5/25/17 38/5/4
f 25/34/22 23/26/18 38/5/4
s 0
f 72/27/5 73/3/5 44/3/5
s 1
f 17/5/3 15/29/19 38/5/4
s 0
f 74/31/5 75/1/5 76/3/5
f 77/32/23 78/6/23 79/3/23
s 1
f 9/11/7 7/33/21 38/5/4
f 27/13/9 25/34/22 38/5/4
s 0
f 80/3/5 81/16/5 82/3/5
s 1
f 1/8/24 2/15/11 3/14/10
f 1/8/24 3/14/10 4/9/25
f 4/9/25 3/14/10 5/25/17
f 4/9/25 5/25/17 6/23/26
f 6/23/26 5/25/17 7/33/21
f 6/23/26 7/33/21 8/31/27
f 8/31/27 7/33/21 9/11/7
f 8/31/27 9/11/7 10/1/28
f 10/1/28 9/11/7 11/10/6
f 10/1/28 11/10/6 12/2/29
f 12/2/29 11/10/6 13/21/15
f 12/2/29 13/21/15 14/19/30
f 14/19/30 13/21/15 15/29/19
f 14/19/30 15/29/19 16/27/31
f 16/27/31 15/29/19 17/5/3
f 16/27/31 17/5/3 18/3/32
f 18/3/32 17/5/3 19/4/2
f 18/3/32 19/4/2 20/16/33
f 20/16/33 19/4/2 21/18/13
f 20/16/33 21/18/13 22/17/34
f 22/17/34 21/18/13 23/26/18
f 22/17/34 23/26/18 24/24/35
f 24/24/35 23/26/18 25/34/22
f 24/24/35 25/34/22 26/32/36
f 26/32/36 25/34/22 27/13/9
f 26/32/36 27/13/9 28/6/37
f 28/6/37 27/13/9 29/12/8
f 28/6/37 29/12/8 30/7/38
f 30/7/38 29/12/8 34/22/16
f 30/7/38 34/22/16 35/20/39
f 35/20/39 34/22/16 36/30/20
f 35/20/39 36/30/20 37/28/40
f 83/35/41 84/36/42 85/37/43
f 83/35/41 85/37/43 86/38/44
s 0
f 87/36/45 88/39/45 89/40/45
f 87/36/46 89/40/46 90/37/46
s 1
f 91/41/47 92/42/48 93/43/49
f 91/41/47 93/43/49 94/44/50
s 0
f 95/42/51 96/45/51 97/46/51
f 95/42/52 97/46/52 98/43/52
s 1
f 99/47/53 100/48/54 101/49/55
f 99/47/53 101/49/55 102/50/56
f 103/51/57 104/52/58 105/48/59
f 103/51/57 105/48/59 106/47/60
f 107/35/61 108/38/62 109/37/63
f 107/35/61 109/37/63 110/36/64
s 0
f 111/36/65 112/37/65 113/40/65
f 111/36/66 113/40/66 114/39/66
f 115/40/67 116/39/67 117/39/67
f 115/40/67 117/39/67 118/40/67
f 119/39/68 120/36/68 121/36/68
f 119/39/68 121/36/68 122/39/68
f 123/38/69 124/37/69 125/37/69
f 123/38/69 125/37/69 126/38/69
f 127/35/70 128/38/70 129/38/70
f 127/35/70 129/38/70 130/35/70
f 131/37/71 132/40/71 133/40/71
f 131/37/72 133/40/72 134/37/72
f 135/36/73 136/35/73 137/35/73
f 135/36/74 137/35/74 138/36/74
s 1
f 139/41/75 140/49/76 141/48/77
f 139/41/75 141/48/77 142/42/78
f 143/42/79 144/48/80 145/52/81
f 143/42/79 145/52/81 146/45/82
s 0
f 147/41/4 148/44/4 149/43/4
f 147/41/4 149/43/4 150/42/4
f 151/42/4 152/43/4 153/46/4
f 151/42/4 153/46/4 154/45/4
f 155/47/4 156/50/4 157/49/4
f 155/47/4 157/49/4 158/48/4
f 159/51/4 160/47/4 161/48/4
f 159/51/4 161/48/4 162/52/4
f 163/41/4 164/42/4 165/48/4
f 163/41/4 165/48/4 166/49/4
f 167/42/4 168/45/4 169/52/4
f 167/42/4 169/52/4 170/48/4
f 171/45/83 172/52/83 173/52/83
f 171/45/84 173/52/84 174/45/84
f 175/46/85 176/45/85 177/45/85
f 175/46/86 177/45/86 178/46/86
s 1
f 179/43/87 180/46/88 181/46/89
f 179/43/87 181/46/89 182/43/90
f 183/52/91 184/51/92 185/51/93
f 183/52/91 185/51/93 186/52/94
s 0
f 187/41/95 188/44/95 189/44/95
f 187/41/95 189/44/95 190/41/95
f 191/50/96 192/49/96 193/49/96
f 191/50/96 193/49/96 194/50/96
s 1
f 195/47/97 196/50/98 197/50/99
f 195/47/97 197/50/99 198/47/100
s 0
f 199/49/101 200/41/101 201/41/101
f 199/49/102 201/41/102 202/49/102
s 1
f 203/44/103 204/43/104 205/43/105
f 203/44/103 205/43/105 206/44/106
f 207/51/107 208/47/108 209/47/109
f 207/51/107 209/47/109 210/51/110
