# Blender 4.4.1
# www.blender.org
mtllib Object_188.mtl
o Object_188.001
v 0.091809 -0.203061 11.514059
v 0.082437 -0.210874 11.500906
v 0.088981 -0.213226 11.474662
v 0.099259 -0.206345 11.485102
v 0.160505 -0.181877 11.529299
v 0.160059 -0.180370 11.529045
v 0.176332 -0.179656 11.521523
v 0.176685 -0.181068 11.522055
v 0.156840 -0.266806 11.314414
v 0.153431 -0.253437 11.309693
v 0.137200 -0.254192 11.317093
v 0.140515 -0.267466 11.322091
v 0.091093 -0.221679 11.477844
v 0.088981 -0.213226 11.474662
v 0.082437 -0.210874 11.500906
v 0.082789 -0.212286 11.501438
v 0.176685 -0.181068 11.522055
v 0.176332 -0.179656 11.521523
v 0.182877 -0.182008 11.495278
v 0.184988 -0.190461 11.498462
v 0.143575 -0.242500 11.338022
v 0.128362 -0.244304 11.342368
v 0.137200 -0.254192 11.317093
v 0.153431 -0.253437 11.309693
v 0.217088 -0.240452 11.360297
v 0.227377 -0.233582 11.370703
v 0.234410 -0.236248 11.342709
v 0.225090 -0.244114 11.329400
v 0.227377 -0.233582 11.370703
v 0.222258 -0.213086 11.362985
v 0.231095 -0.222974 11.337710
v 0.234410 -0.236248 11.342709
v 0.160505 -0.181877 11.529299
v 0.176685 -0.181068 11.522055
v 0.184988 -0.190461 11.498462
v 0.169763 -0.192252 11.502846
v 0.211825 -0.219808 11.353008
v 0.222258 -0.213086 11.362985
v 0.208825 -0.199796 11.404036
v 0.196791 -0.204871 11.398857
v 0.194411 -0.188421 11.452458
v 0.180571 -0.191637 11.452692
v 0.182877 -0.182008 11.495278
v 0.167509 -0.183653 11.500088
v 0.148838 -0.263144 11.345311
v 0.133482 -0.264800 11.350086
v 0.121709 -0.258152 11.393638
v 0.135509 -0.254895 11.393522
v 0.135509 -0.254895 11.393522
v 0.121709 -0.258152 11.393638
v 0.107278 -0.246710 11.442035
v 0.119272 -0.241595 11.447333
v 0.119272 -0.241595 11.447333
v 0.107278 -0.246710 11.442035
v 0.091093 -0.221679 11.477844
v 0.101512 -0.214944 11.487859
v 0.222258 -0.213086 11.362985
v 0.227377 -0.233582 11.370703
v 0.215604 -0.226934 11.414254
v 0.208825 -0.199796 11.404036
v 0.208825 -0.199796 11.404036
v 0.215604 -0.226934 11.414254
v 0.201173 -0.215492 11.462652
v 0.194411 -0.188421 11.452458
v 0.194411 -0.188421 11.452458
v 0.201173 -0.215492 11.462652
v 0.184988 -0.190461 11.498462
v 0.182877 -0.182008 11.495278
v 0.088981 -0.213226 11.474662
v 0.091093 -0.221679 11.477844
v 0.107278 -0.246710 11.442035
v 0.100516 -0.219639 11.431841
v 0.100516 -0.219639 11.431841
v 0.107278 -0.246710 11.442035
v 0.121709 -0.258152 11.393638
v 0.114930 -0.231014 11.383418
v 0.114930 -0.231014 11.383418
v 0.121709 -0.258152 11.393638
v 0.133482 -0.264800 11.350086
v 0.128362 -0.244304 11.342368
v 0.140515 -0.267466 11.322091
v 0.137200 -0.254192 11.317093
v 0.128362 -0.244304 11.342368
v 0.133482 -0.264800 11.350086
v 0.201173 -0.215492 11.462652
v 0.187522 -0.218903 11.462319
v 0.169763 -0.192252 11.502846
v 0.184988 -0.190461 11.498462
v 0.187522 -0.218903 11.462319
v 0.119272 -0.241595 11.447333
v 0.101512 -0.214944 11.487859
v 0.169763 -0.192252 11.502846
v 0.215604 -0.226934 11.414254
v 0.203760 -0.232204 11.408508
v 0.187522 -0.218903 11.462319
v 0.201173 -0.215492 11.462652
v 0.203760 -0.232204 11.408508
v 0.135509 -0.254895 11.393522
v 0.119272 -0.241595 11.447333
v 0.187522 -0.218903 11.462319
v 0.227377 -0.233582 11.370703
v 0.217088 -0.240452 11.360297
v 0.203760 -0.232204 11.408508
v 0.215604 -0.226934 11.414254
v 0.217088 -0.240452 11.360297
v 0.148838 -0.263144 11.345311
v 0.135509 -0.254895 11.393522
v 0.203760 -0.232204 11.408508
v 0.100516 -0.219639 11.431841
v 0.112320 -0.214329 11.437706
v 0.114930 -0.231014 11.383418
v 0.128541 -0.227562 11.383871
v 0.082789 -0.212286 11.501438
v 0.092254 -0.204569 11.514313
v 0.101512 -0.214944 11.487859
v 0.091093 -0.221679 11.477844
v 0.092254 -0.204569 11.514313
v 0.160505 -0.181877 11.529299
v 0.169763 -0.192252 11.502846
v 0.101512 -0.214944 11.487859
v 0.133482 -0.264800 11.350086
v 0.148838 -0.263144 11.345311
v 0.156840 -0.266806 11.314414
v 0.140515 -0.267466 11.322091
v 0.148838 -0.263144 11.345311
v 0.217088 -0.240452 11.360297
v 0.225090 -0.244114 11.329400
v 0.156840 -0.266806 11.314414
v 0.221682 -0.230745 11.324679
v 0.231095 -0.222974 11.337710
v 0.234410 -0.236248 11.342709
v 0.231095 -0.222974 11.337710
v 0.221682 -0.230745 11.324679
v 0.225090 -0.244114 11.329400
v 0.225090 -0.244114 11.329400
v 0.221682 -0.230745 11.324679
v 0.153431 -0.253437 11.309693
v 0.156840 -0.266806 11.314414
v 0.082789 -0.212286 11.501438
v 0.082437 -0.210874 11.500906
v 0.091809 -0.203061 11.514059
v 0.092254 -0.204569 11.514313
v 0.092254 -0.204569 11.514313
v 0.091809 -0.203061 11.514059
v 0.160059 -0.180370 11.529045
v 0.160505 -0.181877 11.529299
v 0.176332 -0.179656 11.521523
v 0.160059 -0.180370 11.529045
vn 0.6078 -0.6140 -0.5036
vn 0.9434 -0.3293 -0.0402
vn 0.8654 -0.4099 0.2881
vn 0.3315 -0.9203 0.2077
vn -0.3771 -0.3353 -0.8633
vn -0.3771 -0.3354 -0.8633
vn -0.3772 -0.3349 -0.8635
vn -0.3772 -0.3348 -0.8635
vn 0.3709 0.3995 0.8384
vn 0.3709 0.3996 0.8383
vn 0.3709 0.3995 0.8383
vn 0.3709 0.3994 0.8384
vn 0.9290 0.3089 0.2040
vn 0.9290 0.3088 0.2040
vn -0.9290 -0.3086 -0.2040
vn -0.9290 -0.3088 -0.2040
vn 0.2180 -0.8919 0.3963
vn 0.8053 -0.4227 0.4157
vn 0.6945 -0.2260 0.6831
vn 0.1656 -0.2793 0.9458
vn -0.4201 0.8846 -0.2023
vn -0.4202 0.8846 -0.2023
vn -0.9290 -0.3089 -0.2040
vn -0.2303 0.8747 -0.4264
vn -0.2303 0.8748 -0.4263
vn -0.2302 0.8748 -0.4263
vn 0.2033 -0.8968 0.3930
vn -0.4996 -0.8566 0.1291
vn -0.4813 -0.8717 0.0916
vn 0.2315 -0.9136 0.3344
vn -0.4821 -0.8752 0.0413
vn 0.2330 -0.9386 0.2545
vn -0.5022 -0.8647 -0.0121
vn 0.2087 -0.9611 0.1807
vn -0.1965 0.9579 -0.2092
vn -0.1965 0.9579 -0.2093
vn -0.2406 0.9244 -0.2960
vn -0.0415 0.8187 -0.5728
vn -0.0416 0.8187 -0.5728
vn -0.0415 0.8187 -0.5727
vn 0.9289 0.3090 0.2040
vn -0.2225 0.7585 -0.6125
vn -0.2226 0.7585 -0.6125
vn -0.1371 0.7990 -0.5855
vn -0.2437 0.9234 -0.2966
vn -0.2436 0.9234 -0.2966
vn -0.2408 0.9228 -0.3007
vn -0.2408 0.9228 -0.3008
vn -0.3277 0.9143 -0.2381
vn -0.3278 0.9143 -0.2381
vn -0.3277 0.9143 -0.2380
vn -0.2606 0.9371 -0.2324
vn -0.2605 0.9371 -0.2323
vn 0.8365 -0.4368 0.3309
vn 0.2730 -0.9253 0.2633
vn 0.8150 -0.4407 0.3762
vn 0.2294 -0.9143 0.3339
vn -0.1732 0.8938 -0.4137
vn -0.1733 0.8937 -0.4138
vn -0.2026 0.8855 -0.4182
vn -0.1260 0.9824 -0.1377
vn -0.1259 0.9824 -0.1377
vn -0.2738 0.9442 -0.1828
vn -0.2738 0.9443 -0.1828
vn -0.3183 -0.4402 0.8396
vn -0.6335 -0.6674 0.3916
vn -0.8162 0.0048 0.5777
vn -0.8162 0.0047 0.5777
vn -0.8162 0.0046 0.5777
vn -0.2870 0.2531 0.9239
vn 0.7935 0.0533 -0.6063
vn 0.7934 0.0535 -0.6063
vn 0.2423 -0.0907 -0.9659
vn 0.2423 -0.0914 -0.9659
vn -0.4807 -0.8027 -0.3529
vn 0.1019 -0.7822 -0.6147
vt 0.791667 0.500000
vt 0.875000 0.500000
vt 0.875000 0.466108
vt 0.791667 0.466108
vt 0.375000 0.583333
vt 0.625000 0.583333
vt 0.625000 0.500000
vt 0.375000 0.500000
vt 0.375000 0.083333
vt 0.625000 0.083333
vt 0.625000 0.000000
vt 0.375000 0.000000
vt 0.375000 0.783892
vt 0.625000 0.783892
vt 0.625000 0.750000
vt 0.375000 0.750000
vt 0.625000 0.466108
vt 0.375000 0.466108
vt 0.791667 0.286225
vt 0.875000 0.286225
vt 0.875000 0.250000
vt 0.791667 0.250000
vt 0.291667 0.286225
vt 0.375000 0.286225
vt 0.375000 0.250000
vt 0.291667 0.250000
vt 0.375000 0.286225
vt 0.625000 0.286225
vt 0.625000 0.250000
vt 0.291667 0.500000
vt 0.375000 0.466108
vt 0.291667 0.466108
vt 0.708333 0.286225
vt 0.616732 0.334323
vt 0.702821 0.331178
vt 0.616506 0.419106
vt 0.702671 0.422275
vt 0.708333 0.466108
vt 0.208333 0.286225
vt 0.125000 0.286225
vt 0.125000 0.324888
vt 0.211089 0.328033
vt 0.125000 0.428613
vt 0.211165 0.425444
vt 0.125000 0.466108
vt 0.208333 0.466108
vt 0.383268 0.334323
vt 0.383494 0.419106
vt 0.391987 0.840401
vt 0.608013 0.840401
vt 0.391537 0.906242
vt 0.608463 0.906242
vt 0.375000 0.963775
vt 0.625000 0.963775
vt 0.375000 1.000000
vt 0.625000 1.000000
vt 0.297329 0.422275
vt 0.297179 0.331178
vt 0.875000 0.428613
vt 0.788835 0.425444
vt 0.875000 0.324888
vt 0.788911 0.328033
vt 0.125000 0.500000
vt 0.208333 0.500000
vt 0.208333 0.250000
vt 0.125000 0.250000
vt 0.708333 0.250000
vt 0.625000 0.166667
vt 0.375000 0.166667
vt 0.625000 0.666667
vt 0.375000 0.666667
vt 0.708333 0.500000
s 1
usemtl gungray.001
f 1/1/1 2/2/2 3/3/3
f 1/1/1 3/3/3 4/4/4
f 5/5/5 6/6/6 7/7/7
f 5/5/5 7/7/7 8/8/8
f 9/9/9 10/10/10 11/11/11
f 9/9/9 11/11/11 12/12/12
s 0
f 13/13/13 14/14/13 15/15/13
f 13/13/14 15/15/14 16/16/14
f 17/8/15 18/7/15 19/17/15
f 17/8/16 19/17/16 20/18/16
s 1
f 21/19/17 22/20/18 23/21/19
f 21/19/17 23/21/19 24/22/20
f 25/23/21 26/24/22 27/25/21
f 25/23/21 27/25/21 28/26/21
s 0
f 29/27/23 30/28/23 31/29/23
f 29/27/16 31/29/16 32/25/16
s 1
f 33/30/24 34/8/25 35/31/26
f 33/30/24 35/31/26 36/32/25
f 37/33/27 38/28/28 39/34/29
f 37/33/27 39/34/29 40/35/30
f 40/35/30 39/34/29 41/36/31
f 40/35/30 41/36/31 42/37/32
f 42/37/32 41/36/31 43/17/33
f 42/37/32 43/17/33 44/38/34
f 45/39/35 46/40/35 47/41/36
f 45/39/35 47/41/36 48/42/35
f 49/42/37 50/41/37 51/43/37
f 49/42/37 51/43/37 52/44/37
f 53/44/38 54/43/39 55/45/38
f 53/44/38 55/45/38 56/46/40
s 0
f 57/28/23 58/27/23 59/47/23
f 57/28/23 59/47/23 60/34/23
f 61/34/23 62/47/23 63/48/23
f 61/34/23 63/48/23 64/36/23
f 65/36/23 66/48/23 67/18/23
f 65/36/23 67/18/23 68/17/23
f 69/14/41 70/13/41 71/49/41
f 69/14/13 71/49/13 72/50/13
f 73/50/13 74/49/13 75/51/13
f 73/50/13 75/51/13 76/52/13
f 77/52/13 78/51/13 79/53/13
f 77/52/13 79/53/13 80/54/13
f 81/55/13 82/56/13 83/54/13
f 81/55/13 83/54/13 84/53/13
s 1
f 85/48/42 86/57/42 87/32/43
f 85/48/42 87/32/43 88/31/43
s 0
f 89/57/44 90/44/44 91/46/44
f 89/57/44 91/46/44 92/32/44
s 1
f 93/47/45 94/58/45 95/57/46
f 93/47/45 95/57/46 96/48/46
s 0
f 97/58/47 98/42/47 99/44/47
f 97/58/48 99/44/48 100/57/48
s 1
f 101/24/49 102/23/50 103/58/49
f 101/24/49 103/58/49 104/47/51
s 0
f 105/23/52 106/39/52 107/42/52
f 105/23/53 107/42/53 108/58/53
s 1
f 109/59/54 110/60/55 4/4/4
f 109/59/54 4/4/4 3/3/3
f 110/60/55 42/37/32 44/38/34
f 110/60/55 44/38/34 4/4/4
f 111/61/56 112/62/57 110/60/55
f 111/61/56 110/60/55 109/59/54
f 112/62/57 40/35/30 42/37/32
f 112/62/57 42/37/32 110/60/55
f 22/20/18 21/19/17 112/62/57
f 22/20/18 112/62/57 111/61/56
f 21/19/17 37/33/27 40/35/30
f 21/19/17 40/35/30 112/62/57
f 113/63/58 114/64/59 115/46/59
f 113/63/58 115/46/59 116/45/59
s 0
f 117/64/60 118/30/60 119/32/60
f 117/64/60 119/32/60 120/46/60
s 1
f 121/40/61 122/39/61 123/65/61
f 121/40/61 123/65/61 124/66/62
s 0
f 125/39/63 126/23/63 127/26/63
f 125/39/64 127/26/64 128/65/64
s 1
f 38/28/28 37/33/27 129/67/65
f 38/28/28 129/67/65 130/29/66
f 37/33/27 21/19/17 24/22/20
f 37/33/27 24/22/20 129/67/65
f 131/25/67 132/29/67 133/68/68
f 131/25/67 133/68/68 134/69/69
s 0
f 135/69/70 136/68/70 137/10/70
f 135/69/70 137/10/70 138/9/70
s 1
f 139/16/71 140/15/71 141/70/72
f 139/16/71 141/70/72 142/71/72
s 0
f 143/71/73 144/70/73 145/6/73
f 143/71/74 145/6/74 146/5/74
s 1
f 147/7/75 148/72/76 44/38/34
f 147/7/75 44/38/34 43/17/33
f 148/72/76 1/1/1 4/4/4
f 148/72/76 4/4/4 44/38/34
