# Blender 4.4.1
# www.blender.org
mtllib Object_110.mtl
o Object_110.001
v -0.525405 -0.170284 11.149372
v -0.520654 -0.172795 11.160581
v -0.515224 -0.159829 11.161184
v -0.519975 -0.157318 11.149976
v -0.494851 -0.167242 11.137104
v -0.519975 -0.157318 11.149976
v -0.515224 -0.159829 11.161184
v -0.490100 -0.169753 11.148312
v -0.490100 -0.169753 11.148312
v -0.515224 -0.159829 11.161184
v -0.520654 -0.172795 11.160581
v -0.495530 -0.182718 11.147709
v -0.495530 -0.182718 11.147709
v -0.500281 -0.180207 11.136500
v -0.494851 -0.167242 11.137104
v -0.490100 -0.169753 11.148312
v -0.500281 -0.180207 11.136500
v -0.525405 -0.170284 11.149372
v -0.519975 -0.157318 11.149976
v -0.494851 -0.167242 11.137104
v -0.495530 -0.182718 11.147709
v -0.520654 -0.172795 11.160581
v -0.525405 -0.170284 11.149372
v -0.500281 -0.180207 11.136500
vn -0.8396 0.3317 0.4302
vn -0.8396 0.3316 0.4302
vn 0.3859 0.9215 0.0429
vn 0.3860 0.9215 0.0429
vn 0.3822 -0.2020 0.9017
vn 0.8396 -0.3316 -0.4302
vn -0.3822 0.2020 -0.9017
vn -0.3822 0.2019 -0.9018
vn -0.3860 -0.9215 -0.0429
vt 0.625000 0.500000
vt 0.875000 0.500000
vt 0.875000 0.250000
vt 0.625000 0.250000
vt 0.375000 0.250000
vt 0.625000 0.000000
vt 0.375000 0.000000
vt 0.375000 1.000000
vt 0.625000 1.000000
vt 0.625000 0.750000
vt 0.375000 0.750000
vt 0.125000 0.500000
vt 0.375000 0.500000
vt 0.125000 0.250000
s 0
usemtl baseMaterial.001
f 1/1/1 2/2/1 3/3/1
f 1/1/2 3/3/2 4/4/2
f 5/5/3 6/4/3 7/6/3
f 5/5/4 7/6/4 8/7/4
f 9/8/5 10/9/5 11/10/5
f 9/8/5 11/10/5 12/11/5
f 13/12/6 14/13/6 15/5/6
f 13/12/6 15/5/6 16/14/6
f 17/13/7 18/1/7 19/4/7
f 17/13/8 19/4/8 20/5/8
f 21/11/9 22/10/9 23/1/9
f 21/11/9 23/1/9 24/13/9
