# Blender 4.4.1
# www.blender.org
mtllib Object_186.mtl
o Object_186.001
v -0.087508 -0.204180 11.517421
v -0.078538 -0.211879 11.503924
v -0.086033 -0.214318 11.477943
v -0.095997 -0.207563 11.488763
v -0.155843 -0.183852 11.535232
v -0.155426 -0.182339 11.534962
v -0.171977 -0.181830 11.528055
v -0.172292 -0.183247 11.528600
v -0.159178 -0.268779 11.320340
v -0.156116 -0.255369 11.315498
v -0.139611 -0.255920 11.322285
v -0.142570 -0.269233 11.327400
v -0.087918 -0.222796 11.481201
v -0.086033 -0.214318 11.477943
v -0.078538 -0.211879 11.503924
v -0.078853 -0.213295 11.504469
v -0.172292 -0.183247 11.528600
v -0.171977 -0.181830 11.528055
v -0.179471 -0.184270 11.502074
v -0.181356 -0.192748 11.505332
v -0.145342 -0.244303 11.343440
v -0.129956 -0.245916 11.347212
v -0.139611 -0.255920 11.322285
v -0.156116 -0.255369 11.315498
v -0.217988 -0.243168 11.368457
v -0.227965 -0.236425 11.379243
v -0.236009 -0.239184 11.351531
v -0.227097 -0.246937 11.337881
v -0.227965 -0.236425 11.379243
v -0.223394 -0.215868 11.371343
v -0.233049 -0.225872 11.346416
v -0.236009 -0.239184 11.351531
v -0.155843 -0.183852 11.535232
v -0.172292 -0.183247 11.528600
v -0.181356 -0.192748 11.505332
v -0.165956 -0.194347 11.509141
v -0.213260 -0.222462 11.360980
v -0.223394 -0.215868 11.371343
v -0.208599 -0.202402 11.411864
v -0.196705 -0.207327 11.406238
v -0.192522 -0.190837 11.459715
v -0.178644 -0.193879 11.459429
v -0.179471 -0.184270 11.502074
v -0.163915 -0.185722 11.506303
v -0.150070 -0.265010 11.350917
v -0.134526 -0.266473 11.355112
v -0.121212 -0.259668 11.398193
v -0.135047 -0.256584 11.398596
v -0.135047 -0.256584 11.398596
v -0.121212 -0.259668 11.398193
v -0.105120 -0.248036 11.446018
v -0.116970 -0.243069 11.451764
v -0.116970 -0.243069 11.451764
v -0.105120 -0.248036 11.446018
v -0.087918 -0.222796 11.481201
v -0.098037 -0.216189 11.491601
v -0.223394 -0.215868 11.371343
v -0.227965 -0.236425 11.379243
v -0.214651 -0.229620 11.422324
v -0.208599 -0.202402 11.411864
v -0.208599 -0.202402 11.411864
v -0.214651 -0.229620 11.422324
v -0.198559 -0.217988 11.470149
v -0.192522 -0.190837 11.459715
v -0.192522 -0.190837 11.459715
v -0.198559 -0.217988 11.470149
v -0.181356 -0.192748 11.505332
v -0.179471 -0.184270 11.502074
v -0.086033 -0.214318 11.477943
v -0.087918 -0.222796 11.481201
v -0.105120 -0.248036 11.446018
v -0.099084 -0.220885 11.435584
v -0.099084 -0.220885 11.435584
v -0.105120 -0.248036 11.446018
v -0.121212 -0.259668 11.398193
v -0.115161 -0.232450 11.387733
v -0.115161 -0.232450 11.387733
v -0.121212 -0.259668 11.398193
v -0.134526 -0.266473 11.355112
v -0.129956 -0.245916 11.347212
v -0.142570 -0.269233 11.327400
v -0.139611 -0.255920 11.322285
v -0.129956 -0.245916 11.347212
v -0.134526 -0.266473 11.355112
v -0.198559 -0.217988 11.470149
v -0.184888 -0.221228 11.469304
v -0.165956 -0.194347 11.509141
v -0.181356 -0.192748 11.505332
v -0.184888 -0.221228 11.469304
v -0.116970 -0.243069 11.451764
v -0.098037 -0.216189 11.491601
v -0.165956 -0.194347 11.509141
v -0.214651 -0.229620 11.422324
v -0.202965 -0.234743 11.416137
v -0.184888 -0.221228 11.469304
v -0.198559 -0.217988 11.470149
v -0.202965 -0.234743 11.416137
v -0.135047 -0.256584 11.398596
v -0.116970 -0.243069 11.451764
v -0.184888 -0.221228 11.469304
v -0.227965 -0.236425 11.379243
v -0.217988 -0.243168 11.368457
v -0.202965 -0.234743 11.416137
v -0.214651 -0.229620 11.422324
v -0.217988 -0.243168 11.368457
v -0.150070 -0.265010 11.350917
v -0.135047 -0.256584 11.398596
v -0.202965 -0.234743 11.416137
v -0.099084 -0.220885 11.435584
v -0.110725 -0.215721 11.441889
v -0.115161 -0.232450 11.387733
v -0.128787 -0.229169 11.388697
v -0.078853 -0.213295 11.504469
v -0.087924 -0.205693 11.517692
v -0.098037 -0.216189 11.491601
v -0.087918 -0.222796 11.481201
v -0.087924 -0.205693 11.517692
v -0.155843 -0.183852 11.535232
v -0.165956 -0.194347 11.509141
v -0.098037 -0.216189 11.491601
v -0.134526 -0.266473 11.355112
v -0.150070 -0.265010 11.350917
v -0.159178 -0.268779 11.320340
v -0.142570 -0.269233 11.327400
v -0.150070 -0.265010 11.350917
v -0.217988 -0.243168 11.368457
v -0.227097 -0.246937 11.337881
v -0.159178 -0.268779 11.320340
v -0.224035 -0.233528 11.333039
v -0.233049 -0.225872 11.346416
v -0.236009 -0.239184 11.351531
v -0.233049 -0.225872 11.346416
v -0.224035 -0.233528 11.333039
v -0.227097 -0.246937 11.337881
v -0.227097 -0.246937 11.337881
v -0.224035 -0.233528 11.333039
v -0.156116 -0.255369 11.315498
v -0.159178 -0.268779 11.320340
v -0.078853 -0.213295 11.504469
v -0.078538 -0.211879 11.503924
v -0.087508 -0.204180 11.517421
v -0.087924 -0.205693 11.517692
v -0.087924 -0.205693 11.517692
v -0.087508 -0.204180 11.517421
v -0.155426 -0.182339 11.534962
v -0.155843 -0.183852 11.535232
v -0.171977 -0.181830 11.528055
v -0.155426 -0.182339 11.534962
vn 0.6185 0.6216 0.4806
vn 0.9400 0.3410 0.0049
vn 0.8488 0.4207 -0.3203
vn 0.3120 0.9243 -0.2198
vn -0.3486 0.3313 0.8768
vn -0.3485 0.3314 0.8768
vn 0.3442 -0.3950 -0.8518
vn 0.3442 -0.3949 -0.8518
vn 0.9245 -0.2973 -0.2387
vn 0.9245 -0.2972 -0.2387
vn -0.9244 0.2974 0.2387
vn -0.9245 0.2973 0.2387
vn 0.1919 0.8944 -0.4040
vn 0.7838 0.4326 -0.4455
vn 0.6655 0.2345 -0.7086
vn 0.1265 0.2811 -0.9513
vn -0.4012 -0.8898 0.2177
vn -0.4011 -0.8898 0.2177
vn -0.9245 0.2973 0.2388
vn -0.2032 -0.8775 0.4345
vn -0.2032 -0.8775 0.4344
vn -0.2031 -0.8775 0.4344
vn 0.1772 0.8992 -0.4001
vn -0.5147 0.8503 -0.1101
vn -0.4953 0.8656 -0.0733
vn 0.2074 0.9163 -0.3426
vn -0.4942 0.8691 -0.0230
vn 0.2116 0.9413 -0.2629
vn -0.5121 0.8583 0.0312
vn 0.1898 0.9636 -0.1882
vn -0.1766 -0.9602 0.2163
vn -0.2177 -0.9273 0.3045
vn -0.2178 -0.9273 0.3046
vn -0.2177 -0.9273 0.3046
vn -0.0098 -0.8190 0.5737
vn -0.9245 0.2972 0.2388
vn 0.9244 -0.2973 -0.2387
vn 0.9245 -0.2973 -0.2388
vn -0.1899 -0.7611 0.6202
vn -0.1900 -0.7611 0.6202
vn -0.1050 -0.8005 0.5901
vn -0.2208 -0.9263 0.3054
vn -0.2208 -0.9263 0.3053
vn -0.2178 -0.9257 0.3094
vn -0.3071 -0.9183 0.2500
vn -0.3071 -0.9182 0.2500
vn -0.2399 -0.9402 0.2417
vn 0.8180 0.4471 -0.3619
vn 0.2514 0.9285 -0.2732
vn 0.7947 0.4508 -0.4064
vn 0.2053 0.9170 -0.3421
vn -0.1464 -0.8958 0.4197
vn -0.1465 -0.8957 0.4198
vn -0.1464 -0.8957 0.4198
vn -0.1757 -0.8878 0.4253
vn -0.1757 -0.8879 0.4252
vn -0.1084 -0.9839 0.1421
vn -0.2549 -0.9476 0.1927
vn -0.3551 0.4360 -0.8269
vn -0.6560 0.6593 -0.3674
vn -0.8372 -0.0151 -0.5467
vn -0.8372 -0.0150 -0.5467
vn -0.3183 -0.2568 -0.9125
vn -0.3183 -0.2569 -0.9125
vn 0.8162 -0.0439 0.5761
vn 0.8163 -0.0435 0.5760
vn 0.2774 0.0948 0.9561
vn 0.2773 0.0934 0.9562
vn -0.4771 0.7968 0.3709
vn 0.1151 0.7835 0.6106
vt 0.791667 0.500000
vt 0.875000 0.500000
vt 0.875000 0.466108
vt 0.791667 0.466108
vt 0.375000 0.583333
vt 0.625000 0.583333
vt 0.625000 0.500000
vt 0.375000 0.500000
vt 0.375000 0.083333
vt 0.625000 0.083333
vt 0.625000 0.000000
vt 0.375000 0.000000
vt 0.375000 0.783892
vt 0.625000 0.783892
vt 0.625000 0.750000
vt 0.375000 0.750000
vt 0.625000 0.466108
vt 0.375000 0.466108
vt 0.791667 0.286225
vt 0.875000 0.286225
vt 0.875000 0.250000
vt 0.791667 0.250000
vt 0.291667 0.286225
vt 0.375000 0.286225
vt 0.375000 0.250000
vt 0.291667 0.250000
vt 0.375000 0.286225
vt 0.625000 0.286225
vt 0.625000 0.250000
vt 0.291667 0.500000
vt 0.375000 0.466108
vt 0.291667 0.466108
vt 0.708333 0.286225
vt 0.616732 0.334323
vt 0.702821 0.331178
vt 0.616506 0.419106
vt 0.702671 0.422275
vt 0.708333 0.466108
vt 0.208333 0.286225
vt 0.125000 0.286225
vt 0.125000 0.324888
vt 0.211089 0.328033
vt 0.125000 0.428613
vt 0.211165 0.425444
vt 0.125000 0.466108
vt 0.208333 0.466108
vt 0.383268 0.334323
vt 0.383494 0.419106
vt 0.391987 0.840401
vt 0.608013 0.840401
vt 0.391537 0.906242
vt 0.608463 0.906242
vt 0.375000 0.963775
vt 0.625000 0.963775
vt 0.375000 1.000000
vt 0.625000 1.000000
vt 0.297329 0.422275
vt 0.297179 0.331178
vt 0.875000 0.428613
vt 0.788835 0.425444
vt 0.875000 0.324888
vt 0.788911 0.328033
vt 0.125000 0.500000
vt 0.208333 0.500000
vt 0.208333 0.250000
vt 0.125000 0.250000
vt 0.708333 0.250000
vt 0.625000 0.166667
vt 0.375000 0.166667
vt 0.625000 0.666667
vt 0.375000 0.666667
vt 0.708333 0.500000
s 1
usemtl gungray.001
f 1/1/1 2/2/2 3/3/3
f 1/1/1 3/3/3 4/4/4
f 5/5/5 6/6/5 7/7/6
f 5/5/5 7/7/6 8/8/6
f 9/9/7 10/10/7 11/11/7
f 9/9/7 11/11/7 12/12/8
s 0
f 13/13/9 14/14/9 15/15/9
f 13/13/10 15/15/10 16/16/10
f 17/8/11 18/7/11 19/17/11
f 17/8/12 19/17/12 20/18/12
s 1
f 21/19/13 22/20/14 23/21/15
f 21/19/13 23/21/15 24/22/16
f 25/23/17 26/24/18 27/25/17
f 25/23/17 27/25/17 28/26/17
s 0
f 29/27/19 30/28/19 31/29/19
f 29/27/12 31/29/12 32/25/12
s 1
f 33/30/20 34/8/21 35/31/22
f 33/30/20 35/31/22 36/32/21
f 37/33/23 38/28/24 39/34/25
f 37/33/23 39/34/25 40/35/26
f 40/35/26 39/34/25 41/36/27
f 40/35/26 41/36/27 42/37/28
f 42/37/28 41/36/27 43/17/29
f 42/37/28 43/17/29 44/38/30
f 45/39/31 46/40/31 47/41/31
f 45/39/31 47/41/31 48/42/31
f 49/42/32 50/41/33 51/43/33
f 49/42/32 51/43/33 52/44/34
f 53/44/35 54/43/35 55/45/35
f 53/44/35 55/45/35 56/46/35
s 0
f 57/28/12 58/27/12 59/47/12
f 57/28/12 59/47/12 60/34/12
f 61/34/12 62/47/12 63/48/12
f 61/34/12 63/48/12 64/36/12
f 65/36/12 66/48/12 67/18/12
f 65/36/36 67/18/36 68/17/36
f 69/14/37 70/13/37 71/49/37
f 69/14/9 71/49/9 72/50/9
f 73/50/9 74/49/9 75/51/9
f 73/50/9 75/51/9 76/52/9
f 77/52/9 78/51/9 79/53/9
f 77/52/9 79/53/9 80/54/9
f 81/55/38 82/56/38 83/54/38
f 81/55/9 83/54/9 84/53/9
s 1
f 85/48/39 86/57/39 87/32/39
f 85/48/39 87/32/39 88/31/40
s 0
f 89/57/41 90/44/41 91/46/41
f 89/57/41 91/46/41 92/32/41
s 1
f 93/47/42 94/58/42 95/57/43
f 93/47/42 95/57/43 96/48/42
s 0
f 97/58/44 98/42/44 99/44/44
f 97/58/44 99/44/44 100/57/44
s 1
f 101/24/45 102/23/46 103/58/46
f 101/24/45 103/58/46 104/47/45
s 0
f 105/23/47 106/39/47 107/42/47
f 105/23/47 107/42/47 108/58/47
s 1
f 109/59/48 110/60/49 4/4/4
f 109/59/48 4/4/4 3/3/3
f 110/60/49 42/37/28 44/38/30
f 110/60/49 44/38/30 4/4/4
f 111/61/50 112/62/51 110/60/49
f 111/61/50 110/60/49 109/59/48
f 112/62/51 40/35/26 42/37/28
f 112/62/51 42/37/28 110/60/49
f 22/20/14 21/19/13 112/62/51
f 22/20/14 112/62/51 111/61/50
f 21/19/13 37/33/23 40/35/26
f 21/19/13 40/35/26 112/62/51
f 113/63/52 114/64/53 115/46/53
f 113/63/52 115/46/53 116/45/54
s 0
f 117/64/55 118/30/55 119/32/55
f 117/64/56 119/32/56 120/46/56
s 1
f 121/40/57 122/39/57 123/65/57
f 121/40/57 123/65/57 124/66/57
s 0
f 125/39/58 126/23/58 127/26/58
f 125/39/58 127/26/58 128/65/58
s 1
f 38/28/24 37/33/23 129/67/59
f 38/28/24 129/67/59 130/29/60
f 37/33/23 21/19/13 24/22/16
f 37/33/23 24/22/16 129/67/59
f 131/25/61 132/29/61 133/68/62
f 131/25/61 133/68/62 134/69/62
s 0
f 135/69/63 136/68/63 137/10/63
f 135/69/64 137/10/64 138/9/64
s 1
f 139/16/65 140/15/65 141/70/66
f 139/16/65 141/70/66 142/71/66
s 0
f 143/71/67 144/70/67 145/6/67
f 143/71/68 145/6/68 146/5/68
s 1
f 147/7/69 148/72/70 44/38/30
f 147/7/69 44/38/30 43/17/29
f 148/72/70 1/1/1 4/4/4
f 148/72/70 4/4/4 44/38/30
