# Blender 4.4.1
# www.blender.org
mtllib Object_36.mtl
o Object_36.001
v -0.000739 0.153307 11.595302
v 0.001411 0.153748 11.595287
v 0.003565 0.153334 11.595221
v 0.005395 0.152128 11.595114
v 0.006623 0.150315 11.594982
v 0.007062 0.148169 11.594846
v 0.006645 0.146019 11.594726
v 0.005436 0.144190 11.594640
v 0.003618 0.142962 11.594602
v 0.001468 0.142521 11.594616
v -0.000685 0.142935 11.594683
v -0.002516 0.144140 11.594790
v -0.003744 0.145954 11.594921
v -0.004183 0.148099 11.595057
v -0.003766 0.150250 11.595178
v -0.002556 0.152079 11.595263
v 0.014672 0.114523 12.208591
v 0.013299 0.114242 12.208600
v 0.012138 0.113457 12.208576
v 0.011365 0.112289 12.208521
v 0.011098 0.110914 12.208445
v 0.011379 0.109544 12.208357
v 0.012164 0.108385 12.208273
v 0.013333 0.107615 12.208204
v 0.014709 0.107350 12.208162
v 0.016083 0.107632 12.208153
v 0.017244 0.108416 12.208178
v 0.018017 0.109585 12.208233
v 0.018283 0.110959 12.208309
v 0.018003 0.112330 12.208397
v 0.017218 0.113489 12.208481
v 0.016049 0.114259 12.208549
vn -0.0193 0.0596 -0.9980
vn -0.0191 0.0593 -0.9981
vn -0.0191 0.0596 -0.9980
vn -0.0192 0.0596 -0.9980
vn -0.0188 0.0595 -0.9981
vn -0.0195 0.0596 -0.9980
vn -0.0189 0.0596 -0.9980
vn -0.0195 0.0595 -0.9980
vn -0.0192 0.0595 -0.9980
vn -0.0191 0.0598 -0.9980
vn -0.0191 0.0590 -0.9981
vn 0.0213 -0.0594 0.9980
vn 0.0186 -0.0600 0.9980
vn 0.0188 -0.0598 0.9980
vn 0.0185 -0.0597 0.9980
vn 0.0189 -0.0594 0.9981
vn 0.0191 -0.0596 0.9980
vn 0.0190 -0.0596 0.9980
vn 0.0191 -0.0592 0.9981
vn 0.0190 -0.0593 0.9981
vn 0.0197 -0.0594 0.9980
vn 0.0194 -0.0595 0.9980
vn 0.0186 -0.0598 0.9980
vn 0.0188 -0.0594 0.9981
vt 0.028269 0.841844
vt 0.028269 0.658156
vt 0.010000 0.750000
vt 0.080294 0.919706
vt 0.080294 0.580294
vt 0.158156 0.971731
vt 0.158156 0.528269
vt 0.250000 0.990000
vt 0.250000 0.510000
vt 0.341844 0.528269
vt 0.341844 0.971731
vt 0.419706 0.580294
vt 0.419706 0.919706
vt 0.471731 0.841844
vt 0.471731 0.658156
vt 0.490000 0.750000
vt 0.528269 0.658156
vt 0.528269 0.841844
vt 0.510000 0.750000
vt 0.580294 0.919706
vt 0.580294 0.580294
vt 0.658156 0.528269
vt 0.658156 0.971731
vt 0.750000 0.990000
vt 0.750000 0.510000
vt 0.841844 0.528269
vt 0.841844 0.971731
vt 0.919706 0.580294
vt 0.919706 0.919706
vt 0.971731 0.658156
vt 0.971731 0.841844
vt 0.990000 0.750000
s 0
usemtl RedEye.002
f 7/1/1 5/2/1 6/3/1
f 5/2/2 7/1/2 8/4/2
f 5/2/3 8/4/3 4/5/3
f 4/5/4 8/4/4 9/6/4
f 4/5/2 9/6/2 3/7/2
f 3/7/5 9/6/5 10/8/5
f 3/7/6 10/8/6 2/9/6
f 2/9/7 10/8/7 1/10/7
f 1/10/8 10/8/8 11/11/8
f 1/10/9 11/11/9 16/12/9
f 16/12/3 11/11/3 12/13/3
f 16/12/10 12/13/10 13/14/10
f 16/12/11 13/14/11 15/15/11
f 15/15/1 13/14/1 14/16/1
f 30/17/12 28/18/12 29/19/12
f 28/18/13 30/17/13 27/20/13
f 27/20/14 30/17/14 31/21/14
f 27/20/15 31/21/15 32/22/15
f 27/20/16 32/22/16 26/23/16
f 26/23/17 32/22/17 25/24/17
f 25/24/18 32/22/18 17/25/18
f 25/24/19 17/25/19 18/26/19
f 25/24/20 18/26/20 24/27/20
f 24/27/21 18/26/21 19/28/21
f 24/27/22 19/28/22 23/29/22
f 23/29/23 19/28/23 20/30/23
f 23/29/24 20/30/24 22/31/24
f 22/31/12 20/30/12 21/32/12
