# Blender 4.4.1
# www.blender.org
mtllib Object_178.mtl
o Object_178.001
v -0.015418 0.019655 11.455894
v 0.014789 0.019863 11.455323
v 0.014952 0.024821 11.465768
v -0.015255 0.024612 11.466338
v -0.015255 0.024612 11.466338
v 0.014952 0.024821 11.465768
v 0.014950 0.035712 11.469648
v -0.015257 0.035503 11.470220
v -0.015257 0.035503 11.470220
v 0.014950 0.035712 11.469648
v 0.014785 0.046157 11.464693
v -0.015422 0.045949 11.465264
v -0.015422 0.045949 11.465264
v 0.014785 0.046157 11.464693
v 0.014552 0.050037 11.453804
v -0.015655 0.049829 11.454375
v -0.015655 0.049829 11.454375
v 0.014552 0.050037 11.453804
v 0.014389 0.045080 11.443360
v -0.015818 0.044871 11.443931
v -0.015818 0.044871 11.443931
v 0.014389 0.045080 11.443360
v 0.014391 0.034189 11.439479
v -0.015816 0.033980 11.440050
v 0.014952 0.024821 11.465768
v 0.014789 0.019863 11.455323
v 0.014556 0.023744 11.444434
v 0.014391 0.034189 11.439479
v 0.014389 0.045080 11.443360
v 0.014552 0.050037 11.453804
v 0.014785 0.046157 11.464693
v 0.014950 0.035712 11.469648
v -0.015816 0.033980 11.440050
v 0.014391 0.034189 11.439479
v 0.014556 0.023744 11.444434
v -0.015651 0.023535 11.445005
v -0.015651 0.023535 11.445005
v 0.014556 0.023744 11.444434
v 0.014789 0.019863 11.455323
v -0.015418 0.019655 11.455894
v -0.015418 0.019655 11.455894
v -0.015255 0.024612 11.466338
v -0.015257 0.035503 11.470220
v -0.015422 0.045949 11.465264
v -0.015655 0.049829 11.454375
v -0.015818 0.044871 11.443931
v -0.015816 0.033980 11.440050
v -0.015651 0.023535 11.445005
v -0.002933 0.022015 11.317881
v -0.000402 0.024604 11.452763
v 0.003272 0.027591 11.452543
v -0.000722 0.023759 11.317751
v 0.004747 0.034751 11.452154
v 0.000167 0.027937 11.317524
v 0.003159 0.041890 11.451823
v -0.000788 0.032103 11.317331
v -0.000561 0.044826 11.451744
v -0.003026 0.033816 11.317286
v -0.004234 0.041839 11.451963
v -0.005237 0.032072 11.317415
v -0.005709 0.034679 11.452353
v -0.006126 0.027894 11.317643
v 0.003272 0.027591 11.452543
v -0.000402 0.024604 11.452763
v -0.004122 0.027540 11.452683
v -0.005709 0.034679 11.452353
v -0.004234 0.041839 11.451963
v -0.000561 0.044826 11.451744
v 0.003159 0.041890 11.451823
v 0.004747 0.034751 11.452154
v -0.004122 0.027540 11.452683
v -0.005171 0.023728 11.317836
v -0.000402 0.024604 11.452763
v -0.002933 0.022015 11.317881
v -0.002933 0.022015 11.317881
v -0.000722 0.023759 11.317751
v 0.000167 0.027937 11.317524
v -0.000788 0.032103 11.317331
v -0.003026 0.033816 11.317286
v -0.005237 0.032072 11.317415
v -0.006126 0.027894 11.317643
v -0.005171 0.023728 11.317836
vn 0.0143 -0.9034 0.4285
vn 0.0143 -0.9034 0.4286
vn 0.0201 -0.3355 0.9418
vn 0.0201 -0.3358 0.9417
vn 0.0141 0.4287 0.9033
vn 0.0141 0.4288 0.9033
vn -0.0002 0.9420 0.3356
vn -0.0002 0.9420 0.3357
vn -0.0143 0.9034 -0.4286
vn -0.0143 0.9034 -0.4285
vn -0.0201 0.3355 -0.9418
vn -0.0201 0.3356 -0.9418
vn -0.0141 -0.4289 -0.9033
vn -0.0141 -0.4288 -0.9033
vn 0.0002 -0.9420 -0.3356
vn 0.0002 -0.9419 -0.3358
vn 0.0051 0.8252 0.5649
vn -0.0171 0.7870 -0.6167
vn -0.6721 0.3748 -0.6385
vn -0.6405 0.4293 0.6367
vn -0.7656 -0.0383 -0.6422
vn -0.7324 0.0285 0.6803
vn -0.6657 -0.4475 -0.5971
vn -0.6342 -0.3732 0.6771
vn -0.0043 -0.8451 -0.5345
vn 0.0175 -0.7640 0.6449
vn 0.6487 -0.4385 -0.6220
vn 0.6644 -0.3642 0.6526
vn 0.7412 -0.0280 -0.6706
vn 0.7571 0.0388 0.6521
vn 0.6423 0.3839 -0.6634
vn 0.6581 0.4383 0.6122
vn -0.0171 0.7871 -0.6166
vn 0.0049 0.8251 0.5650
vn 0.9998 0.0069 -0.0189
vn -0.9998 -0.0069 0.0189
vn -0.0186 -0.0505 -0.9986
vn -0.0186 -0.0504 -0.9986
vn 0.0188 0.0506 0.9985
vn 0.0183 0.0505 0.9986
vn 0.0186 0.0503 0.9986
vn 0.0186 0.0506 0.9985
vn 0.0189 0.0503 0.9986
vn 0.0183 0.0506 0.9986
vt 1.000000 0.500000
vt 1.000000 0.000000
vt 0.875000 0.000000
vt 0.875000 0.500000
vt 0.750000 0.000000
vt 0.750000 0.500000
vt 0.625000 0.000000
vt 0.625000 0.500000
vt 0.500000 0.000000
vt 0.500000 0.500000
vt 0.375000 0.000000
vt 0.375000 0.500000
vt 0.250000 0.000000
vt 0.250000 0.500000
vt 0.125000 0.000000
vt 0.125000 0.500000
vt 0.000000 0.000000
vt 0.000000 0.500000
vt 0.250000 0.510000
vt 0.490000 0.750000
vt 0.419706 0.580294
vt 0.080294 0.580294
vt 0.419706 0.919706
vt 0.010000 0.750000
vt 0.250000 0.990000
vt 0.080294 0.919706
vt 0.990000 0.750000
vt 0.750000 0.510000
vt 0.919706 0.580294
vt 0.580294 0.580294
vt 0.919706 0.919706
vt 0.510000 0.750000
vt 0.750000 0.990000
vt 0.580294 0.919706
s 0
usemtl baseMaterial.001
f 1/1/1 2/2/1 3/3/1
f 1/1/2 3/3/2 4/4/2
f 5/4/3 6/3/3 7/5/3
f 5/4/4 7/5/4 8/6/4
f 9/6/5 10/5/5 11/7/5
f 9/6/6 11/7/6 12/8/6
f 13/8/7 14/7/7 15/9/7
f 13/8/8 15/9/8 16/10/8
f 17/10/9 18/9/9 19/11/9
f 17/10/10 19/11/10 20/12/10
f 21/12/11 22/11/11 23/13/11
f 21/12/12 23/13/12 24/14/12
f 33/14/13 34/13/13 35/15/13
f 33/14/14 35/15/14 36/16/14
f 37/16/15 38/15/15 39/17/15
f 37/16/16 39/17/16 40/18/16
s 1
f 49/1/17 50/2/18 51/3/19
f 49/1/17 51/3/19 52/4/20
f 52/4/20 51/3/19 53/5/21
f 52/4/20 53/5/21 54/6/22
f 54/6/22 53/5/21 55/7/23
f 54/6/22 55/7/23 56/8/24
f 56/8/24 55/7/23 57/9/25
f 56/8/24 57/9/25 58/10/26
f 58/10/26 57/9/25 59/11/27
f 58/10/26 59/11/27 60/12/28
f 60/12/28 59/11/27 61/13/29
f 60/12/28 61/13/29 62/14/30
f 62/14/30 61/13/29 71/15/31
f 62/14/30 71/15/31 72/16/32
f 72/16/32 71/15/31 73/17/33
f 72/16/32 73/17/33 74/18/34
s 0
f 26/19/35 32/20/35 25/21/35
f 32/20/35 26/19/35 27/22/35
f 32/20/35 27/22/35 31/23/35
f 31/23/35 27/22/35 28/24/35
f 31/23/35 28/24/35 30/25/35
f 30/25/35 28/24/35 29/26/35
f 43/27/36 41/28/36 42/29/36
f 41/28/36 43/27/36 48/30/36
f 48/30/36 43/27/36 44/31/36
f 48/30/36 44/31/36 47/32/36
f 47/32/36 44/31/36 45/33/36
f 47/32/36 45/33/36 46/34/36
f 67/26/37 65/22/37 66/24/37
f 65/22/38 67/26/38 68/25/38
f 65/22/38 68/25/38 64/19/38
f 64/19/37 68/25/37 69/23/37
f 64/19/38 69/23/38 63/21/38
f 63/21/37 69/23/37 70/20/37
f 82/30/39 80/34/39 81/32/39
f 80/34/40 82/30/40 79/33/40
f 79/33/41 82/30/41 75/28/41
f 79/33/42 75/28/42 78/31/42
f 78/31/43 75/28/43 76/29/43
f 78/31/44 76/29/44 77/27/44
