# Blender 4.4.1
# www.blender.org
mtllib Object_176.mtl
o Object_176.001
v -0.055037 0.109097 11.300110
v -0.037728 0.136694 11.294531
v -0.036220 0.127656 11.245693
v -0.051106 0.098881 11.254153
v -0.036220 0.127656 11.245693
v -0.032491 0.102231 11.153446
v -0.041567 0.086478 11.161796
v -0.017567 0.146158 11.292374
v -0.016951 0.137412 11.242579
v -0.017171 0.111402 11.148428
v -0.005234 0.137492 11.242354
v -0.006866 0.111472 11.148230
v -0.004338 0.146248 11.292120
v 0.047132 0.109792 11.298147
v 0.041578 0.099511 11.252372
v 0.025988 0.128079 11.244498
v 0.029247 0.137149 11.293244
v 0.028668 0.086956 11.160446
v 0.019064 0.102582 11.152455
v 0.025988 0.128079 11.244498
v 0.006482 0.137572 11.242129
v 0.008892 0.146338 11.291865
v 0.003439 0.111542 11.148031
v -0.051192 0.106610 11.300859
v -0.047008 0.096813 11.254837
v -0.032931 0.124494 11.246543
v -0.034623 0.133333 11.295305
v -0.037423 0.084512 11.162497
v -0.029215 0.099089 11.154411
v -0.032931 0.124494 11.246543
v -0.015788 0.133036 11.243593
v -0.016512 0.141712 11.293187
v -0.015977 0.107085 11.149641
v -0.006812 0.106999 11.149465
v -0.005184 0.132966 11.243375
v -0.004291 0.141677 11.292923
v 0.043353 0.107253 11.299043
v 0.026221 0.133747 11.294136
v 0.022778 0.124873 11.245473
v 0.037538 0.097389 11.253212
v 0.022778 0.124873 11.245473
v 0.015871 0.099396 11.153545
v 0.024581 0.084934 11.161305
v 0.007929 0.141879 11.292717
v 0.005419 0.133180 11.243186
v 0.002352 0.107209 11.149289
vn -0.9636 -0.2672 -0.0034
vn -0.6987 0.6966 -0.1631
vn -0.7087 0.6813 -0.1830
vn -0.9495 -0.3127 -0.0256
vn -0.5963 0.2493 -0.7631
vn -0.7878 -0.3829 -0.4825
vn -0.2406 0.9547 -0.1750
vn -0.2505 0.9432 -0.2184
vn -0.2388 0.5030 -0.8306
vn -0.0109 0.9755 -0.2199
vn -0.0201 0.4912 -0.8708
vn -0.0100 0.9849 -0.1731
vn 0.9663 -0.2541 -0.0405
vn 0.9520 -0.2998 -0.0621
vn 0.6918 0.6909 -0.2099
vn 0.6823 0.7060 -0.1897
vn 0.7738 -0.3724 -0.5124
vn 0.5630 0.2573 -0.7854
vn 0.6918 0.6909 -0.2100
vn 0.2291 0.9464 -0.2276
vn 0.2207 0.9579 -0.1838
vn 0.1998 0.5060 -0.8391
vn 0.2420 -0.9484 0.2047
vn 0.2839 -0.9416 0.1810
vn 0.7106 -0.6795 0.1827
vn 0.7013 -0.6940 0.1631
vn 0.2814 -0.9068 -0.3140
vn 0.3663 -0.7294 -0.5778
vn 0.7106 -0.6794 0.1828
vn 0.2440 -0.9448 0.2186
vn 0.2346 -0.9563 0.1747
vn 0.0980 -0.8068 -0.5826
vn -0.0034 -0.8727 -0.4882
vn 0.0109 -0.9755 0.2196
vn 0.0100 -0.9849 0.1727
vn -0.2210 -0.9516 0.2136
vn -0.6850 -0.7034 0.1898
vn -0.6937 -0.6890 0.2097
vn -0.2639 -0.9454 0.1915
vn -0.6937 -0.6890 0.2098
vn -0.3783 -0.7344 -0.5635
vn -0.2809 -0.9106 -0.3031
vn -0.2147 -0.9593 0.1834
vn -0.2225 -0.9480 0.2275
vn -0.1094 -0.8083 -0.5785
vt 0.375000 0.250000
vt 0.561623 0.250000
vt 0.562169 0.250000
vt 0.562169 0.250000
vt 0.533448 0.250000
vt 0.700478 0.250000
vt 0.710742 0.250000
vt 0.743421 0.250000
vt 0.781129 0.250000
vt 0.794101 0.250000
vt 0.768491 0.250000
s 1
usemtl baseMaterial.001
f 1/1/1 2/2/2 3/3/3
f 1/1/1 3/3/3 4/1/4
f 4/1/4 5/4/3 6/5/5
f 4/1/4 6/5/5 7/1/6
f 3/3/3 2/2/2 8/6/7
f 3/3/3 8/6/7 9/7/8
f 6/5/5 5/4/3 9/7/8
f 6/5/5 9/7/8 10/8/9
f 9/7/8 11/9/10 12/10/11
f 9/7/8 12/10/11 10/8/9
f 8/6/7 13/11/12 11/9/10
f 8/6/7 11/9/10 9/7/8
f 14/1/13 15/1/14 16/3/15
f 14/1/13 16/3/15 17/2/16
f 15/1/14 18/1/17 19/5/18
f 15/1/14 19/5/18 20/4/19
f 16/3/15 21/7/20 22/6/21
f 16/3/15 22/6/21 17/2/16
f 19/5/18 23/8/22 21/7/20
f 19/5/18 21/7/20 20/4/19
f 21/7/20 23/8/22 12/10/11
f 21/7/20 12/10/11 11/9/10
f 22/6/21 21/7/20 11/9/10
f 22/6/21 11/9/10 13/11/12
f 24/1/23 25/1/24 26/3/25
f 24/1/23 26/3/25 27/2/26
f 25/1/24 28/1/27 29/5/28
f 25/1/24 29/5/28 30/4/29
f 26/3/25 31/7/30 32/6/31
f 26/3/25 32/6/31 27/2/26
f 29/5/28 33/8/32 31/7/30
f 29/5/28 31/7/30 30/4/29
f 31/7/30 33/8/32 34/10/33
f 31/7/30 34/10/33 35/9/34
f 32/6/31 31/7/30 35/9/34
f 32/6/31 35/9/34 36/11/35
f 37/1/36 38/2/37 39/3/38
f 37/1/36 39/3/38 40/1/39
f 40/1/39 41/4/40 42/5/41
f 40/1/39 42/5/41 43/1/42
f 39/3/38 38/2/37 44/6/43
f 39/3/38 44/6/43 45/7/44
f 42/5/41 41/4/40 45/7/44
f 42/5/41 45/7/44 46/8/45
f 45/7/44 35/9/34 34/10/33
f 45/7/44 34/10/33 46/8/45
f 44/6/43 36/11/35 35/9/34
f 44/6/43 35/9/34 45/7/44
f 1/1/1 4/1/4 25/1/24
f 1/1/1 25/1/24 24/1/23
f 4/1/4 7/1/6 28/1/27
f 4/1/4 28/1/27 25/1/24
f 6/5/5 10/8/9 33/8/32
f 6/5/5 33/8/32 29/5/28
f 7/1/6 6/5/5 29/5/28
f 7/1/6 29/5/28 28/1/27
f 10/8/9 12/10/11 34/10/33
f 10/8/9 34/10/33 33/8/32
f 15/1/14 14/1/13 37/1/36
f 15/1/14 37/1/36 40/1/39
f 18/1/17 15/1/14 40/1/39
f 18/1/17 40/1/39 43/1/42
f 23/8/22 19/5/18 42/5/41
f 23/8/22 42/5/41 46/8/45
f 19/5/18 18/1/17 43/1/42
f 19/5/18 43/1/42 42/5/41
f 12/10/11 23/8/22 46/8/45
f 12/10/11 46/8/45 34/10/33
