# Blender 4.4.1
# www.blender.org
mtllib Object_14.mtl
o Object_14.001
v -0.084939 -0.328523 11.624968
v -0.137669 -0.311566 11.638585
v -0.143396 -0.316027 11.621962
v -0.090667 -0.332983 11.608344
v -0.090667 -0.332983 11.608344
v -0.143396 -0.316027 11.621962
v -0.147204 -0.313743 11.604374
v -0.094474 -0.330700 11.590755
v -0.094474 -0.330700 11.590755
v -0.147204 -0.313743 11.604374
v -0.148512 -0.305063 11.588499
v -0.095783 -0.322020 11.574882
v -0.078736 -0.219146 11.512790
v -0.131465 -0.202189 11.526407
v -0.128612 -0.189875 11.522120
v -0.075883 -0.206832 11.508503
v -0.046722 -0.180775 11.588974
v -0.078736 -0.219146 11.512790
v -0.075883 -0.206832 11.508503
v -0.070109 -0.189663 11.509482
v -0.063317 -0.174676 11.517118
v -0.056542 -0.164151 11.530247
v -0.050815 -0.159691 11.546870
v -0.047007 -0.161974 11.564458
v -0.045699 -0.170654 11.580333
v -0.075883 -0.206832 11.508503
v -0.128612 -0.189875 11.522120
v -0.122839 -0.172707 11.523100
v -0.070109 -0.189663 11.509482
v -0.070109 -0.189663 11.509482
v -0.122839 -0.172707 11.523100
v -0.116047 -0.157719 11.530735
v -0.063317 -0.174676 11.517118
v -0.063317 -0.174676 11.517118
v -0.116047 -0.157719 11.530735
v -0.109272 -0.147194 11.543864
v -0.056542 -0.164151 11.530247
v -0.056542 -0.164151 11.530247
v -0.109272 -0.147194 11.543864
v -0.103544 -0.142734 11.560488
v -0.050815 -0.159691 11.546870
v -0.050815 -0.159691 11.546870
v -0.103544 -0.142734 11.560488
v -0.099736 -0.145017 11.578075
v -0.047007 -0.161974 11.564458
v -0.047007 -0.161974 11.564458
v -0.099736 -0.145017 11.578075
v -0.098428 -0.153697 11.593950
v -0.045699 -0.170654 11.580333
v -0.062745 -0.273528 11.642424
v -0.115475 -0.256571 11.656041
v -0.118328 -0.268885 11.660329
v -0.065598 -0.285842 11.646710
v -0.065598 -0.285842 11.646710
v -0.118328 -0.268885 11.660329
v -0.124102 -0.286054 11.659349
v -0.071372 -0.303011 11.645732
v -0.131465 -0.202189 11.526407
v -0.099451 -0.163818 11.602592
v -0.098428 -0.153697 11.593950
v -0.099736 -0.145017 11.578075
v -0.103544 -0.142734 11.560488
v -0.109272 -0.147194 11.543864
v -0.116047 -0.157719 11.530735
v -0.122839 -0.172707 11.523100
v -0.128612 -0.189875 11.522120
v -0.071372 -0.303011 11.645732
v -0.124102 -0.286054 11.659349
v -0.130894 -0.301041 11.651714
v -0.078164 -0.317998 11.638097
v -0.078164 -0.317998 11.638097
v -0.130894 -0.301041 11.651714
v -0.137669 -0.311566 11.638585
v -0.084939 -0.328523 11.624968
v -0.095783 -0.322020 11.574882
v -0.148512 -0.305063 11.588499
v -0.147489 -0.294942 11.579857
v -0.094760 -0.311899 11.566239
v -0.143396 -0.316027 11.621962
v -0.137669 -0.311566 11.638585
v -0.130894 -0.301041 11.651714
v -0.124102 -0.286054 11.659349
v -0.118328 -0.268885 11.660329
v -0.115475 -0.256571 11.656041
v -0.147489 -0.294942 11.579857
v -0.148512 -0.305063 11.588499
v -0.147204 -0.313743 11.604374
v -0.045699 -0.170654 11.580333
v -0.098428 -0.153697 11.593950
v -0.099451 -0.163818 11.602592
v -0.046722 -0.180775 11.588974
v -0.131465 -0.202189 11.526407
v -0.078736 -0.219146 11.512790
v -0.094760 -0.311899 11.566239
v -0.147489 -0.294942 11.579857
v -0.115475 -0.256571 11.656041
v -0.062745 -0.273528 11.642424
v -0.046722 -0.180775 11.588974
v -0.099451 -0.163818 11.602592
v -0.062745 -0.273528 11.642424
v -0.094760 -0.311899 11.566239
v -0.078736 -0.219146 11.512790
v -0.046722 -0.180775 11.588974
v -0.099451 -0.163818 11.602592
v -0.131465 -0.202189 11.526407
v -0.147489 -0.294942 11.579857
v -0.115475 -0.256571 11.656041
v -0.084939 -0.328523 11.624968
v -0.090667 -0.332983 11.608344
v -0.094474 -0.330700 11.590755
v -0.095783 -0.322020 11.574882
v -0.094760 -0.311899 11.566239
v -0.062745 -0.273528 11.642424
v -0.065598 -0.285842 11.646710
v -0.071372 -0.303011 11.645732
v -0.078164 -0.317998 11.638097
v -0.125961 -0.321102 11.579110
v -0.090840 -0.311548 11.570884
v -0.086198 -0.271309 11.538753
v -0.113456 -0.262867 11.555014
v -0.127236 -0.322631 11.576076
v -0.125961 -0.321102 11.579110
v -0.149250 -0.292764 11.585969
v -0.152229 -0.296335 11.578878
v -0.149054 -0.251711 11.535605
v -0.123276 -0.266974 11.522104
v -0.124177 -0.275597 11.529353
v -0.149777 -0.258625 11.541417
v -0.102636 -0.177256 11.490309
v -0.099844 -0.173910 11.496952
v -0.080144 -0.191434 11.496681
v -0.081066 -0.192539 11.494486
v -0.091367 -0.277408 11.526333
v -0.086198 -0.271309 11.538753
v -0.090840 -0.311548 11.570884
v -0.093819 -0.315119 11.563793
v -0.152229 -0.296335 11.578878
v -0.149250 -0.292764 11.585969
v -0.144608 -0.252525 11.553838
v -0.149777 -0.258625 11.541417
v -0.106241 -0.221099 11.530945
v -0.080412 -0.237820 11.519455
v -0.080144 -0.191434 11.496681
v -0.099844 -0.173910 11.496952
v -0.117013 -0.234131 11.505458
v -0.144033 -0.225378 11.522259
v -0.124491 -0.178575 11.505701
v -0.102636 -0.177256 11.490309
v -0.144033 -0.225378 11.522259
v -0.138822 -0.219037 11.534539
v -0.123568 -0.177469 11.507895
v -0.124491 -0.178575 11.505701
v -0.127236 -0.322631 11.576076
v -0.152229 -0.296335 11.578878
v -0.149777 -0.258625 11.541417
v -0.124177 -0.275597 11.529353
v -0.106241 -0.221099 11.530945
v -0.138822 -0.219037 11.534539
v -0.140031 -0.226577 11.539248
v -0.107748 -0.230503 11.536819
v -0.107748 -0.230503 11.536819
v -0.140031 -0.226577 11.539248
v -0.141555 -0.235589 11.544570
v -0.109649 -0.241743 11.543455
v -0.109649 -0.241743 11.543455
v -0.141555 -0.235589 11.544570
v -0.143162 -0.244701 11.549693
v -0.111653 -0.253108 11.549845
v -0.111653 -0.253108 11.549845
v -0.143162 -0.244701 11.549693
v -0.144608 -0.252525 11.553838
v -0.113456 -0.262867 11.555014
v -0.117013 -0.234131 11.505458
v -0.085623 -0.244162 11.507174
v -0.087536 -0.252502 11.510153
v -0.119399 -0.244533 11.509172
v -0.119399 -0.244533 11.509172
v -0.087536 -0.252502 11.510153
v -0.089299 -0.261749 11.514839
v -0.121599 -0.256066 11.515018
v -0.121599 -0.256066 11.515018
v -0.089299 -0.261749 11.514839
v -0.090644 -0.270495 11.520521
v -0.123276 -0.266974 11.522104
v -0.123276 -0.266974 11.522104
v -0.090644 -0.270495 11.520521
v -0.091367 -0.277408 11.526333
v -0.124177 -0.275597 11.529353
v -0.138822 -0.219037 11.534539
v -0.144033 -0.225378 11.522259
v -0.145946 -0.233719 11.525237
v -0.140031 -0.226577 11.539248
v -0.147709 -0.242966 11.529923
v -0.141555 -0.235589 11.544570
v -0.149054 -0.251711 11.535605
v -0.143162 -0.244701 11.549693
v -0.090644 -0.270495 11.520521
v -0.084752 -0.263484 11.534608
v -0.089299 -0.261749 11.514839
v -0.083145 -0.254373 11.529486
v -0.087536 -0.252502 11.510153
v -0.081621 -0.245361 11.524164
v -0.085623 -0.244162 11.507174
v -0.080412 -0.237820 11.519455
v -0.081066 -0.192539 11.494486
v -0.080144 -0.191434 11.496681
v -0.080412 -0.237820 11.519455
v -0.085623 -0.244162 11.507174
v -0.147709 -0.242966 11.529923
v -0.121599 -0.256066 11.515018
v -0.123276 -0.266974 11.522104
v -0.149054 -0.251711 11.535605
v -0.145946 -0.233719 11.525237
v -0.119399 -0.244533 11.509172
v -0.121599 -0.256066 11.515018
v -0.147709 -0.242966 11.529923
v -0.144033 -0.225378 11.522259
v -0.117013 -0.234131 11.505458
v -0.119399 -0.244533 11.509172
v -0.145946 -0.233719 11.525237
v -0.084752 -0.263484 11.534608
v -0.111653 -0.253108 11.549845
v -0.113456 -0.262867 11.555014
v -0.086198 -0.271309 11.538753
v -0.083145 -0.254373 11.529486
v -0.109649 -0.241743 11.543455
v -0.111653 -0.253108 11.549845
v -0.084752 -0.263484 11.534608
v -0.081621 -0.245361 11.524164
v -0.107748 -0.230503 11.536819
v -0.109649 -0.241743 11.543455
v -0.083145 -0.254373 11.529486
v -0.080412 -0.237820 11.519455
v -0.106241 -0.221099 11.530945
v -0.107748 -0.230503 11.536819
v -0.081621 -0.245361 11.524164
v -0.093819 -0.315119 11.563793
v -0.127236 -0.322631 11.576076
v -0.124177 -0.275597 11.529353
v -0.091367 -0.277408 11.526333
v -0.085623 -0.244162 11.507174
v -0.117013 -0.234131 11.505458
v -0.102636 -0.177256 11.490309
v -0.081066 -0.192539 11.494486
v -0.138822 -0.219037 11.534539
v -0.106241 -0.221099 11.530945
v -0.099844 -0.173910 11.496952
v -0.123568 -0.177469 11.507895
v -0.124491 -0.178575 11.505701
v -0.123568 -0.177469 11.507895
v -0.099844 -0.173910 11.496952
v -0.102636 -0.177256 11.490309
v -0.093819 -0.315119 11.563793
v -0.090840 -0.311548 11.570884
v -0.125961 -0.321102 11.579110
v -0.127236 -0.322631 11.576076
v -0.149250 -0.292764 11.585969
v -0.125961 -0.321102 11.579110
v -0.113456 -0.262867 11.555014
v -0.144608 -0.252525 11.553838
vn -0.2137 -0.9226 0.3212
vn -0.3183 -0.9464 -0.0540
vn -0.3183 -0.9465 -0.0540
vn -0.3744 -0.8262 -0.4209
vn -0.3158 -0.2457 -0.9165
vn -0.3157 -0.2458 -0.9164
vn -0.2099 0.1258 -0.9696
vn -0.2099 0.1259 -0.9696
vn -0.0721 0.4786 -0.8751
vn -0.0721 0.4784 -0.8752
vn 0.0766 0.7583 -0.6474
vn 0.2138 0.9226 -0.3212
vn 0.3183 0.9465 0.0540
vn 0.3183 0.9464 0.0540
vn 0.3744 0.8263 0.4209
vn 0.3744 0.8262 0.4209
vn 0.3157 0.2460 0.9164
vn 0.3158 0.2458 0.9164
vn 0.2099 -0.1259 0.9696
vn 0.0721 -0.4784 0.8752
vn 0.0721 -0.4786 0.8751
vn -0.0766 -0.7583 0.6474
vn -0.0767 -0.7583 0.6474
vn -0.3735 -0.5802 -0.7238
vn -0.3735 -0.5803 -0.7237
vn 0.3735 0.5802 0.7238
vn 0.3735 0.5803 0.7237
vn -0.3514 -0.4212 -0.8362
vn -0.3514 -0.4211 -0.8362
vn 0.3514 0.4212 0.8362
vn 0.3514 0.4211 0.8362
vn 0.9245 -0.2973 -0.2387
vn -0.9245 0.2973 0.2387
vn 0.3240 0.4260 0.8448
vn 0.3240 0.4259 0.8448
vn 0.3240 0.4259 0.8447
vn 0.3241 0.4259 0.8447
vn -0.5764 -0.6065 0.5476
vn -0.5765 -0.6064 0.5476
vn -0.6117 -0.4707 -0.6358
vn -0.6117 -0.4707 -0.6359
vn 0.5516 0.6285 -0.5484
vn 0.5515 0.6287 -0.5483
vn 0.5096 0.4195 0.7513
vn 0.5096 0.4194 0.7513
vn 0.5095 0.4195 0.7513
vn -0.5562 -0.0713 -0.8280
vn -0.5562 -0.0712 -0.8280
vn -0.8902 0.4275 0.1574
vn -0.8902 0.4276 0.1573
vn -0.6228 -0.5306 -0.5750
vn 0.1261 0.5111 0.8502
vn 0.1262 0.5108 0.8504
vn 0.1244 0.4888 0.8634
vn 0.1245 0.4887 0.8635
vn 0.1212 0.4702 0.8742
vn 0.1212 0.4700 0.8743
vn 0.1153 0.4484 0.8864
vn 0.1153 0.4482 0.8865
vn -0.0523 -0.3251 -0.9442
vn -0.0523 -0.3252 -0.9442
vn -0.0820 -0.4380 -0.8952
vn -0.0821 -0.4382 -0.8951
vn -0.0982 -0.5314 -0.8414
vn -0.0982 -0.5315 -0.8414
vn -0.1055 -0.6334 -0.7666
vn -0.1055 -0.6336 -0.7665
vn -0.9244 0.2973 0.2387
vn -0.9244 0.2973 0.2388
vn -0.9245 0.2972 0.2387
vn 0.9244 -0.2973 -0.2387
vn 0.9245 -0.2972 -0.2388
vn 0.9244 -0.2974 -0.2387
vn 0.9245 -0.2972 -0.2387
vn 0.9358 -0.1598 -0.3143
vn 0.9359 -0.1597 -0.3141
vn -0.5939 -0.3721 -0.7134
vn -0.5939 -0.3720 -0.7134
vn -0.5777 -0.2788 -0.7671
vn -0.5778 -0.2785 -0.7672
vn -0.5584 -0.1624 -0.8135
vn 0.5559 0.3065 0.7727
vn 0.5559 0.3064 0.7727
vn 0.5583 0.3295 0.7614
vn 0.5583 0.3297 0.7613
vn 0.5615 0.3483 0.7506
vn 0.5615 0.3484 0.7505
vn 0.5667 0.3692 0.7366
vn 0.5667 0.3691 0.7366
vn -0.1038 -0.6976 -0.7090
vn -0.1038 -0.6975 -0.7090
vn -0.0102 -0.2469 -0.9690
vn -0.0102 -0.2468 -0.9690
vn 0.2008 0.5188 0.8310
vn 0.2008 0.5187 0.8310
vn -0.2877 0.8985 -0.3316
vn -0.2878 0.8985 -0.3316
vn 0.3173 -0.8938 0.3168
vn 0.3176 -0.8936 0.3171
vn 0.3772 0.4088 0.8310
vn 0.3772 0.4089 0.8310
vn 0.9245 -0.2973 -0.2388
vn -0.9245 0.2973 0.2388
vn 0.9244 -0.2975 -0.2388
vt 1.000000 0.500000
vt 1.000000 0.000000
vt 0.937500 0.000000
vt 0.937500 0.500000
vt 0.875000 0.000000
vt 0.875000 0.500000
vt 0.812500 0.000000
vt 0.812500 0.500000
vt 0.733490 0.500000
vt 0.733490 0.000000
vt 0.687500 0.000000
vt 0.687500 0.500000
vt 0.625000 0.000000
vt 0.625000 0.500000
vt 0.562500 0.000000
vt 0.562500 0.500000
vt 0.500000 0.000000
vt 0.500000 0.500000
vt 0.437500 0.000000
vt 0.437500 0.500000
vt 0.375000 0.000000
vt 0.375000 0.500000
vt 0.312500 0.000000
vt 0.312500 0.500000
vt 0.233490 0.500000
vt 0.233490 0.000000
vt 0.187500 0.000000
vt 0.187500 0.500000
vt 0.125000 0.000000
vt 0.125000 0.500000
vt 0.062500 0.000000
vt 0.062500 0.500000
vt 0.000000 0.000000
vt 0.000000 0.500000
vt 0.766510 0.000000
vt 0.766510 0.500000
vt 0.266510 0.000000
vt 0.266510 0.500000
vt 0.514826 0.725738
vt 0.985174 0.725738
vt 0.985174 0.774262
vt 0.514826 0.774262
vt 0.014826 0.774262
vt 0.485174 0.774262
vt 0.485174 0.725738
vt 0.014826 0.725738
vt 0.750000 0.500000
vt 0.875000 0.409610
vt 0.750000 0.409610
vt 0.375000 0.625000
vt 0.625000 0.625000
vt 0.376575 0.394714
vt 0.250787 0.395274
vt 0.250000 0.409360
vt 0.375000 0.409360
vt 0.375000 0.125000
vt 0.625000 0.125000
vt 0.375000 0.840640
vt 0.625000 0.840390
vt 0.625000 0.750000
vt 0.375000 0.750000
vt 0.625000 0.409610
vt 0.750000 0.340390
vt 0.875000 0.340390
vt 0.875000 0.250000
vt 0.750000 0.250000
vt 0.250000 0.340640
vt 0.375000 0.340640
vt 0.375000 0.250000
vt 0.250000 0.250000
vt 0.625000 0.340390
vt 0.625000 0.250000
vt 0.250000 0.500000
vt 0.624653 0.356194
vt 0.749827 0.356157
vt 0.623858 0.375000
vt 0.749429 0.375000
vt 0.624653 0.393806
vt 0.749827 0.393843
vt 0.125000 0.340640
vt 0.125000 0.354167
vt 0.250787 0.354726
vt 0.125000 0.375000
vt 0.252866 0.375000
vt 0.125000 0.395833
vt 0.125000 0.409360
vt 0.376575 0.355286
vt 0.380733 0.375000
vt 0.378149 0.856404
vt 0.624306 0.856269
vt 0.386466 0.875000
vt 0.622716 0.875000
vt 0.378149 0.893596
vt 0.624306 0.893731
vt 0.375000 0.909360
vt 0.625000 0.909610
vt 0.375000 1.000000
vt 0.625000 1.000000
vt 0.875000 0.393881
vt 0.875000 0.375000
vt 0.875000 0.356119
vt 0.125000 0.250000
vt 0.971731 0.841844
vt 0.919706 0.919706
vt 0.841844 0.971731
vt 0.750000 0.990000
vt 0.658156 0.971731
vt 0.580294 0.919706
vt 0.528269 0.841844
vt 0.471731 0.841844
vt 0.419706 0.919706
vt 0.341844 0.971731
vt 0.250000 0.990000
vt 0.158156 0.971731
vt 0.080294 0.919706
vt 0.028269 0.841844
vt 0.471731 0.658156
vt 0.419706 0.580294
vt 0.341844 0.528269
vt 0.250000 0.510000
vt 0.158156 0.528269
vt 0.080294 0.580294
vt 0.028269 0.658156
vt 0.971731 0.658156
vt 0.919706 0.580294
vt 0.841844 0.528269
vt 0.750000 0.510000
vt 0.658156 0.528269
vt 0.580294 0.580294
vt 0.528269 0.658156
s 0
usemtl baseMaterial.001
f 1/1/1 2/2/1 3/3/1
f 1/1/1 3/3/1 4/4/1
f 5/4/2 6/3/2 7/5/2
f 5/4/3 7/5/3 8/6/3
f 9/6/4 10/5/4 11/7/4
f 9/6/4 11/7/4 12/8/4
f 13/9/5 14/10/5 15/11/5
f 13/9/6 15/11/6 16/12/6
f 26/12/7 27/11/7 28/13/7
f 26/12/8 28/13/8 29/14/8
f 30/14/9 31/13/9 32/15/9
f 30/14/10 32/15/10 33/16/10
f 34/16/11 35/15/11 36/17/11
f 34/16/11 36/17/11 37/18/11
f 38/18/12 39/17/12 40/19/12
f 38/18/12 40/19/12 41/20/12
f 42/20/13 43/19/13 44/21/13
f 42/20/14 44/21/14 45/22/14
f 46/22/15 47/21/15 48/23/15
f 46/22/16 48/23/16 49/24/16
f 50/25/17 51/26/17 52/27/17
f 50/25/18 52/27/18 53/28/18
f 54/28/19 55/27/19 56/29/19
s 1
f 54/28/19 56/29/19 57/30/19
s 0
f 67/30/20 68/29/20 69/31/20
f 67/30/21 69/31/21 70/32/21
f 71/32/22 72/31/22 73/33/22
f 71/32/23 73/33/23 74/34/23
f 75/8/24 76/7/24 77/35/24
f 75/8/25 77/35/25 78/36/25
f 88/24/26 89/23/26 90/37/26
f 88/24/27 90/37/27 91/38/27
f 92/10/28 93/9/28 94/36/28
f 92/10/29 94/36/29 95/35/29
f 96/26/30 97/25/30 98/38/30
f 96/26/31 98/38/31 99/37/31
f 100/39/32 101/40/32 102/41/32
f 100/39/32 102/41/32 103/42/32
f 104/43/33 105/44/33 106/45/33
f 104/43/33 106/45/33 107/46/33
s 1
f 117/47/34 118/6/35 119/48/36
f 117/47/34 119/48/36 120/49/37
s 0
f 121/50/38 122/51/38 123/14/38
s 1
f 121/50/39 123/14/39 124/22/39
s 0
f 125/52/40 126/53/40 127/54/40
f 125/52/41 127/54/41 128/55/41
f 129/56/42 130/57/42 131/13/42
f 129/56/43 131/13/43 132/21/43
f 133/58/32 134/59/32 135/60/32
f 133/58/32 135/60/32 136/61/32
f 137/22/33 138/14/33 139/62/33
f 137/22/33 139/62/33 140/55/33
s 1
f 141/63/44 142/64/45 143/65/46
f 141/63/44 143/65/46 144/66/46
f 145/67/47 146/68/47 147/69/47
f 145/67/47 147/69/47 148/70/48
s 0
f 149/68/49 150/71/49 151/72/49
s 1
f 149/68/50 151/72/50 152/69/50
s 0
f 153/73/51 154/22/51 155/55/51
f 153/73/51 155/55/51 156/54/51
f 157/63/52 158/71/52 159/74/52
f 157/63/53 159/74/53 160/75/53
f 161/75/54 162/74/54 163/76/54
f 161/75/55 163/76/55 164/77/55
f 165/77/56 166/76/56 167/78/56
f 165/77/57 167/78/57 168/79/57
f 169/79/58 170/78/58 171/62/58
f 169/79/59 171/62/59 172/49/59
f 173/67/60 174/80/60 175/81/60
f 173/67/61 175/81/61 176/82/61
f 177/82/62 178/81/62 179/83/62
f 177/82/63 179/83/63 180/84/63
f 181/84/64 182/83/64 183/85/64
f 181/84/65 183/85/65 184/53/65
f 185/53/66 186/85/66 187/86/66
f 185/53/67 187/86/67 188/54/67
f 189/71/33 190/68/33 191/87/33
f 189/71/68 191/87/68 192/74/68
f 192/74/69 191/87/69 193/88/69
f 192/74/33 193/88/33 194/76/33
f 194/76/33 193/88/33 195/52/33
f 194/76/68 195/52/68 196/78/68
f 196/78/70 195/52/70 140/55/70
f 196/78/33 140/55/33 139/62/33
f 134/59/71 133/58/71 197/89/71
f 134/59/72 197/89/72 198/90/72
f 198/90/73 197/89/73 199/91/73
f 198/90/74 199/91/74 200/92/74
f 200/92/32 199/91/32 201/93/32
f 200/92/32 201/93/32 202/94/32
f 202/94/73 201/93/73 203/95/73
f 202/94/32 203/95/32 204/96/32
s 1
f 205/97/75 206/98/75 207/96/75
s 0
f 205/97/76 207/96/76 208/95/76
f 209/88/77 210/84/77 211/53/77
f 209/88/78 211/53/78 212/52/78
f 213/87/79 214/82/79 215/84/79
f 213/87/80 215/84/80 216/88/80
f 217/68/81 218/67/81 219/82/81
f 217/68/81 219/82/81 220/87/81
f 221/99/82 222/79/82 223/49/82
f 221/99/83 223/49/83 224/48/83
f 225/100/84 226/77/84 227/79/84
f 225/100/85 227/79/85 228/99/85
f 229/101/86 230/75/86 231/77/86
f 229/101/87 231/77/87 232/100/87
f 233/64/88 234/63/88 235/75/88
f 233/64/89 235/75/89 236/101/89
f 237/30/90 238/73/90 239/54/90
f 237/30/91 239/54/91 240/86/91
s 1
f 241/80/92 242/67/92 243/70/92
f 241/80/92 243/70/92 244/102/93
f 245/71/94 246/63/95 247/66/95
f 245/71/94 247/66/95 248/72/95
s 0
f 249/69/96 250/72/96 251/57/96
f 249/69/97 251/57/97 252/56/97
f 253/61/98 254/60/98 255/51/98
f 253/61/99 255/51/99 256/50/99
s 1
f 257/14/100 258/47/100 259/49/100
f 257/14/100 259/49/100 260/62/101
s 0
f 19/103/71 17/42/71 18/41/71
f 17/42/32 19/103/32 20/104/32
f 17/42/32 20/104/32 21/105/32
f 17/42/32 21/105/32 22/106/32
f 17/42/102 22/106/102 23/107/102
f 17/42/32 23/107/32 24/108/32
f 17/42/32 24/108/32 25/109/32
f 59/43/70 66/110/70 58/44/70
f 66/110/68 59/43/68 65/111/68
f 65/111/33 59/43/33 64/112/33
f 64/112/33 59/43/33 63/113/33
f 63/113/68 59/43/68 62/114/68
f 62/114/103 59/43/103 61/115/103
f 61/115/70 59/43/70 60/116/70
f 86/117/68 84/46/68 85/45/68
f 84/46/33 86/117/33 87/118/33
f 84/46/33 87/118/33 79/119/33
f 84/46/103 79/119/103 80/120/103
f 84/46/33 80/120/33 81/121/33
f 84/46/33 81/121/33 82/122/33
f 84/46/33 82/122/33 83/123/33
f 113/39/74 111/124/74 112/40/74
f 111/124/102 113/39/102 110/125/102
f 110/125/32 113/39/32 109/126/32
f 109/126/71 113/39/71 108/127/71
f 108/127/32 113/39/32 116/128/32
f 116/128/72 113/39/72 115/129/72
f 115/129/104 113/39/104 114/130/104
