{
	"asset":{
		"generator":"Khronos glTF Blender I/O v4.4.56",
		"version":"2.0"
	},
	"scene":0,
	"scenes":[
		{
			"name":"Scene",
			"nodes":[
				0
			]
		}
	],
	"nodes":[
		{
			"mesh":0,
			"name":"__FullOhirayamaTerrain"
		}
	],
	"materials":[
		{
			"doubleSided":true,
			"name":"material_0",
			"pbrMetallicRoughness":{
				"baseColorTexture":{
					"index":0
				},
				"metallicFactor":0,
				"roughnessFactor":0.6000000238418579
			}
		},
		{
			"doubleSided":true,
			"name":"material_1",
			"pbrMetallicRoughness":{
				"metallicFactor":0,
				"roughnessFactor":0.6000000238418579
			}
		}
	],
	"meshes":[
		{
			"name":"__FullOhirayamaTerrainMesh",
			"primitives":[
				{
					"attributes":{
						"POSITION":0,
						"NORMAL":1,
						"TEXCOORD_0":2
					},
					"indices":3,
					"material":0
				},
				{
					"attributes":{
						"POSITION":4,
						"NORMAL":5,
						"TEXCOORD_0":6
					},
					"indices":7,
					"material":1
				}
			]
		}
	],
	"textures":[
		{
			"sampler":0,
			"source":0
		}
	],
	"images":[
		{
			"mimeType":"image/png",
			"name":"material_0_baseColor",
			"uri":"material_0_baseColor.png"
		}
	],
	"accessors":[
		{
			"bufferView":0,
			"componentType":5126,
			"count":581860,
			"max":[
				11.220703125,
				7.366724967956543,
				8.525390625
			],
			"min":[
				-11.220703125,
				1.1359639167785645,
				-8.525390625
			],
			"type":"VEC3"
		},
		{
			"bufferView":1,
			"componentType":5126,
			"count":581860,
			"type":"VEC3"
		},
		{
			"bufferView":2,
			"componentType":5126,
			"count":581860,
			"type":"VEC2"
		},
		{
			"bufferView":3,
			"componentType":5125,
			"count":668718,
			"type":"SCALAR"
		},
		{
			"bufferView":4,
			"componentType":5126,
			"count":4054,
			"max":[
				11.220703125,
				7.007961750030518,
				8.525390625
			],
			"min":[
				-11.220703125,
				0,
				-8.525390625
			],
			"type":"VEC3"
		},
		{
			"bufferView":5,
			"componentType":5126,
			"count":4054,
			"type":"VEC3"
		},
		{
			"bufferView":6,
			"componentType":5126,
			"count":4054,
			"type":"VEC2"
		},
		{
			"bufferView":7,
			"componentType":5123,
			"count":12132,
			"type":"SCALAR"
		}
	],
	"bufferViews":[
		{
			"buffer":0,
			"byteLength":6982320,
			"byteOffset":0,
			"target":34962
		},
		{
			"buffer":0,
			"byteLength":6982320,
			"byteOffset":6982320,
			"target":34962
		},
		{
			"buffer":0,
			"byteLength":4654880,
			"byteOffset":13964640,
			"target":34962
		},
		{
			"buffer":0,
			"byteLength":2674872,
			"byteOffset":18619520,
			"target":34963
		},
		{
			"buffer":0,
			"byteLength":48648,
			"byteOffset":21294392,
			"target":34962
		},
		{
			"buffer":0,
			"byteLength":48648,
			"byteOffset":21343040,
			"target":34962
		},
		{
			"buffer":0,
			"byteLength":32432,
			"byteOffset":21391688,
			"target":34962
		},
		{
			"buffer":0,
			"byteLength":24264,
			"byteOffset":21424120,
			"target":34963
		}
	],
	"samplers":[
		{
			"magFilter":9729,
			"minFilter":9987
		}
	],
	"buffers":[
		{
			"byteLength":21448384,
			"uri":"OhirayamaTerrainFull.bin"
		}
	]
}
