# Blender 4.4.1
# www.blender.org
mtllib ブロック.mtl
o ブロック.001
v -0.560624 -0.560624 0.560624
v -0.560624 0.560624 0.560624
v -0.560624 -0.560624 -0.560624
v -0.560624 0.560624 -0.560624
v 0.560624 -0.560624 0.560624
v 0.560624 0.560624 0.560624
v 0.560624 -0.560624 -0.560624
v 0.560624 0.560624 -0.560624
v -0.156948 0.429898 -0.168879
v -0.124383 0.433572 -0.222795
v -0.082122 0.439254 -0.269298
v -0.031789 0.446725 -0.306603
v 0.024682 0.455698 -0.333275
v 0.085120 0.465827 -0.348289
v 0.147204 0.476725 -0.351069
v 0.208547 0.487972 -0.341507
v 0.266792 0.499135 -0.319971
v 0.319700 0.509787 -0.287289
v 0.365239 0.519516 -0.244716
v 0.401658 0.527951 -0.193889
v 0.427557 0.534765 -0.136760
v 0.441942 0.539699 -0.075526
v 0.444260 0.542561 -0.012540
v 0.434421 0.543242 0.049779
v 0.412804 0.541716 0.109035
v 0.380239 0.538042 0.162950
v 0.337978 0.532360 0.209454
v 0.287645 0.524889 0.246759
v 0.231174 0.515916 0.273431
v 0.170735 0.505786 0.288445
v 0.108651 0.494889 0.291224
v 0.047308 0.483642 0.281663
v -0.010936 0.472479 0.260127
v -0.063845 0.461827 0.227444
v -0.109383 0.452098 0.184872
v -0.145802 0.443663 0.134044
v -0.171702 0.436848 0.076916
v -0.186087 0.431915 0.015682
v -0.188404 0.429053 -0.047305
v -0.178566 0.428372 -0.109623
v 0.015650 1.119165 -0.054572
v 0.622186 0.061172 -0.237989
v 0.634122 -0.000447 -0.231548
v 0.643818 -0.060005 -0.213119
v 0.650900 -0.115215 -0.183410
v 0.655096 -0.163953 -0.143562
v 0.656245 -0.204348 -0.095108
v 0.654303 -0.234847 -0.039909
v 0.649344 -0.254277 0.019914
v 0.641559 -0.261893 0.082061
v 0.631248 -0.257400 0.144144
v 0.618806 -0.240973 0.203778
v 0.604711 -0.213243 0.258671
v 0.589505 -0.175274 0.306713
v 0.573774 -0.128526 0.346058
v 0.558120 -0.074796 0.375195
v 0.543146 -0.016149 0.393002
v 0.529427 0.045163 0.398797
v 0.517490 0.106782 0.392356
v 0.507794 0.166341 0.373926
v 0.500713 0.221550 0.344217
v 0.496516 0.270289 0.304370
v 0.495367 0.310683 0.255915
v 0.497310 0.341182 0.200716
v 0.502268 0.360612 0.140894
v 0.510053 0.368228 0.078747
v 0.520365 0.363736 0.016663
v 0.532807 0.347309 -0.042971
v 0.546902 0.319578 -0.097864
v 0.562107 0.281609 -0.145906
v 0.577839 0.234861 -0.185251
v 0.593493 0.181131 -0.214387
v 0.608467 0.122484 -0.232195
v 1.199071 0.183738 0.174476
vn -1.0000 -0.0000 -0.0000
vn -0.0000 -0.0000 -1.0000
vn 1.0000 -0.0000 -0.0000
vn -0.0000 -0.0000 1.0000
vn -0.0000 -1.0000 -0.0000
vn -0.0000 1.0000 -0.0000
vn -0.8285 0.2872 -0.4808
vn -0.7239 0.3003 -0.6212
vn -0.5945 0.3186 -0.7383
vn -0.4452 0.3416 -0.8277
vn -0.2818 0.3683 -0.8860
vn -0.1106 0.3977 -0.9108
vn 0.0619 0.4287 -0.9013
vn 0.2290 0.4600 -0.8579
vn 0.3844 0.4905 -0.7821
vn 0.5220 0.5190 -0.6769
vn 0.6365 0.5443 -0.5464
vn 0.7236 0.5656 -0.3955
vn 0.7799 0.5821 -0.2301
vn 0.8032 0.5930 -0.0565
vn 0.7927 0.5979 0.1186
vn 0.7488 0.5967 0.2885
vn 0.6730 0.5895 0.4467
vn 0.5685 0.5764 0.5870
vn 0.4391 0.5580 0.7042
vn 0.2898 0.5350 0.7936
vn 0.1264 0.5083 0.8518
vn -0.0448 0.4789 0.8767
vn -0.2173 0.4480 0.8672
vn -0.3844 0.4167 0.8238
vn -0.5398 0.3862 0.7480
vn -0.6774 0.3577 0.6428
vn -0.7919 0.3323 0.5123
vn -0.8790 0.3110 0.3614
vn -0.9353 0.2946 0.1960
vn -0.9587 0.2837 0.0224
vn 0.1744 -0.9839 0.0383
vn -0.9481 0.2787 -0.1527
vn -0.9042 0.2799 -0.3226
vn 0.5777 0.0266 -0.8158
vn 0.6079 -0.1427 -0.7811
vn 0.6313 -0.3031 -0.7138
vn 0.6471 -0.4484 -0.6166
vn 0.6546 -0.5730 -0.4932
vn 0.6535 -0.6721 -0.3483
vn 0.6438 -0.7418 -0.1876
vn 0.6260 -0.7796 -0.0171
vn 0.6007 -0.7840 0.1565
vn 0.5689 -0.7548 0.3266
vn 0.5318 -0.6930 0.4867
vn 0.4909 -0.6012 0.6305
vn 0.4476 -0.4828 0.7527
vn 0.4038 -0.3424 0.8484
vn 0.3610 -0.1853 0.9140
vn 0.3209 -0.0177 0.9470
vn 0.2850 0.1541 0.9461
vn 0.2548 0.3235 0.9113
vn 0.2313 0.4839 0.8440
vn 0.2156 0.6291 0.7468
vn 0.2081 0.7537 0.6234
vn 0.2092 0.8528 0.4785
vn 0.2189 0.9226 0.3178
vn 0.2367 0.9604 0.1473
vn 0.2620 0.9647 -0.0263
vn 0.2938 0.9355 -0.1964
vn 0.3309 0.8738 -0.3565
vn 0.3718 0.7820 -0.5003
vn 0.4150 0.6636 -0.6224
vn 0.4589 0.5231 -0.7182
vn -0.9682 -0.2028 -0.1461
vn 0.5017 0.3661 -0.7838
vn 0.5418 0.1984 -0.8167
vn -0.9682 -0.2028 -0.1462
vt 0.625000 0.000000
vt 0.375000 0.250000
vt 0.375000 0.000000
vt 0.625000 0.250000
vt 0.375000 0.500000
vt 0.625000 0.500000
vt 0.375000 0.750000
vt 0.625000 0.750000
vt 0.375000 1.000000
vt 0.125000 0.750000
vt 0.125000 0.500000
vt 0.875000 0.500000
vt 0.250000 0.490000
vt 0.250000 0.250000
vt 0.296822 0.485388
vt 0.341844 0.471731
vt 0.383337 0.449553
vt 0.419706 0.419706
vt 0.449553 0.383337
vt 0.471731 0.341844
vt 0.485388 0.296822
vt 0.490000 0.250000
vt 0.485388 0.203178
vt 0.471731 0.158156
vt 0.449553 0.116663
vt 0.419706 0.080294
vt 0.383337 0.050447
vt 0.341844 0.028269
vt 0.296822 0.014612
vt 0.250000 0.010000
vt 0.203178 0.014612
vt 0.158156 0.028269
vt 0.116663 0.050447
vt 0.080294 0.080294
vt 0.050447 0.116663
vt 0.028269 0.158156
vt 0.014612 0.203178
vt 0.010000 0.250000
vt 0.014612 0.296822
vt 0.028269 0.341844
vt 0.050447 0.383337
vt 0.080294 0.419706
vt 0.116663 0.449553
vt 0.158156 0.471731
vt 0.796822 0.014612
vt 0.514612 0.203178
vt 0.703178 0.485388
vt 0.203178 0.485388
vt 0.625000 1.000000
vt 0.875000 0.750000
vt 0.750000 0.490000
vt 0.796822 0.485388
vt 0.841844 0.471731
vt 0.883337 0.449553
vt 0.919706 0.419706
vt 0.949553 0.383337
vt 0.971731 0.341844
vt 0.985388 0.296822
vt 0.990000 0.250000
vt 0.985388 0.203178
vt 0.971731 0.158156
vt 0.949553 0.116663
vt 0.919706 0.080294
vt 0.883337 0.050447
vt 0.841844 0.028269
vt 0.750000 0.010000
vt 0.703178 0.014612
vt 0.658156 0.028269
vt 0.616663 0.050447
vt 0.580294 0.080294
vt 0.550447 0.116663
vt 0.528269 0.158156
vt 0.510000 0.250000
vt 0.514612 0.296822
vt 0.528269 0.341844
vt 0.550447 0.383337
vt 0.580294 0.419706
vt 0.616663 0.449553
vt 0.658156 0.471731
s 0
usemtl マテリアル
f 2/1/1 3/2/1 1/3/1
f 4/4/2 7/5/2 3/2/2
f 8/6/3 5/7/3 7/5/3
f 6/8/4 1/9/4 5/7/4
f 7/5/5 1/10/5 3/11/5
f 4/12/6 6/8/6 8/6/6
f 9/13/7 41/14/7 10/15/7
f 10/15/8 41/14/8 11/16/8
f 11/16/9 41/14/9 12/17/9
f 12/17/10 41/14/10 13/18/10
f 13/18/11 41/14/11 14/19/11
f 14/19/12 41/14/12 15/20/12
f 15/20/13 41/14/13 16/21/13
f 16/21/14 41/14/14 17/22/14
f 17/22/15 41/14/15 18/23/15
f 18/23/16 41/14/16 19/24/16
f 19/24/17 41/14/17 20/25/17
f 20/25/18 41/14/18 21/26/18
f 21/26/19 41/14/19 22/27/19
f 22/27/20 41/14/20 23/28/20
f 23/28/21 41/14/21 24/29/21
f 24/29/22 41/14/22 25/30/22
f 25/30/23 41/14/23 26/31/23
f 26/31/24 41/14/24 27/32/24
f 27/32/25 41/14/25 28/33/25
f 28/33/26 41/14/26 29/34/26
f 29/34/27 41/14/27 30/35/27
f 30/35/28 41/14/28 31/36/28
f 31/36/29 41/14/29 32/37/29
f 32/37/30 41/14/30 33/38/30
f 33/38/31 41/14/31 34/39/31
f 34/39/32 41/14/32 35/40/32
f 35/40/33 41/14/33 36/41/33
f 36/41/34 41/14/34 37/42/34
f 37/42/35 41/14/35 38/43/35
f 38/43/36 41/14/36 39/44/36
f 24/45/37 32/46/37 40/47/37
f 39/44/38 41/14/38 40/48/38
f 40/48/39 41/14/39 9/13/39
f 42/13/40 74/14/40 43/15/40
f 43/15/41 74/14/41 44/16/41
f 44/16/42 74/14/42 45/17/42
f 45/17/43 74/14/43 46/18/43
f 46/18/44 74/14/44 47/19/44
f 47/19/45 74/14/45 48/20/45
f 48/20/46 74/14/46 49/21/46
f 49/21/47 74/14/47 50/22/47
f 50/22/48 74/14/48 51/23/48
f 51/23/49 74/14/49 52/24/49
f 52/24/50 74/14/50 53/25/50
f 53/25/51 74/14/51 54/26/51
f 54/26/52 74/14/52 55/27/52
f 55/27/53 74/14/53 56/28/53
f 56/28/54 74/14/54 57/29/54
f 57/29/55 74/14/55 58/30/55
f 58/30/56 74/14/56 59/31/56
f 59/31/57 74/14/57 60/32/57
f 60/32/58 74/14/58 61/33/58
f 61/33/59 74/14/59 62/34/59
f 62/34/60 74/14/60 63/35/60
f 63/35/61 74/14/61 64/36/61
f 64/36/62 74/14/62 65/37/62
f 65/37/63 74/14/63 66/38/63
f 66/38/64 74/14/64 67/39/64
f 67/39/65 74/14/65 68/40/65
f 68/40/66 74/14/66 69/41/66
f 69/41/67 74/14/67 70/42/67
f 70/42/68 74/14/68 71/43/68
f 71/43/69 74/14/69 72/44/69
f 57/45/70 65/46/70 73/47/70
f 72/44/71 74/14/71 73/48/71
f 73/48/72 74/14/72 42/13/72
f 2/1/1 4/4/1 3/2/1
f 4/4/2 8/6/2 7/5/2
f 8/6/3 6/8/3 5/7/3
f 6/8/4 2/49/4 1/9/4
f 7/5/5 5/7/5 1/10/5
f 4/12/6 2/50/6 6/8/6
f 40/47/37 9/51/37 10/52/37
f 10/52/37 11/53/37 12/54/37
f 12/54/37 13/55/37 14/56/37
f 14/56/37 15/57/37 16/58/37
f 16/58/37 17/59/37 18/60/37
f 18/60/37 19/61/37 20/62/37
f 20/62/37 21/63/37 22/64/37
f 22/64/37 23/65/37 24/45/37
f 24/45/37 25/66/37 26/67/37
f 26/67/37 27/68/37 28/69/37
f 28/69/37 29/70/37 30/71/37
f 30/71/37 31/72/37 32/46/37
f 32/46/37 33/73/37 34/74/37
f 34/74/37 35/75/37 36/76/37
f 36/76/37 37/77/37 38/78/37
f 38/78/37 39/79/37 40/47/37
f 40/47/37 10/52/37 12/54/37
f 12/54/37 14/56/37 16/58/37
f 16/58/37 18/60/37 20/62/37
f 20/62/37 22/64/37 24/45/37
f 24/45/37 26/67/37 28/69/37
f 28/69/37 30/71/37 32/46/37
f 32/46/37 34/74/37 36/76/37
f 36/76/37 38/78/37 40/47/37
f 40/47/37 12/54/37 16/58/37
f 16/58/37 20/62/37 24/45/37
f 24/45/37 28/69/37 32/46/37
f 32/46/37 36/76/37 40/47/37
f 40/47/37 16/58/37 24/45/37
f 73/47/70 42/51/70 43/52/70
f 43/52/70 44/53/70 45/54/70
f 45/54/73 46/55/73 47/56/73
f 47/56/70 48/57/70 49/58/70
f 49/58/70 50/59/70 51/60/70
f 51/60/70 52/61/70 53/62/70
f 53/62/73 54/63/73 55/64/73
f 55/64/70 56/65/70 57/45/70
f 57/45/73 58/66/73 59/67/73
f 59/67/70 60/68/70 61/69/70
f 61/69/70 62/70/70 63/71/70
f 63/71/70 64/72/70 65/46/70
f 65/46/70 66/73/70 67/74/70
f 67/74/70 68/75/70 69/76/70
f 69/76/70 70/77/70 71/78/70
f 71/78/70 72/79/70 73/47/70
f 73/47/70 43/52/70 45/54/70
f 45/54/70 47/56/70 49/58/70
f 49/58/70 51/60/70 53/62/70
f 53/62/70 55/64/70 57/45/70
f 57/45/70 59/67/70 61/69/70
f 61/69/70 63/71/70 65/46/70
f 65/46/70 67/74/70 69/76/70
f 69/76/70 71/78/70 73/47/70
f 73/47/70 45/54/70 49/58/70
f 49/58/70 53/62/70 57/45/70
f 57/45/70 61/69/70 65/46/70
f 65/46/70 69/76/70 73/47/70
f 73/47/70 49/58/70 57/45/70
